<?xml version="1.0" encoding="UTF-8"?>
<!DOCTYPE svg PUBLIC "-//W3C//DTD SVG 1.1//EN" "http://www.w3.org/Graphics/SVG/1.1/DTD/svg11.dtd">
<svg xmlns="http://www.w3.org/2000/svg" version="1.1" width="512px" height="512px" style="shape-rendering:geometricPrecision; text-rendering:geometricPrecision; image-rendering:optimizeQuality; fill-rule:evenodd; clip-rule:evenodd" xmlns:xlink="http://www.w3.org/1999/xlink">
<g><path style="opacity:1" fill="#030202" d="M -0.5,-0.5 C 40.1667,-0.5 80.8333,-0.5 121.5,-0.5C 125.169,1.99931 127.169,5.49931 127.5,10C 126.741,13.5784 126.407,17.245 126.5,21C 128.301,21.3173 128.634,21.984 127.5,23C 128.76,26.784 130.76,30.1174 133.5,33C 132.655,34.5581 133.321,35.5581 135.5,36C 129.422,42.0991 129.089,48.4324 134.5,55C 138.298,56.8207 141.798,58.9874 145,61.5C 147.915,60.9172 149.915,59.2505 151,56.5C 151.179,53.4465 151.679,50.4465 152.5,47.5C 154.371,48.767 156.204,48.767 158,47.5C 159.079,49.3937 160.413,49.727 162,48.5C 162.667,49.1667 163.333,49.8333 164,50.5C 168.336,48.7428 172.836,46.4094 177.5,43.5C 178.842,44.9023 179.676,44.5689 180,42.5C 184.716,43.3564 189.05,41.6898 193,37.5C 193.8,34.1327 194.966,30.966 196.5,28C 194.433,25.3126 194.766,22.6459 197.5,20C 197.415,17.0202 197.081,14.0202 196.5,11C 198.621,8.80197 200.288,6.30197 201.5,3.5C 203.059,2.92644 204.559,2.25978 206,1.5C 209.945,3.1404 213.612,5.1404 217,7.5C 218,5.5 219,3.5 220,1.5C 223.318,1.44058 226.818,1.77391 230.5,2.5C 230.687,4.56429 231.187,6.56429 232,8.5C 233.183,5.47444 234.349,2.47444 235.5,-0.5C 256.167,-0.5 276.833,-0.5 297.5,-0.5C 295.035,10.2257 292.369,20.8924 289.5,31.5C 289.372,33.6547 289.872,35.6547 291,37.5C 295.768,44.0466 300.768,50.3799 306,56.5C 315.5,59.6667 325,62.8333 334.5,66C 331.968,66.6122 331.135,68.1122 332,70.5C 334.443,69.4067 336.943,68.4067 339.5,67.5C 348.66,70.947 357.993,73.447 367.5,75C 368.416,74.6258 369.25,74.1258 370,73.5C 372.087,65.7301 373.921,57.8968 375.5,50C 368.633,33.1002 361.633,16.2669 354.5,-0.5C 406.833,-0.5 459.167,-0.5 511.5,-0.5C 511.5,54.1667 511.5,108.833 511.5,163.5C 507.678,157.593 502.345,155.593 495.5,157.5C 494.139,159.028 492.972,160.695 492,162.5C 491.793,168.294 490.96,173.96 489.5,179.5C 489.833,180.833 490.167,182.167 490.5,183.5C 493.959,186.131 497.959,187.131 502.5,186.5C 504.069,181.929 507.069,178.595 511.5,176.5C 511.5,220.5 511.5,264.5 511.5,308.5C 505.833,308.5 500.167,308.5 494.5,308.5C 494.5,305.5 494.5,302.5 494.5,299.5C 488.491,299.334 482.491,299.501 476.5,300C 475.565,302.381 475.232,304.881 475.5,307.5C 471.349,303.241 467.182,298.908 463,294.5C 460.084,296.041 457.251,297.707 454.5,299.5C 455.857,301.186 457.19,302.852 458.5,304.5C 456.66,307.697 454.994,310.531 453.5,313C 453.957,313.414 454.291,313.914 454.5,314.5C 452.467,316.452 452.134,318.618 453.5,321C 452.426,321.739 451.759,322.739 451.5,324C 452.165,328.331 452.165,332.498 451.5,336.5C 452.578,340.501 453.578,344.834 454.5,349.5C 454.006,352.012 453.006,354.345 451.5,356.5C 457.472,356.97 461.639,359.97 464,365.5C 465.84,364.167 466.34,364.334 465.5,366C 466.167,367 466.833,368 467.5,369C 474.216,373.131 480.549,377.797 486.5,383C 490.573,384.055 494.573,384.721 498.5,385C 497.167,387.667 497.167,390.333 498.5,393C 496.721,396.056 495.054,399.223 493.5,402.5C 494.977,409.387 498.977,411.22 505.5,408C 508.837,405.215 510.17,401.882 509.5,398C 510.044,397.283 510.711,396.783 511.5,396.5C 511.5,409.5 511.5,422.5 511.5,435.5C 508.516,432.018 504.849,429.518 500.5,428C 490.722,427.313 484.889,431.813 483,441.5C 478.119,458.33 479.452,474.996 487,491.5C 488.833,493.333 490.667,495.167 492.5,497C 494.754,498.15 497.087,498.484 499.5,498C 503.657,495.336 507.657,492.503 511.5,489.5C 511.5,496.833 511.5,504.167 511.5,511.5C 458.167,511.5 404.833,511.5 351.5,511.5C 353.026,507.615 354.692,503.781 356.5,500C 355.196,499.196 354.529,498.029 354.5,496.5C 358.28,486.272 362.613,476.272 367.5,466.5C 367.167,466.167 366.833,465.833 366.5,465.5C 364.473,466.513 362.473,467.513 360.5,468.5C 361.029,464.808 360.029,461.642 357.5,459C 350.999,458.188 348.832,461.021 351,467.5C 352.039,468.71 353.206,469.71 354.5,470.5C 351.724,472.392 348.724,474.059 345.5,475.5C 340.524,472.163 337.524,473.496 336.5,479.5C 324.043,485.596 311.543,491.596 299,497.5C 296.049,501.739 293.882,506.406 292.5,511.5C 194.833,511.5 97.1667,511.5 -0.5,511.5C -0.5,440.833 -0.5,370.167 -0.5,299.5C 10.2441,301.853 20.9107,304.519 31.5,307.5C 36.8333,308.833 42.1667,310.167 47.5,311.5C 65.8219,316.165 84.1552,320.832 102.5,325.5C 102.5,327.167 102.5,328.833 102.5,330.5C 101.167,330.5 99.8333,330.5 98.5,330.5C 98.3341,335.511 98.5007,340.511 99,345.5C 100.113,346.305 101.279,346.972 102.5,347.5C 102.183,351.702 102.517,355.702 103.5,359.5C 124.833,359.5 146.167,359.5 167.5,359.5C 167.865,350.582 168.865,341.749 170.5,333C 173.167,332.333 175.833,332.333 178.5,333C 181.288,335.374 180.954,336.707 177.5,337C 179.433,337.251 181.266,337.751 183,338.5C 184.393,342.286 186.059,345.952 188,349.5C 188.654,350.696 189.154,350.696 189.5,349.5C 186.962,343.091 183.962,337.091 180.5,331.5C 188.768,330.033 197.101,329.033 205.5,328.5C 212.141,337.763 218.308,347.43 224,357.5C 225.789,359.229 227.956,359.896 230.5,359.5C 228.56,364.979 226.227,370.313 223.5,375.5C 222.713,374.758 222.047,373.925 221.5,373C 217.167,372.333 212.833,372.333 208.5,373C 212.682,377.015 216.682,381.182 220.5,385.5C 218.875,389.08 217.541,392.746 216.5,396.5C 218.084,401.66 219.751,406.827 221.5,412C 221.43,412.765 221.097,413.265 220.5,413.5C 218.549,414.282 217.049,415.616 216,417.5C 208.881,431.573 201.381,445.406 193.5,459C 193.833,459.333 194.167,459.667 194.5,460C 212.161,457.669 229.827,455.002 247.5,452C 248.308,451.692 248.975,451.192 249.5,450.5C 248.087,447.339 246.42,444.339 244.5,441.5C 246.631,440.831 248.631,440.165 250.5,439.5C 259.22,439.23 267.886,438.563 276.5,437.5C 278.415,439.472 280.749,440.472 283.5,440.5C 283.5,439.167 283.5,437.833 283.5,436.5C 286.466,436.11 289.132,436.777 291.5,438.5C 293.765,437.021 296.099,435.687 298.5,434.5C 303.141,416.927 308.141,399.593 313.5,382.5C 317.627,391.216 320.961,400.216 323.5,409.5C 330.66,408.926 332.326,405.593 328.5,399.5C 325.823,383.599 321.323,368.266 315,353.5C 314.919,357.032 315.419,360.532 316.5,364C 316.167,364.833 315.833,365.667 315.5,366.5C 315.167,366.333 314.833,366.167 314.5,366C 312.854,361.941 311.521,357.774 310.5,353.5C 311.167,352.5 311.833,351.5 312.5,350.5C 331.453,362.316 350.119,374.649 368.5,387.5C 370.878,385.448 373.211,383.448 375.5,381.5C 383.859,374.138 392.192,366.804 400.5,359.5C 402.833,359.5 405.167,359.5 407.5,359.5C 408.49,353.69 408.823,347.69 408.5,341.5C 412.391,339.103 414.891,340.436 416,345.5C 417.834,339.494 419.668,333.494 421.5,327.5C 419.085,321.418 414.751,317.418 408.5,315.5C 408.5,309.5 408.5,303.5 408.5,297.5C 411.936,295.672 415.603,294.005 419.5,292.5C 421.833,290 424.167,287.5 426.5,285C 427.793,284.51 429.127,284.343 430.5,284.5C 432.167,277.566 434.667,270.899 438,264.5C 438.72,262.888 438.554,261.388 437.5,260C 438.061,258.324 439.061,256.991 440.5,256C 439.833,255.667 439.167,255.333 438.5,255C 438.45,251.056 438.783,246.889 439.5,242.5C 440.086,242.291 440.586,241.957 441,241.5C 446.543,249.397 453.376,250.563 461.5,245C 464.135,243.039 465.969,240.539 467,237.5C 467.667,230.833 467.667,224.167 467,217.5C 465.541,212.481 462.207,210.147 457,210.5C 452.291,211.704 450.124,214.704 450.5,219.5C 449.022,219.238 447.689,219.571 446.5,220.5C 445.172,223.416 443.172,224.583 440.5,224C 441.41,227.377 440.41,230.21 437.5,232.5C 433.312,224.689 427.979,217.522 421.5,211C 418.943,210.315 417.109,208.815 416,206.5C 415.667,206.833 415.333,207.167 415,207.5C 412.973,205.388 410.807,204.388 408.5,204.5C 408.831,197.137 408.497,189.803 407.5,182.5C 406.478,182.855 405.811,183.522 405.5,184.5C 394.833,194.833 384.167,205.167 373.5,215.5C 372.844,214.722 372.011,214.056 371,213.5C 368.082,214.083 365.249,214.916 362.5,216C 360.575,220.28 359.575,224.78 359.5,229.5C 350.833,238.833 341.833,247.833 332.5,256.5C 325.666,254.68 319.333,255.68 313.5,259.5C 311.766,255.668 308.766,254.502 304.5,256C 302.018,260.666 298.684,261.5 294.5,258.5C 293.52,261.086 293.187,263.753 293.5,266.5C 295.103,266.312 296.437,266.812 297.5,268C 297.214,270.816 295.88,273.316 293.5,275.5C 290.374,273.187 286.874,272.187 283,272.5C 278.639,272.768 274.473,273.768 270.5,275.5C 270.826,278.311 271.659,280.978 273,283.5C 277.293,286.39 281.459,289.39 285.5,292.5C 283.166,295.338 280.166,297.171 276.5,298C 278.564,298.653 280.231,299.82 281.5,301.5C 283.65,298.479 286.316,297.812 289.5,299.5C 285.5,304.167 281.167,308.5 276.5,312.5C 275.244,312.539 274.244,312.039 273.5,311C 276.986,309.053 277.319,306.72 274.5,304C 272.345,303.884 270.345,304.217 268.5,305C 265.955,301.41 263.288,297.91 260.5,294.5C 258.604,293.534 256.604,293.201 254.5,293.5C 243.137,278.611 232.137,263.444 221.5,248C 233.319,232.682 245.319,217.515 257.5,202.5C 258.496,202.414 259.329,202.748 260,203.5C 260.483,202.552 260.649,201.552 260.5,200.5C 264.313,199.84 267.979,198.674 271.5,197C 273.492,196.426 274.992,195.259 276,193.5C 277.011,194.337 278.178,194.67 279.5,194.5C 279.5,192.5 279.5,190.5 279.5,188.5C 275.775,188.729 272.275,189.729 269,191.5C 268.536,190.906 268.369,190.239 268.5,189.5C 274.833,181.5 281.167,173.5 287.5,165.5C 293.152,168.652 297.652,172.985 301,178.5C 301.333,178.167 301.667,177.833 302,177.5C 302.903,178.701 304.069,179.535 305.5,180C 311.903,180.843 318.237,182.01 324.5,183.5C 323.355,184.891 323.355,186.224 324.5,187.5C 325.439,185.947 326.606,184.613 328,183.5C 330.066,184.377 331.9,184.71 333.5,184.5C 330.011,190.139 326.511,195.805 323,201.5C 322.502,204.482 322.335,207.482 322.5,210.5C 323.614,213.449 325.614,215.615 328.5,217C 326.993,217.837 326.493,219.004 327,220.5C 328.133,222.211 329.633,222.711 331.5,222C 333.833,219.667 336.167,217.333 338.5,215C 362.002,200.311 385.335,185.478 408.5,170.5C 411.575,165.357 414.908,160.357 418.5,155.5C 421.518,155.335 424.518,155.502 427.5,156C 432.221,158.412 437.554,160.245 443.5,161.5C 447.108,160.407 450.775,160.24 454.5,161C 454.167,161.333 453.833,161.667 453.5,162C 456.074,164.928 458.741,165.095 461.5,162.5C 462.106,160.291 462.773,158.124 463.5,156C 462.833,155.667 462.167,155.333 461.5,155C 463,153.5 464.5,152 466,150.5C 468.374,146.25 470.874,142.084 473.5,138C 471.523,130.781 468.69,123.615 465,116.5C 461.234,112.894 457.067,109.894 452.5,107.5C 457.113,100.38 461.946,93.3803 467,86.5C 467.007,83.9578 466.174,81.6245 464.5,79.5C 454.792,78.0748 445.126,78.9082 435.5,82C 429.013,86.6576 423.013,91.8243 417.5,97.5C 405.903,106.132 394.903,115.465 384.5,125.5C 382.852,126.81 381.186,128.143 379.5,129.5C 378.749,128.624 378.249,127.624 378,126.5C 376.837,128.285 376.17,130.285 376,132.5C 364.529,140.468 355.362,150.468 348.5,162.5C 346.197,160.022 344.031,157.355 342,154.5C 337.332,156.665 332.999,159.332 329,162.5C 326.288,166.366 327.121,168.866 331.5,170C 330.975,170.692 330.308,171.192 329.5,171.5C 320.666,166.248 311.666,161.248 302.5,156.5C 300.738,156.357 299.071,156.691 297.5,157.5C 296.702,157.043 296.369,156.376 296.5,155.5C 296.427,153.973 297.094,152.973 298.5,152.5C 299.404,151.791 299.737,150.791 299.5,149.5C 273.145,148.842 247.145,149.509 221.5,151.5C 220.272,152.306 219.272,153.306 218.5,154.5C 215.651,152.298 212.985,149.131 210.5,145C 204.838,140.883 201.505,142.217 200.5,149C 201.677,157.023 206.011,161.19 213.5,161.5C 201.524,179.466 189.19,197.133 176.5,214.5C 175.624,214.631 174.957,214.298 174.5,213.5C 181.462,204.61 185.796,194.944 187.5,184.5C 186.869,182.522 186.869,180.355 187.5,178C 186.643,177.311 185.977,176.478 185.5,175.5C 185.723,174.033 186.056,172.533 186.5,171C 184.699,170.683 184.366,170.016 185.5,169C 183.043,167.488 183.043,166.154 185.5,165C 182.724,163.221 183.057,162.221 186.5,162C 185.167,161.333 183.833,160.667 182.5,160C 184.211,158.867 184.711,157.367 184,155.5C 183.333,154.167 182.667,154.167 182,155.5C 181.222,153.416 180.055,151.583 178.5,150C 179.167,149.333 179.833,148.667 180.5,148C 179.833,146 179.167,144 178.5,142C 180.942,140.319 182.275,138.319 182.5,136C 182.5,134 182.5,132 182.5,130C 184.481,129.395 184.815,128.395 183.5,127C 184.833,126 186.167,125 187.5,124C 187.776,121.391 187.776,118.724 187.5,116C 189.891,114.691 189.891,113.691 187.5,113C 188.167,112.667 188.833,112.333 189.5,112C 189.335,110.883 189.002,109.716 188.5,108.5C 190.866,103.785 190.866,98.7847 188.5,93.5C 184.981,89.777 182.481,85.4437 181,80.5C 179.371,77.825 177.037,75.1583 174,72.5C 173.667,72.8333 173.333,73.1667 173,73.5C 172.167,72 171,70.8333 169.5,70C 171.045,68.3123 172.045,66.3123 172.5,64C 172.167,63.6667 171.833,63.3333 171.5,63C 172.308,62.6924 172.975,62.1924 173.5,61.5C 172.811,59.556 172.311,57.556 172,55.5C 170.482,55.9426 169.315,55.2759 168.5,53.5C 166.657,53.7552 164.657,53.9219 162.5,54C 162.833,54.3333 163.167,54.6667 163.5,55C 161.281,56.7635 159.281,58.7635 157.5,61C 158.097,62.6256 158.097,64.459 157.5,66.5C 156.252,65.9598 155.085,65.2931 154,64.5C 152.475,64.8881 150.808,64.8881 149,64.5C 148.333,67.1667 147.667,67.1667 147,64.5C 140.853,65.9521 134.687,68.2854 128.5,71.5C 123.575,70.4769 118.575,71.1435 113.5,73.5C 113.577,76.5092 112.244,78.6759 109.5,80C 107.338,79.5882 105.172,80.0882 103,81.5C 102,80.8333 101,80.1667 100,79.5C 97.2681,79.1841 94.7681,79.5174 92.5,80.5C 89.3382,70.9191 83.0048,67.7524 73.5,71C 74.8331,72.8402 74.6665,73.3402 73,72.5C 71.112,74.9223 69.112,74.9223 67,72.5C 66,72.8333 65,73.1667 64,73.5C 62.54,71.5776 60.8733,70.9109 59,71.5C 51.4174,66.682 44.9174,61.3486 39.5,55.5C 40.6293,53.4706 40.1293,53.1373 38,54.5C 35.7168,51.9865 33.2168,49.8198 30.5,48C 32.5039,46.5773 34.0039,44.744 35,42.5C 34.703,37.4639 36.5363,32.6306 40.5,28C 38.4025,21.9545 34.4025,20.2879 28.5,23C 26.9702,26.1415 26.3035,29.3082 26.5,32.5C 25.4406,33.6964 24.1073,34.363 22.5,34.5C 20.5896,33.4519 18.7562,33.4519 17,34.5C 13.3045,29.4785 9.6378,24.4785 6,19.5C 5.25883,18.3595 4.42549,18.3595 3.5,19.5C 1.8405,18.8284 0.507165,17.8284 -0.5,16.5C -0.5,10.8333 -0.5,5.16667 -0.5,-0.5 Z"/></g>
<g><path style="opacity:1" fill="#0d0102" d="M 121.5,-0.5 C 130.167,-0.5 138.833,-0.5 147.5,-0.5C 146.451,4.13089 145.951,8.79755 146,13.5C 148.234,16.3989 149.567,19.7322 150,23.5C 158.349,31.7067 166.349,31.3734 174,22.5C 175.918,17.479 175.751,12.479 173.5,7.5C 173.942,6.26133 174.609,5.26133 175.5,4.5C 177.727,3.59942 178.727,1.93275 178.5,-0.5C 197.5,-0.5 216.5,-0.5 235.5,-0.5C 234.349,2.47444 233.183,5.47444 232,8.5C 231.187,6.56429 230.687,4.56429 230.5,2.5C 226.818,1.77391 223.318,1.44058 220,1.5C 219,3.5 218,5.5 217,7.5C 213.612,5.1404 209.945,3.1404 206,1.5C 204.559,2.25978 203.059,2.92644 201.5,3.5C 200.288,6.30197 198.621,8.80197 196.5,11C 197.081,14.0202 197.415,17.0202 197.5,20C 194.766,22.6459 194.433,25.3126 196.5,28C 194.966,30.966 193.8,34.1327 193,37.5C 189.05,41.6898 184.716,43.3564 180,42.5C 179.676,44.5689 178.842,44.9023 177.5,43.5C 172.836,46.4094 168.336,48.7428 164,50.5C 163.333,49.8333 162.667,49.1667 162,48.5C 160.413,49.727 159.079,49.3937 158,47.5C 156.204,48.767 154.371,48.767 152.5,47.5C 151.679,50.4465 151.179,53.4465 151,56.5C 149.915,59.2505 147.915,60.9172 145,61.5C 141.798,58.9874 138.298,56.8207 134.5,55C 129.089,48.4324 129.422,42.0991 135.5,36C 133.321,35.5581 132.655,34.5581 133.5,33C 130.76,30.1174 128.76,26.784 127.5,23C 128.634,21.984 128.301,21.3173 126.5,21C 126.407,17.245 126.741,13.5784 127.5,10C 127.169,5.49931 125.169,1.99931 121.5,-0.5 Z"/></g>
<g><path style="opacity:1" fill="#0c0c0c" d="M 297.5,-0.5 C 314.833,-0.5 332.167,-0.5 349.5,-0.5C 356.826,17.1363 364.159,34.803 371.5,52.5C 369.743,59.4321 368.41,66.4321 367.5,73.5C 347.16,67.1927 326.827,60.6927 306.5,54C 301.742,45.7515 296.075,38.2515 289.5,31.5C 292.369,20.8924 295.035,10.2257 297.5,-0.5 Z"/></g>
<g><path style="opacity:1" fill="#400012" d="M 149.5,-0.5 C 149.833,-0.5 150.167,-0.5 150.5,-0.5C 150.5,1.5 150.5,3.5 150.5,5.5C 153.084,5.43118 155.084,4.26451 156.5,2C 161.444,-0.294442 166.111,0.0388917 170.5,3C 174.205,4.31281 176.538,3.14614 177.5,-0.5C 177.833,-0.5 178.167,-0.5 178.5,-0.5C 178.727,1.93275 177.727,3.59942 175.5,4.5C 173.712,4.21478 172.045,4.54811 170.5,5.5C 171.031,9.38444 172.365,12.8844 174.5,16C 171.053,27.32 164.053,30.1534 153.5,24.5C 151.703,22.8689 150.536,20.8689 150,18.5C 149.694,14.9666 148.861,11.6333 147.5,8.5C 148.47,5.56274 149.137,2.56274 149.5,-0.5 Z"/></g>
<g><path style="opacity:1" fill="#2e010d" d="M 162.5,1.5 C 164.103,1.31181 165.437,1.81181 166.5,3C 164.041,5.35893 161.375,7.35893 158.5,9C 159.376,11.8364 160.709,14.3364 162.5,16.5C 163.5,16.1667 164.167,15.5 164.5,14.5C 163.691,12.9291 163.357,11.2624 163.5,9.5C 167.821,8.82435 169.821,10.6577 169.5,15C 167.017,25.2413 162.517,26.0747 156,17.5C 155.51,16.2068 155.343,14.8734 155.5,13.5C 154.5,13.5 153.5,13.5 152.5,13.5C 152.649,6.69516 155.982,2.69516 162.5,1.5 Z"/></g>
<g><path style="opacity:1" fill="#5e001c" d="M 150.5,-0.5 C 159.5,-0.5 168.5,-0.5 177.5,-0.5C 176.538,3.14614 174.205,4.31281 170.5,3C 166.111,0.0388917 161.444,-0.294442 156.5,2C 155.084,4.26451 153.084,5.43118 150.5,5.5C 150.5,3.5 150.5,1.5 150.5,-0.5 Z"/></g>
<g><path style="opacity:1" fill="#2e010d" d="M 147.5,-0.5 C 148.167,-0.5 148.833,-0.5 149.5,-0.5C 149.137,2.56274 148.47,5.56274 147.5,8.5C 148.861,11.6333 149.694,14.9666 150,18.5C 150.536,20.8689 151.703,22.8689 153.5,24.5C 164.053,30.1534 171.053,27.32 174.5,16C 172.365,12.8844 171.031,9.38444 170.5,5.5C 172.045,4.54811 173.712,4.21478 175.5,4.5C 174.609,5.26133 173.942,6.26133 173.5,7.5C 175.751,12.479 175.918,17.479 174,22.5C 166.349,31.3734 158.349,31.7067 150,23.5C 149.567,19.7322 148.234,16.3989 146,13.5C 145.951,8.79755 146.451,4.13089 147.5,-0.5 Z"/></g>
<g><path style="opacity:1" fill="#0a0103" d="M -0.5,16.5 C 0.507165,17.8284 1.8405,18.8284 3.5,19.5C 4.42549,18.3595 5.25883,18.3595 6,19.5C 9.6378,24.4785 13.3045,29.4785 17,34.5C 18.7562,33.4519 20.5896,33.4519 22.5,34.5C 24.1073,34.363 25.4406,33.6964 26.5,32.5C 26.3035,29.3082 26.9702,26.1415 28.5,23C 34.4025,20.2879 38.4025,21.9545 40.5,28C 36.5363,32.6306 34.703,37.4639 35,42.5C 34.0039,44.744 32.5039,46.5773 30.5,48C 33.2168,49.8198 35.7168,51.9865 38,54.5C 40.1293,53.1373 40.6293,53.4706 39.5,55.5C 44.9174,61.3486 51.4174,66.682 59,71.5C 60.8733,70.9109 62.54,71.5776 64,73.5C 65,73.1667 66,72.8333 67,72.5C 69.112,74.9223 71.112,74.9223 73,72.5C 74.6665,73.3402 74.8331,72.8402 73.5,71C 83.0048,67.7524 89.3382,70.9191 92.5,80.5C 94.7681,79.5174 97.2681,79.1841 100,79.5C 101,80.1667 102,80.8333 103,81.5C 105.172,80.0882 107.338,79.5882 109.5,80C 112.244,78.6759 113.577,76.5092 113.5,73.5C 118.575,71.1435 123.575,70.4769 128.5,71.5C 134.687,68.2854 140.853,65.9521 147,64.5C 147.667,67.1667 148.333,67.1667 149,64.5C 150.808,64.8881 152.475,64.8881 154,64.5C 155.085,65.2931 156.252,65.9598 157.5,66.5C 158.097,64.459 158.097,62.6256 157.5,61C 159.281,58.7635 161.281,56.7635 163.5,55C 163.167,54.6667 162.833,54.3333 162.5,54C 164.657,53.9219 166.657,53.7552 168.5,53.5C 169.315,55.2759 170.482,55.9426 172,55.5C 172.311,57.556 172.811,59.556 173.5,61.5C 172.975,62.1924 172.308,62.6924 171.5,63C 171.833,63.3333 172.167,63.6667 172.5,64C 172.045,66.3123 171.045,68.3123 169.5,70C 171,70.8333 172.167,72 173,73.5C 173.333,73.1667 173.667,72.8333 174,72.5C 177.037,75.1583 179.371,77.825 181,80.5C 182.481,85.4437 184.981,89.777 188.5,93.5C 190.866,98.7847 190.866,103.785 188.5,108.5C 189.002,109.716 189.335,110.883 189.5,112C 188.833,112.333 188.167,112.667 187.5,113C 189.891,113.691 189.891,114.691 187.5,116C 187.776,118.724 187.776,121.391 187.5,124C 186.167,125 184.833,126 183.5,127C 184.815,128.395 184.481,129.395 182.5,130C 182.5,132 182.5,134 182.5,136C 182.275,138.319 180.942,140.319 178.5,142C 179.167,144 179.833,146 180.5,148C 179.833,148.667 179.167,149.333 178.5,150C 180.055,151.583 181.222,153.416 182,155.5C 182.667,154.167 183.333,154.167 184,155.5C 184.711,157.367 184.211,158.867 182.5,160C 183.833,160.667 185.167,161.333 186.5,162C 183.057,162.221 182.724,163.221 185.5,165C 183.043,166.154 183.043,167.488 185.5,169C 184.366,170.016 184.699,170.683 186.5,171C 186.056,172.533 185.723,174.033 185.5,175.5C 185.977,176.478 186.643,177.311 187.5,178C 186.869,180.355 186.869,182.522 187.5,184.5C 185.796,194.944 181.462,204.61 174.5,213.5C 174.957,214.298 175.624,214.631 176.5,214.5C 174.646,218.221 172.313,221.554 169.5,224.5C 168.338,204.671 168.171,184.671 169,164.5C 172.9,169.816 175.4,169.483 176.5,163.5C 173.932,162.55 171.432,162.55 169,163.5C 168.826,158.649 168.326,153.982 167.5,149.5C 157.833,149.5 148.167,149.5 138.5,149.5C 138.84,147.321 139.84,145.488 141.5,144C 140.655,142.442 141.321,141.442 143.5,141C 143.043,140.586 142.709,140.086 142.5,139.5C 146.442,137.167 150.775,134.667 155.5,132C 155.167,131.667 154.833,131.333 154.5,131C 159.889,128.775 164.222,125.275 167.5,120.5C 174.214,113.706 177.214,105.373 176.5,95.5C 176.43,94.2284 176.097,93.0617 175.5,92C 172.382,90.2725 169.049,89.4392 165.5,89.5C 165.737,88.209 165.404,87.209 164.5,86.5C 164.608,82.753 164.108,79.0863 163,75.5C 162.076,73.5049 160.91,73.1716 159.5,74.5C 158.71,75.6085 158.21,76.9419 158,78.5C 156.559,77.7402 155.059,77.0736 153.5,76.5C 145.771,76.1459 138.104,77.8126 130.5,81.5C 129.833,81.1667 129.167,80.8333 128.5,80.5C 126.724,81.3148 126.057,82.4815 126.5,84C 124.238,84.6419 122.071,85.4752 120,86.5C 119.311,85.6433 118.478,84.9767 117.5,84.5C 117.55,85.8476 117.217,87.3476 116.5,89C 114.376,90.1217 112.543,91.6217 111,93.5C 110.667,93.1667 110.333,92.8333 110,92.5C 108.361,94.8061 106.361,96.8061 104,98.5C 103.667,98.1667 103.333,97.8333 103,97.5C 101.194,100.684 99.1936,101.017 97,98.5C 94.9019,99.5674 92.7352,100.067 90.5,100C 91.4506,99.2825 91.6172,98.4491 91,97.5C 88.4968,98.5504 86.9968,97.5504 86.5,94.5C 87.6682,93.0944 87.3348,91.9277 85.5,91C 85.6158,89.7318 85.9491,88.3985 86.5,87C 85.8742,86.2496 85.3742,85.4162 85,84.5C 83.4301,85.614 82.0968,86.9474 81,88.5C 76.9894,86.8255 74.9894,83.8255 75,79.5C 74.0754,82.3815 73.4087,85.3815 73,88.5C 67.7875,88.0826 63.1208,89.7492 59,93.5C 58.0691,95.4595 57.2357,97.4595 56.5,99.5C 57.0736,102.072 57.0736,104.739 56.5,107.5C 57.7679,112.138 58.9346,116.805 60,121.5C 61.1667,122.667 62.3333,123.833 63.5,125C 63.0224,128.473 63.0224,132.139 63.5,136C 62.7819,138.461 62.1153,140.961 61.5,143.5C 61.7093,144.086 62.0426,144.586 62.5,145C 61.8384,146.332 60.6718,147.498 59,148.5C 55.9329,159.049 59.4329,166.216 69.5,170C 70.1667,171.333 70.8333,172.667 71.5,174C 73.286,174.785 74.786,175.951 76,177.5C 78.5283,176.066 80.3617,176.733 81.5,179.5C 79.9378,180.785 78.6045,182.285 77.5,184C 78.5871,188.776 79.2537,193.609 79.5,198.5C 74.5601,196.476 70.0601,193.809 66,190.5C 65.6667,190.833 65.3333,191.167 65,191.5C 53.3753,184.598 45.2086,175.765 40.5,165C 39.4263,161.387 39.4263,157.887 40.5,154.5C 37.9062,152.239 37.9062,150.072 40.5,148C 39.6434,145.868 39.3101,143.535 39.5,141C 40.6767,138.934 41.6767,136.934 42.5,135C 41.7069,133.915 41.0402,132.748 40.5,131.5C 41.1471,128.155 41.1471,124.988 40.5,122C 38.6833,117.922 36.0166,114.255 32.5,111C 20.3155,106.908 9.31552,101.408 -0.5,94.5C -0.5,85.1667 -0.5,75.8333 -0.5,66.5C 4.11358,68.4092 6.11358,71.7425 5.5,76.5C 9.59467,82.7566 15.0947,87.4233 22,90.5C 23.3086,88.1088 24.3086,88.1088 25,90.5C 28.3958,89.5511 31.2292,87.7178 33.5,85C 33.1667,84.6667 32.8333,84.3333 32.5,84C 37.2537,75.624 35.587,67.624 27.5,60C 24.6408,59.447 21.8075,59.6137 19,60.5C 14.348,59.9555 13.848,58.7889 17.5,57C 18.9557,55.2552 20.289,53.4219 21.5,51.5C 20.8333,51.1667 20.1667,50.8333 19.5,50.5C 21.2249,48.0433 21.7249,45.3766 21,42.5C 18.2561,40.245 15.0894,38.9116 11.5,38.5C 8.85267,38.9287 6.85267,40.2621 5.5,42.5C 3.85927,39.4417 3.02594,36.1083 3,32.5C 2.57756,30.5743 1.4109,29.5743 -0.5,29.5C -0.5,25.1667 -0.5,20.8333 -0.5,16.5 Z"/></g>
<g><path style="opacity:1" fill="#151516" d="M 437.5,32.5 C 450.816,31.7214 456.316,38.0547 454,51.5C 453.182,57.5678 449.848,59.9012 444,58.5C 442.7,56.5407 440.867,55.374 438.5,55C 433.062,50.0113 431.229,43.8446 433,36.5C 434.397,34.9297 435.897,33.5964 437.5,32.5 Z"/></g>
<g><path style="opacity:1" fill="#141414" d="M 243.5,1.5 C 247.22,1.56422 250.886,2.06422 254.5,3C 258.673,7.50615 263.173,11.6728 268,15.5C 270.09,19.1207 269.923,22.6207 267.5,26C 264.592,26.6888 261.925,27.8555 259.5,29.5C 258.885,35.5942 256.052,40.2608 251,43.5C 247.874,52.0085 242.041,55.1752 233.5,53C 232.874,52.2496 232.374,51.4162 232,50.5C 230.921,41.6573 231.587,32.9907 234,24.5C 234.333,18.8333 234.667,13.1667 235,7.5C 237.671,5.09757 240.505,3.09757 243.5,1.5 Z"/></g>
<g><path style="opacity:1" fill="#272627" d="M 243.5,4.5 C 247.348,4.23971 251.015,4.90637 254.5,6.5C 259.118,10.9593 263.452,15.626 267.5,20.5C 265.345,24.1488 262.178,26.4821 258,27.5C 257.02,30.8981 255.854,34.2315 254.5,37.5C 251.011,41.794 247.511,46.1273 244,50.5C 241.271,53.8639 238.271,54.1972 235,51.5C 234.333,44.5 234.333,37.5 235,30.5C 237.075,23.3561 238.075,16.0228 238,8.5C 239.461,6.53177 241.295,5.19843 243.5,4.5 Z"/></g>
<g><path style="opacity:1" fill="#3d3d3e" d="M 242.5,6.5 C 245.85,6.33499 249.183,6.50166 252.5,7C 256.309,10.1289 259.309,13.7956 261.5,18C 261.333,18.8333 261.167,19.6667 261,20.5C 258.254,22.0366 255.921,24.0366 254,26.5C 253.794,29.6229 253.127,32.6229 252,35.5C 249.513,37.8089 247.513,40.4756 246,43.5C 244.235,45.7744 242.068,47.4411 239.5,48.5C 238.558,48.3918 237.725,48.0585 237,47.5C 236.333,41.1667 236.333,34.8333 237,28.5C 238.667,26.8333 240.333,25.1667 242,23.5C 241.489,17.7737 241.656,12.107 242.5,6.5 Z"/></g>
<g><path style="opacity:1" fill="#505051" d="M 245.5,9.5 C 252.352,8.87072 257.019,11.704 259.5,18C 257.606,20.7226 255.106,22.8892 252,24.5C 251.84,28.2875 251.174,31.9542 250,35.5C 246.327,38.0075 243.16,41.0075 240.5,44.5C 239.808,43.9747 239.308,43.3081 239,42.5C 238.333,38.5 238.333,34.5 239,30.5C 241.53,27.9367 243.697,25.1033 245.5,22C 242.86,17.7676 242.86,13.601 245.5,9.5 Z"/></g>
<g><path style="opacity:1" fill="#28000b" d="M 136.5,40.5 C 145.229,40.2338 149.229,44.5671 148.5,53.5C 148.202,57.226 146.202,58.3927 142.5,57C 134.218,53.3423 132.218,47.8423 136.5,40.5 Z"/></g>
<g><path style="opacity:1" fill="#3a060e" d="M 474.5,24.5 C 486.793,24.9576 492.626,31.2909 492,43.5C 491.167,44.3333 490.333,45.1667 489.5,46C 478.67,47.6701 472.003,43.1701 469.5,32.5C 469.833,31.1667 470.167,29.8333 470.5,28.5C 472.188,27.4787 473.521,26.1454 474.5,24.5 Z"/></g>
<g><path style="opacity:1" fill="#650513" d="M 474.5,28.5 C 479.803,27.9623 484.303,29.629 488,33.5C 491.895,41.8887 489.395,45.3887 480.5,44C 474.632,40.2186 472.632,35.0519 474.5,28.5 Z"/></g>
<g><path style="opacity:1" fill="#35060b" d="M 63.5,39.5 C 66.5184,39.3354 69.5184,39.502 72.5,40C 74.5152,41.5553 74.8485,43.3886 73.5,45.5C 68.444,50.2721 62.444,51.7721 55.5,50C 54.4464,48.6124 54.2797,47.1124 55,45.5C 57.7437,43.0734 60.577,41.0734 63.5,39.5 Z"/></g>
<g><path style="opacity:1" fill="#2f2f30" d="M 439.5,37.5 C 449.537,37.89 452.87,42.89 449.5,52.5C 444.595,54.5666 440.595,53.5666 437.5,49.5C 436.343,46.2156 436.176,42.8823 437,39.5C 437.995,38.9341 438.828,38.2674 439.5,37.5 Z"/></g>
<g><path style="opacity:1" fill="#14040a" d="M -0.5,29.5 C 1.4109,29.5743 2.57756,30.5743 3,32.5C 3.02594,36.1083 3.85927,39.4417 5.5,42.5C 6.85267,40.2621 8.85267,38.9287 11.5,38.5C 15.0894,38.9116 18.2561,40.245 21,42.5C 21.7249,45.3766 21.2249,48.0433 19.5,50.5C 20.1667,50.8333 20.8333,51.1667 21.5,51.5C 20.289,53.4219 18.9557,55.2552 17.5,57C 13.848,58.7889 14.348,59.9555 19,60.5C 21.8075,59.6137 24.6408,59.447 27.5,60C 35.587,67.624 37.2537,75.624 32.5,84C 32.8333,84.3333 33.1667,84.6667 33.5,85C 31.2292,87.7178 28.3958,89.5511 25,90.5C 24.3086,88.1088 23.3086,88.1088 22,90.5C 15.0947,87.4233 9.59467,82.7566 5.5,76.5C 6.11358,71.7425 4.11358,68.4092 -0.5,66.5C -0.5,54.1667 -0.5,41.8333 -0.5,29.5 Z"/></g>
<g><path style="opacity:1" fill="#37060c" d="M 426.5,64.5 C 433.825,63.9924 436.658,67.3258 435,74.5C 432.694,78.8104 429.194,80.3104 424.5,79C 422.607,76.0828 422.107,72.9162 423,69.5C 424.669,68.1537 425.836,66.487 426.5,64.5 Z"/></g>
<g><path style="opacity:1" fill="#300114" d="M 20.5,63.5 C 24.3504,63.1779 27.517,64.5113 30,67.5C 29.9934,72.2131 29.3267,76.8798 28,81.5C 27.3261,82.5784 26.3261,83.2451 25,83.5C 16.8526,81.811 13.8526,76.811 16,68.5C 17.7073,66.9625 19.2073,65.2959 20.5,63.5 Z"/></g>
<g><path style="opacity:1" fill="#363636" d="M 349.5,-0.5 C 351.167,-0.5 352.833,-0.5 354.5,-0.5C 361.633,16.2669 368.633,33.1002 375.5,50C 373.921,57.8968 372.087,65.7301 370,73.5C 369.25,74.1258 368.416,74.6258 367.5,75C 357.993,73.447 348.66,70.947 339.5,67.5C 336.943,68.4067 334.443,69.4067 332,70.5C 331.135,68.1122 331.968,66.6122 334.5,66C 325,62.8333 315.5,59.6667 306,56.5C 300.768,50.3799 295.768,44.0466 291,37.5C 289.872,35.6547 289.372,33.6547 289.5,31.5C 296.075,38.2515 301.742,45.7515 306.5,54C 326.827,60.6927 347.16,67.1927 367.5,73.5C 368.41,66.4321 369.743,59.4321 371.5,52.5C 364.159,34.803 356.826,17.1363 349.5,-0.5 Z"/></g>
<g><path style="opacity:1" fill="#313131" d="M 251.5,72.5 C 255.544,76.5266 255.377,80.5266 251,84.5C 247.739,80.2304 247.905,76.2304 251.5,72.5 Z"/></g>
<g><path style="opacity:1" fill="#560510" d="M 426.5,66.5 C 432.067,65.7532 433.9,68.0866 432,73.5C 428.832,77.6356 426.332,77.469 424.5,73C 425.033,70.7739 425.7,68.6073 426.5,66.5 Z"/></g>
<g><path style="opacity:1" fill="#120105" d="M 159.5,74.5 C 158.902,79.813 158.569,85.1463 158.5,90.5C 143.297,90.8523 130.464,96.519 120,107.5C 118.376,114.745 121.21,119.245 128.5,121C 133.922,122.213 139.255,123.713 144.5,125.5C 152.197,124.029 159.863,122.362 167.5,120.5C 164.222,125.275 159.889,128.775 154.5,131C 154.833,131.333 155.167,131.667 155.5,132C 150.775,134.667 146.442,137.167 142.5,139.5C 142.709,140.086 143.043,140.586 143.5,141C 141.321,141.442 140.655,142.442 141.5,144C 139.84,145.488 138.84,147.321 138.5,149.5C 126.833,149.5 115.167,149.5 103.5,149.5C 102.517,153.298 102.183,157.298 102.5,161.5C 96.8726,165.956 91.3726,170.623 86,175.5C 85.5172,174.552 85.3505,173.552 85.5,172.5C 84.5,172.5 83.5,172.5 82.5,172.5C 86.5196,169.642 89.6862,165.975 92,161.5C 92.7249,158.623 92.2249,155.957 90.5,153.5C 91.5366,150.297 93.2032,147.463 95.5,145C 97.1124,144.28 98.6124,144.446 100,145.5C 101.684,143.649 103.517,141.982 105.5,140.5C 103.649,138.544 101.316,137.544 98.5,137.5C 97.887,130.039 94.2203,124.539 87.5,121C 81.0744,119.35 75.5744,120.85 71,125.5C 69.9914,127.025 69.4914,128.692 69.5,130.5C 67.9539,136.026 67.1206,141.693 67,147.5C 65.2927,149.037 63.7927,150.704 62.5,152.5C 61.3659,154.966 61.1993,157.633 62,160.5C 64.0176,162.35 65.8509,164.35 67.5,166.5C 69.323,167.747 71.323,168.414 73.5,168.5C 73.7458,171.47 75.4124,172.803 78.5,172.5C 80.1996,174.21 81.5329,176.21 82.5,178.5C 82.3764,179.107 82.0431,179.44 81.5,179.5C 80.3617,176.733 78.5283,176.066 76,177.5C 74.786,175.951 73.286,174.785 71.5,174C 70.8333,172.667 70.1667,171.333 69.5,170C 59.4329,166.216 55.9329,159.049 59,148.5C 60.6718,147.498 61.8384,146.332 62.5,145C 62.0426,144.586 61.7093,144.086 61.5,143.5C 62.1153,140.961 62.7819,138.461 63.5,136C 63.0224,132.139 63.0224,128.473 63.5,125C 62.3333,123.833 61.1667,122.667 60,121.5C 58.9346,116.805 57.7679,112.138 56.5,107.5C 57.0736,104.739 57.0736,102.072 56.5,99.5C 57.2357,97.4595 58.0691,95.4595 59,93.5C 63.1208,89.7492 67.7875,88.0826 73,88.5C 73.4087,85.3815 74.0754,82.3815 75,79.5C 74.9894,83.8255 76.9894,86.8255 81,88.5C 82.0968,86.9474 83.4301,85.614 85,84.5C 85.3742,85.4162 85.8742,86.2496 86.5,87C 85.9491,88.3985 85.6158,89.7318 85.5,91C 87.3348,91.9277 87.6682,93.0944 86.5,94.5C 86.9968,97.5504 88.4968,98.5504 91,97.5C 91.6172,98.4491 91.4506,99.2825 90.5,100C 92.7352,100.067 94.9019,99.5674 97,98.5C 99.1936,101.017 101.194,100.684 103,97.5C 103.333,97.8333 103.667,98.1667 104,98.5C 106.361,96.8061 108.361,94.8061 110,92.5C 110.333,92.8333 110.667,93.1667 111,93.5C 112.543,91.6217 114.376,90.1217 116.5,89C 117.217,87.3476 117.55,85.8476 117.5,84.5C 118.478,84.9767 119.311,85.6433 120,86.5C 122.071,85.4752 124.238,84.6419 126.5,84C 126.057,82.4815 126.724,81.3148 128.5,80.5C 129.167,80.8333 129.833,81.1667 130.5,81.5C 138.104,77.8126 145.771,76.1459 153.5,76.5C 155.059,77.0736 156.559,77.7402 158,78.5C 158.21,76.9419 158.71,75.6085 159.5,74.5 Z"/></g>
<g><path style="opacity:1" fill="#2b2a2a" d="M 464.5,79.5 C 461.616,82.2393 458.949,85.2393 456.5,88.5C 454.4,86.7273 452.066,86.394 449.5,87.5C 436.693,98.1407 424.359,109.307 412.5,121C 415.579,122.411 418.579,123.911 421.5,125.5C 420.96,126.748 420.293,127.915 419.5,129C 419.833,129.167 420.167,129.333 420.5,129.5C 421.806,128.088 422.64,126.421 423,124.5C 425.007,125.669 427.173,126.335 429.5,126.5C 426.066,131.716 422.399,136.716 418.5,141.5C 414.737,141.143 411.07,140.31 407.5,139C 406.657,137.213 406.49,135.38 407,133.5C 404.657,132.873 402.49,131.873 400.5,130.5C 405.513,123.389 411.18,117.056 417.5,111.5C 424.67,105.829 431.336,99.6619 437.5,93C 430.901,93.6164 424.567,95.4497 418.5,98.5C 417.893,98.3764 417.56,98.0431 417.5,97.5C 423.013,91.8243 429.013,86.6576 435.5,82C 445.126,78.9082 454.792,78.0748 464.5,79.5 Z"/></g>
<g><path style="opacity:1" fill="#262626" d="M 486.5,101.5 C 485.167,101.5 483.833,101.5 482.5,101.5C 482.665,110.3 480.999,118.633 477.5,126.5C 476.347,111.146 475.013,95.8127 473.5,80.5C 474.873,80.3433 476.207,80.51 477.5,81C 482.339,87.014 485.339,93.8473 486.5,101.5 Z"/></g>
<g><path style="opacity:1" fill="#423539" d="M 164.5,86.5 C 164.5,87.8333 164.5,89.1667 164.5,90.5C 162.833,91.1667 161.167,91.8333 159.5,92.5C 159.5,91.8333 159.167,91.5 158.5,91.5C 158.5,91.1667 158.5,90.8333 158.5,90.5C 158.569,85.1463 158.902,79.813 159.5,74.5C 160.91,73.1716 162.076,73.5049 163,75.5C 164.108,79.0863 164.608,82.753 164.5,86.5 Z"/></g>
<g><path style="opacity:1" fill="#242121" d="M 456.5,88.5 C 447.5,101.167 438.5,113.833 429.5,126.5C 427.173,126.335 425.007,125.669 423,124.5C 422.64,126.421 421.806,128.088 420.5,129.5C 420.167,129.333 419.833,129.167 419.5,129C 420.293,127.915 420.96,126.748 421.5,125.5C 418.579,123.911 415.579,122.411 412.5,121C 424.359,109.307 436.693,98.1407 449.5,87.5C 452.066,86.394 454.4,86.7273 456.5,88.5 Z"/></g>
<g><path style="opacity:1" fill="#1c0009" d="M 164.5,86.5 C 165.404,87.209 165.737,88.209 165.5,89.5C 169.049,89.4392 172.382,90.2725 175.5,92C 176.097,93.0617 176.43,94.2284 176.5,95.5C 177.214,105.373 174.214,113.706 167.5,120.5C 159.863,122.362 152.197,124.029 144.5,125.5C 139.255,123.713 133.922,122.213 128.5,121C 121.21,119.245 118.376,114.745 120,107.5C 130.464,96.519 143.297,90.8523 158.5,90.5C 158.5,90.8333 158.5,91.1667 158.5,91.5C 158.5,91.8333 158.5,92.1667 158.5,92.5C 154.658,92.8682 150.991,93.8682 147.5,95.5C 144.68,98.8177 142.514,102.484 141,106.5C 140.097,105.299 138.931,104.465 137.5,104C 133.5,103.333 129.5,103.333 125.5,104C 121.723,106.955 120.557,110.788 122,115.5C 128.944,121.142 135.444,120.809 141.5,114.5C 144.957,116.063 148.29,117.896 151.5,120C 154.817,120.498 158.15,120.665 161.5,120.5C 164.908,119.422 166.908,117.089 167.5,113.5C 169.129,112.375 170.629,111.041 172,109.5C 172.026,104.941 172.192,100.441 172.5,96C 171.49,92.7907 169.157,91.2907 165.5,91.5C 165.5,90.8333 165.167,90.5 164.5,90.5C 164.5,89.1667 164.5,87.8333 164.5,86.5 Z"/></g>
<g><path style="opacity:1" fill="#030102" d="M -0.5,94.5 C 9.31552,101.408 20.3155,106.908 32.5,111C 36.0166,114.255 38.6833,117.922 40.5,122C 41.1471,124.988 41.1471,128.155 40.5,131.5C 41.0402,132.748 41.7069,133.915 42.5,135C 41.6767,136.934 40.6767,138.934 39.5,141C 39.3101,143.535 39.6434,145.868 40.5,148C 37.9062,150.072 37.9062,152.239 40.5,154.5C 39.4263,157.887 39.4263,161.387 40.5,165C 45.2086,175.765 53.3753,184.598 65,191.5C 65.3333,191.167 65.6667,190.833 66,190.5C 70.0601,193.809 74.5601,196.476 79.5,198.5C 79.8333,198.5 80.1667,198.5 80.5,198.5C 81.9394,206.804 83.2728,215.137 84.5,223.5C 84.2048,227.11 83.5381,230.61 82.5,234C 86.7705,234.77 88.4372,237.27 87.5,241.5C 88.8734,241.657 90.2068,241.49 91.5,241C 95.9048,235.026 99.4048,228.526 102,221.5C 102.5,237.83 102.667,254.163 102.5,270.5C 91.4461,266.538 80.2794,262.871 69,259.5C 46.3946,263.128 23.8946,267.128 1.5,271.5C 0.833333,271.5 0.166667,271.5 -0.5,271.5C -0.5,234.5 -0.5,197.5 -0.5,160.5C 5.31036,164.302 11.3104,164.469 17.5,161C 22.9155,156.754 24.7488,151.254 23,144.5C 21.4932,135.164 16.3265,132.164 7.5,135.5C 5.47682,138.52 2.81015,140.854 -0.5,142.5C -0.5,126.5 -0.5,110.5 -0.5,94.5 Z"/></g>
<g><path style="opacity:1" fill="#111111" d="M 360.5,95.5 C 364.368,96.192 366.701,98.5253 367.5,102.5C 364.539,104.564 361.372,106.231 358,107.5C 357.667,111.167 357.333,114.833 357,118.5C 355.121,116.473 353.954,114.14 353.5,111.5C 352.167,111.5 350.833,111.5 349.5,111.5C 350.323,117.516 347.656,120.683 341.5,121C 345.558,121.767 349.558,121.6 353.5,120.5C 354.696,120.846 354.696,121.346 353.5,122C 346.5,122.333 339.5,122.667 332.5,123C 330.552,123.983 328.718,125.15 327,126.5C 324.247,123.168 321.58,119.835 319,116.5C 318.54,113.696 319.04,111.029 320.5,108.5C 318.973,106.807 317.64,104.973 316.5,103C 317.448,102.517 318.448,102.351 319.5,102.5C 320.576,103.379 321.41,105.046 322,107.5C 324.735,105.268 326.902,102.601 328.5,99.5C 331.103,98.4383 333.77,98.2716 336.5,99C 340.58,101.704 344.247,104.871 347.5,108.5C 349.576,109.1 351.576,109.433 353.5,109.5C 353.833,109.167 354.167,108.833 354.5,108.5C 348.111,107.329 347.111,104.495 351.5,100C 353.163,99.7351 354.663,100.235 356,101.5C 357.752,99.6491 359.252,97.6491 360.5,95.5 Z"/></g>
<g><path style="opacity:1" fill="#31010f" d="M 67.5,92.5 C 82.8698,92.5971 86.8698,99.4305 79.5,113C 75.6146,115.394 72.948,114.394 71.5,110C 63.3828,108.875 60.5494,104.375 63,96.5C 64.6667,95.2668 66.1667,93.9335 67.5,92.5 Z"/></g>
<g><path style="opacity:1" fill="#37010f" d="M 165.5,91.5 C 169.157,91.2907 171.49,92.7907 172.5,96C 172.192,100.441 172.026,104.941 172,109.5C 170.629,111.041 169.129,112.375 167.5,113.5C 166.833,106.167 166.167,98.8333 165.5,91.5 Z"/></g>
<g><path style="opacity:1" fill="#68434f" d="M 164.5,90.5 C 165.167,90.5 165.5,90.8333 165.5,91.5C 166.167,98.8333 166.833,106.167 167.5,113.5C 166.908,117.089 164.908,119.422 161.5,120.5C 161.5,119.5 161.5,118.5 161.5,117.5C 160.732,109.177 160.065,100.844 159.5,92.5C 161.167,91.8333 162.833,91.1667 164.5,90.5 Z"/></g>
<g><path style="opacity:1" fill="#28010f" d="M 158.5,92.5 C 158.047,93.4584 157.381,94.2917 156.5,95C 153.776,95.2695 151.109,95.7695 148.5,96.5C 147.215,100.696 145.548,104.696 143.5,108.5C 144.866,112.368 147.2,115.535 150.5,118C 154.255,118.755 157.922,118.589 161.5,117.5C 161.5,118.5 161.5,119.5 161.5,120.5C 158.15,120.665 154.817,120.498 151.5,120C 148.29,117.896 144.957,116.063 141.5,114.5C 135.444,120.809 128.944,121.142 122,115.5C 120.557,110.788 121.723,106.955 125.5,104C 129.5,103.333 133.5,103.333 137.5,104C 138.931,104.465 140.097,105.299 141,106.5C 142.514,102.484 144.68,98.8177 147.5,95.5C 150.991,93.8682 154.658,92.8682 158.5,92.5 Z"/></g>
<g><path style="opacity:1" fill="#0e0404" d="M 452.5,107.5 C 457.067,109.894 461.234,112.894 465,116.5C 468.69,123.615 471.523,130.781 473.5,138C 470.874,142.084 468.374,146.25 466,150.5C 464.5,152 463,153.5 461.5,155C 462.167,155.333 462.833,155.667 463.5,156C 462.773,158.124 462.106,160.291 461.5,162.5C 458.741,165.095 456.074,164.928 453.5,162C 453.833,161.667 454.167,161.333 454.5,161C 450.775,160.24 447.108,160.407 443.5,161.5C 437.554,160.245 432.221,158.412 427.5,156C 424.518,155.502 421.518,155.335 418.5,155.5C 419.6,154.395 420.267,153.062 420.5,151.5C 424.5,146.5 428.5,141.5 432.5,136.5C 433.265,139.096 433.599,141.763 433.5,144.5C 435.167,144.5 436.833,144.5 438.5,144.5C 438.5,145.5 438.5,146.5 438.5,147.5C 441.684,148.643 445.017,149.309 448.5,149.5C 448.5,150.5 448.5,151.5 448.5,152.5C 450.854,152.162 453.187,151.662 455.5,151C 457.667,147.5 459.833,144 462,140.5C 463.954,136.693 464.62,132.693 464,128.5C 463.617,127.944 463.117,127.611 462.5,127.5C 462.5,126.5 462.5,125.5 462.5,124.5C 459.685,124.108 457.185,123.108 455,121.5C 453.175,121.943 451.342,122.277 449.5,122.5C 449.5,124.167 449.5,125.833 449.5,127.5C 447.801,127.62 446.135,127.954 444.5,128.5C 442.823,127.813 441.156,127.146 439.5,126.5C 443.45,119.887 447.783,113.554 452.5,107.5 Z"/></g>
<g><path style="opacity:1" fill="#350012" d="M 128.5,104.5 C 139.443,104.544 141.109,108.377 133.5,116C 129.683,117.023 126.183,116.523 123,114.5C 121.67,109.349 123.503,106.015 128.5,104.5 Z"/></g>
<g><path style="opacity:1" fill="#45041f" d="M 158.5,91.5 C 159.167,91.5 159.5,91.8333 159.5,92.5C 160.065,100.844 160.732,109.177 161.5,117.5C 157.922,118.589 154.255,118.755 150.5,118C 147.2,115.535 144.866,112.368 143.5,108.5C 145.548,104.696 147.215,100.696 148.5,96.5C 151.109,95.7695 153.776,95.2695 156.5,95C 157.381,94.2917 158.047,93.4584 158.5,92.5C 158.5,92.1667 158.5,91.8333 158.5,91.5 Z"/></g>
<g><path style="opacity:1" fill="#32282a" d="M 83.5,109.5 C 92.1616,108.663 100.495,109.829 108.5,113C 109.709,116.301 109.042,119.301 106.5,122C 100.088,121.818 93.7543,120.818 87.5,119C 85.1938,116.316 83.8605,113.149 83.5,109.5 Z"/></g>
<g><path style="opacity:1" fill="#454444" d="M 486.5,101.5 C 486.665,104.85 486.498,108.183 486,111.5C 484.185,117.106 482.685,122.773 481.5,128.5C 479.517,128.843 478.183,128.176 477.5,126.5C 480.999,118.633 482.665,110.3 482.5,101.5C 483.833,101.5 485.167,101.5 486.5,101.5 Z"/></g>
<g><path style="opacity:1" fill="#3d3d3d" d="M 418.5,141.5 C 415.993,146.043 416.66,149.376 420.5,151.5C 420.267,153.062 419.6,154.395 418.5,155.5C 414.908,160.357 411.575,165.357 408.5,170.5C 385.335,185.478 362.002,200.311 338.5,215C 336.167,217.333 333.833,219.667 331.5,222C 329.633,222.711 328.133,222.211 327,220.5C 326.493,219.004 326.993,217.837 328.5,217C 325.614,215.615 323.614,213.449 322.5,210.5C 326.682,209.1 331.015,208.266 335.5,208C 355.5,194.667 375.5,181.333 395.5,168C 394.833,166.667 393.833,165.667 392.5,165C 393.833,164.333 395.167,163.667 396.5,163C 396.167,162.667 395.833,162.333 395.5,162C 388.232,160.333 380.898,157.999 373.5,155C 374.685,153.647 376.019,152.48 377.5,151.5C 377.291,150.914 376.957,150.414 376.5,150C 381.387,145.625 386.22,141.125 391,136.5C 391.557,134.385 392.391,132.385 393.5,130.5C 390.798,128.653 387.798,127.487 384.5,127C 385.738,126.31 385.738,125.81 384.5,125.5C 394.903,115.465 405.903,106.132 417.5,97.5C 417.56,98.0431 417.893,98.3764 418.5,98.5C 424.567,95.4497 430.901,93.6164 437.5,93C 431.336,99.6619 424.67,105.829 417.5,111.5C 411.18,117.056 405.513,123.389 400.5,130.5C 402.49,131.873 404.657,132.873 407,133.5C 406.49,135.38 406.657,137.213 407.5,139C 411.07,140.31 414.737,141.143 418.5,141.5 Z"/></g>
<g><path style="opacity:1" fill="#4f1212" d="M 462.5,127.5 C 462.657,128.873 462.49,130.207 462,131.5C 461.667,131.167 461.333,130.833 461,130.5C 456.952,136.786 451.119,140.452 443.5,141.5C 443.5,142.833 443.5,144.167 443.5,145.5C 441.708,145.634 440.042,145.301 438.5,144.5C 440.299,141.495 440.966,138.162 440.5,134.5C 441.5,134.5 442.5,134.5 443.5,134.5C 443.5,132.833 443.5,131.167 443.5,129.5C 445.898,129.741 447.898,129.074 449.5,127.5C 449.5,125.833 449.5,124.167 449.5,122.5C 451.342,122.277 453.175,121.943 455,121.5C 457.185,123.108 459.685,124.108 462.5,124.5C 462.5,125.5 462.5,126.5 462.5,127.5 Z"/></g>
<g><path style="opacity:1" fill="#4b4a4a" d="M 384.5,125.5 C 385.738,125.81 385.738,126.31 384.5,127C 387.798,127.487 390.798,128.653 393.5,130.5C 392.391,132.385 391.557,134.385 391,136.5C 386.22,141.125 381.387,145.625 376.5,150C 376.957,150.414 377.291,150.914 377.5,151.5C 376.019,152.48 374.685,153.647 373.5,155C 380.898,157.999 388.232,160.333 395.5,162C 395.833,162.333 396.167,162.667 396.5,163C 395.167,163.667 393.833,164.333 392.5,165C 393.833,165.667 394.833,166.667 395.5,168C 375.5,181.333 355.5,194.667 335.5,208C 331.015,208.266 326.682,209.1 322.5,210.5C 322.335,207.482 322.502,204.482 323,201.5C 326.511,195.805 330.011,190.139 333.5,184.5C 336.526,180.795 339.192,176.795 341.5,172.5C 343.821,169.204 346.154,165.871 348.5,162.5C 355.362,150.468 364.529,140.468 376,132.5C 376.17,130.285 376.837,128.285 378,126.5C 378.249,127.624 378.749,128.624 379.5,129.5C 381.186,128.143 382.852,126.81 384.5,125.5 Z"/></g>
<g><path style="opacity:1" fill="#390b0b" d="M 462.5,127.5 C 463.117,127.611 463.617,127.944 464,128.5C 464.62,132.693 463.954,136.693 462,140.5C 459.833,144 457.667,147.5 455.5,151C 453.187,151.662 450.854,152.162 448.5,152.5C 448.5,151.5 448.5,150.5 448.5,149.5C 445.017,149.309 441.684,148.643 438.5,147.5C 438.5,146.5 438.5,145.5 438.5,144.5C 440.042,145.301 441.708,145.634 443.5,145.5C 443.5,144.167 443.5,142.833 443.5,141.5C 451.119,140.452 456.952,136.786 461,130.5C 461.333,130.833 461.667,131.167 462,131.5C 462.49,130.207 462.657,128.873 462.5,127.5 Z"/></g>
<g><path style="opacity:1" fill="#160003" d="M 7.5,135.5 C 16.3265,132.164 21.4932,135.164 23,144.5C 24.7488,151.254 22.9155,156.754 17.5,161C 11.3104,164.469 5.31036,164.302 -0.5,160.5C -0.5,156.833 -0.5,153.167 -0.5,149.5C 1.22691,156.377 5.56024,158.877 12.5,157C 13.6184,155.926 14.6184,154.76 15.5,153.5C 15.2018,148.382 15.7018,143.382 17,138.5C 14.3583,135.971 11.1916,134.971 7.5,135.5 Z"/></g>
<g><path style="opacity:1" fill="#512323" d="M 439.5,126.5 C 441.156,127.146 442.823,127.813 444.5,128.5C 446.135,127.954 447.801,127.62 449.5,127.5C 447.898,129.074 445.898,129.741 443.5,129.5C 443.5,131.167 443.5,132.833 443.5,134.5C 442.5,134.5 441.5,134.5 440.5,134.5C 440.966,138.162 440.299,141.495 438.5,144.5C 436.833,144.5 435.167,144.5 433.5,144.5C 433.599,141.763 433.265,139.096 432.5,136.5C 434.062,132.608 436.395,129.275 439.5,126.5 Z"/></g>
<g><path style="opacity:1" fill="#560c18" d="M 94.5,143.5 C 94.5654,143.062 94.3988,142.728 94,142.5C 87.5398,153.21 78.3731,156.377 66.5,152C 67.3333,151.167 68.1667,150.333 69,149.5C 69.2935,143.133 69.7935,136.8 70.5,130.5C 77.6576,120.927 85.491,120.26 94,128.5C 95.5437,131.171 96.7103,134.004 97.5,137C 97.0504,139.533 96.0504,141.7 94.5,143.5 Z"/></g>
<g><path style="opacity:1" fill="#870416" d="M 85.5,136.5 C 85.2852,138.179 85.9519,139.179 87.5,139.5C 87.2562,142.263 85.9229,144.429 83.5,146C 80.1322,146.543 76.7989,146.376 73.5,145.5C 73.0004,139.499 75.0004,134.499 79.5,130.5C 81.1878,132.854 83.1878,134.854 85.5,136.5 Z"/></g>
<g><path style="opacity:1" fill="#730514" d="M 85.5,136.5 C 83.1878,134.854 81.1878,132.854 79.5,130.5C 75.0004,134.499 73.0004,139.499 73.5,145.5C 76.7989,146.376 80.1322,146.543 83.5,146C 85.9229,144.429 87.2562,142.263 87.5,139.5C 89.5323,140.048 90.5323,141.381 90.5,143.5C 87.5611,143.918 85.2278,145.418 83.5,148C 74.7356,150.56 70.9023,147.393 72,138.5C 73.9484,128.947 79.4484,125.78 88.5,129C 89.8721,130.242 90.8721,131.742 91.5,133.5C 89.2452,134.194 87.2452,135.194 85.5,136.5 Z"/></g>
<g><path style="opacity:1" fill="#4f4949" d="M 464.5,79.5 C 466.174,81.6245 467.007,83.9578 467,86.5C 461.946,93.3803 457.113,100.38 452.5,107.5C 447.783,113.554 443.45,119.887 439.5,126.5C 436.395,129.275 434.062,132.608 432.5,136.5C 428.5,141.5 424.5,146.5 420.5,151.5C 416.66,149.376 415.993,146.043 418.5,141.5C 422.399,136.716 426.066,131.716 429.5,126.5C 438.5,113.833 447.5,101.167 456.5,88.5C 458.949,85.2393 461.616,82.2393 464.5,79.5 Z"/></g>
<g><path style="opacity:1" fill="#35010f" d="M 7.5,135.5 C 11.1916,134.971 14.3583,135.971 17,138.5C 15.7018,143.382 15.2018,148.382 15.5,153.5C 14.6184,154.76 13.6184,155.926 12.5,157C 5.56024,158.877 1.22691,156.377 -0.5,149.5C -0.5,147.167 -0.5,144.833 -0.5,142.5C 2.81015,140.854 5.47682,138.52 7.5,135.5 Z"/></g>
<g><path style="opacity:1" fill="#888082" d="M 103.5,149.5 C 115.167,149.5 126.833,149.5 138.5,149.5C 148.167,149.5 157.833,149.5 167.5,149.5C 167.5,150.167 167.5,150.833 167.5,151.5C 167.167,151.5 166.833,151.5 166.5,151.5C 145.598,150.174 124.598,150.174 103.5,151.5C 103.5,150.833 103.5,150.167 103.5,149.5 Z"/></g>
<g><path style="opacity:1" fill="#818181" d="M 298.5,152.5 C 286.185,151.168 273.518,150.501 260.5,150.5C 247.427,150.509 234.427,150.842 221.5,151.5C 247.145,149.509 273.145,148.842 299.5,149.5C 299.737,150.791 299.404,151.791 298.5,152.5 Z"/></g>
<g><path style="opacity:1" fill="#250b11" d="M 82.5,172.5 C 81.1667,172.5 79.8333,172.5 78.5,172.5C 75.4124,172.803 73.7458,171.47 73.5,168.5C 71.323,168.414 69.323,167.747 67.5,166.5C 65.8509,164.35 64.0176,162.35 62,160.5C 61.1993,157.633 61.3659,154.966 62.5,152.5C 62.2994,160.134 65.9661,164.634 73.5,166C 74.1667,167.333 74.8333,168.667 75.5,170C 81.918,171.039 86.418,168.539 89,162.5C 89.6667,160.5 89.6667,158.5 89,156.5C 87.7638,155.601 86.9304,154.434 86.5,153C 89.7297,150.273 92.3964,147.107 94.5,143.5C 96.0504,141.7 97.0504,139.533 97.5,137C 96.7103,134.004 95.5437,131.171 94,128.5C 85.491,120.26 77.6576,120.927 70.5,130.5C 70.1667,130.5 69.8333,130.5 69.5,130.5C 69.4914,128.692 69.9914,127.025 71,125.5C 75.5744,120.85 81.0744,119.35 87.5,121C 94.2203,124.539 97.887,130.039 98.5,137.5C 101.316,137.544 103.649,138.544 105.5,140.5C 103.517,141.982 101.684,143.649 100,145.5C 98.6124,144.446 97.1124,144.28 95.5,145C 93.2032,147.463 91.5366,150.297 90.5,153.5C 92.2249,155.957 92.7249,158.623 92,161.5C 89.6862,165.975 86.5196,169.642 82.5,172.5 Z"/></g>
<g><path style="opacity:1" fill="#fdfdfd" d="M 166.5,151.5 C 166.167,177.175 166.5,202.842 167.5,228.5C 168.919,227.995 169.585,226.995 169.5,225.5C 169.5,225.167 169.5,224.833 169.5,224.5C 172.313,221.554 174.646,218.221 176.5,214.5C 189.19,197.133 201.524,179.466 213.5,161.5C 215.547,159.45 217.214,157.117 218.5,154.5C 219.272,153.306 220.272,152.306 221.5,151.5C 234.427,150.842 247.427,150.509 260.5,150.5C 273.518,150.501 286.185,151.168 298.5,152.5C 297.094,152.973 296.427,153.973 296.5,155.5C 293.51,158.792 290.51,162.126 287.5,165.5C 281.167,173.5 274.833,181.5 268.5,189.5C 264.606,193.608 260.939,197.941 257.5,202.5C 245.319,217.515 233.319,232.682 221.5,248C 232.137,263.444 243.137,278.611 254.5,293.5C 260.279,300.881 265.946,308.381 271.5,316C 273.772,315.923 275.438,314.757 276.5,312.5C 281.167,308.5 285.5,304.167 289.5,299.5C 298.833,290.833 307.833,281.833 316.5,272.5C 317.5,272.167 318.167,271.5 318.5,270.5C 322.833,266.833 326.833,262.833 330.5,258.5C 331.5,258.167 332.167,257.5 332.5,256.5C 341.833,247.833 350.833,238.833 359.5,229.5C 364.5,225.167 369.167,220.5 373.5,215.5C 384.167,205.167 394.833,194.833 405.5,184.5C 407.496,242.49 408.163,300.824 407.5,359.5C 405.167,359.5 402.833,359.5 400.5,359.5C 386.833,359.5 373.167,359.5 359.5,359.5C 359.833,341.155 359.5,322.821 358.5,304.5C 357.893,304.624 357.56,304.957 357.5,305.5C 343.833,319.5 330.167,333.5 316.5,347.5C 315.128,348.512 313.795,349.512 312.5,350.5C 311.833,351.5 311.167,352.5 310.5,353.5C 308.37,355.127 306.37,356.96 304.5,359C 301.518,359.498 298.518,359.665 295.5,359.5C 273.833,359.5 252.167,359.5 230.5,359.5C 227.956,359.896 225.789,359.229 224,357.5C 218.308,347.43 212.141,337.763 205.5,328.5C 204.189,325.865 202.522,323.531 200.5,321.5C 196.023,313.888 191.523,306.222 187,298.5C 186.292,297.619 185.458,296.953 184.5,296.5C 183.252,293.004 181.252,290.004 178.5,287.5C 176.122,289.878 174.122,292.545 172.5,295.5C 171.017,297.094 169.517,298.76 168,300.5C 167.501,306.491 167.334,312.491 167.5,318.5C 167.5,332.167 167.5,345.833 167.5,359.5C 146.167,359.5 124.833,359.5 103.5,359.5C 103.5,290.167 103.5,220.833 103.5,151.5C 124.598,150.174 145.598,150.174 166.5,151.5 Z"/></g>
<g><path style="opacity:1" fill="#222223" d="M 218.5,154.5 C 217.214,157.117 215.547,159.45 213.5,161.5C 206.011,161.19 201.677,157.023 200.5,149C 201.505,142.217 204.838,140.883 210.5,145C 212.985,149.131 215.651,152.298 218.5,154.5 Z"/></g>
<g><path style="opacity:1" fill="#292929" d="M 348.5,162.5 C 346.154,165.871 343.821,169.204 341.5,172.5C 338.159,171.995 334.826,171.828 331.5,172C 333.725,172.876 335.725,174.043 337.5,175.5C 336.336,175.835 335.003,175.835 333.5,175.5C 332.702,177.078 332.202,178.744 332,180.5C 330.282,178.103 329.115,175.436 328.5,172.5C 321.5,168.667 314.5,164.833 307.5,161C 305.308,159.933 303.642,158.433 302.5,156.5C 311.666,161.248 320.666,166.248 329.5,171.5C 330.308,171.192 330.975,170.692 331.5,170C 327.121,168.866 326.288,166.366 329,162.5C 332.999,159.332 337.332,156.665 342,154.5C 344.031,157.355 346.197,160.022 348.5,162.5 Z"/></g>
<g><path style="opacity:1" fill="#131313" d="M 296.5,155.5 C 296.369,156.376 296.702,157.043 297.5,157.5C 299.071,156.691 300.738,156.357 302.5,156.5C 303.642,158.433 305.308,159.933 307.5,161C 314.5,164.833 321.5,168.667 328.5,172.5C 329.115,175.436 330.282,178.103 332,180.5C 332.202,178.744 332.702,177.078 333.5,175.5C 335.003,175.835 336.336,175.835 337.5,175.5C 335.725,174.043 333.725,172.876 331.5,172C 334.826,171.828 338.159,171.995 341.5,172.5C 339.192,176.795 336.526,180.795 333.5,184.5C 331.9,184.71 330.066,184.377 328,183.5C 326.606,184.613 325.439,185.947 324.5,187.5C 323.355,186.224 323.355,184.891 324.5,183.5C 318.237,182.01 311.903,180.843 305.5,180C 304.069,179.535 302.903,178.701 302,177.5C 301.667,177.833 301.333,178.167 301,178.5C 297.652,172.985 293.152,168.652 287.5,165.5C 290.51,162.126 293.51,158.792 296.5,155.5 Z"/></g>
<g><path style="opacity:1" fill="#aca8a9" d="M 166.5,151.5 C 166.833,151.5 167.167,151.5 167.5,151.5C 167.333,176.502 167.5,201.502 168,226.5C 168.383,225.944 168.883,225.611 169.5,225.5C 169.585,226.995 168.919,227.995 167.5,228.5C 166.5,202.842 166.167,177.175 166.5,151.5 Z"/></g>
<g><path style="opacity:1" fill="#340212" d="M 69.5,130.5 C 69.8333,130.5 70.1667,130.5 70.5,130.5C 69.7935,136.8 69.2935,143.133 69,149.5C 68.1667,150.333 67.3333,151.167 66.5,152C 78.3731,156.377 87.5398,153.21 94,142.5C 94.3988,142.728 94.5654,143.062 94.5,143.5C 92.3964,147.107 89.7297,150.273 86.5,153C 86.9304,154.434 87.7638,155.601 89,156.5C 89.6667,158.5 89.6667,160.5 89,162.5C 86.418,168.539 81.918,171.039 75.5,170C 74.8333,168.667 74.1667,167.333 73.5,166C 65.9661,164.634 62.2994,160.134 62.5,152.5C 63.7927,150.704 65.2927,149.037 67,147.5C 67.1206,141.693 67.9539,136.026 69.5,130.5 Z"/></g>
<g><path style="opacity:1" fill="#2a2a2a" d="M 511.5,163.5 C 511.5,164.833 511.5,166.167 511.5,167.5C 509.24,165.35 506.907,163.183 504.5,161C 501.773,160.182 499.106,160.348 496.5,161.5C 494.914,167.571 493.581,173.738 492.5,180C 493.528,184.206 496.195,185.539 500.5,184C 503.744,180.25 507.411,177.083 511.5,174.5C 511.5,175.167 511.5,175.833 511.5,176.5C 507.069,178.595 504.069,181.929 502.5,186.5C 497.959,187.131 493.959,186.131 490.5,183.5C 490.167,182.167 489.833,180.833 489.5,179.5C 490.96,173.96 491.793,168.294 492,162.5C 492.972,160.695 494.139,159.028 495.5,157.5C 502.345,155.593 507.678,157.593 511.5,163.5 Z"/></g>
<g><path style="opacity:1" fill="#302629" d="M 167.5,149.5 C 168.326,153.982 168.826,158.649 169,163.5C 171.432,162.55 173.932,162.55 176.5,163.5C 175.4,169.483 172.9,169.816 169,164.5C 168.171,184.671 168.338,204.671 169.5,224.5C 169.5,224.833 169.5,225.167 169.5,225.5C 168.883,225.611 168.383,225.944 168,226.5C 167.5,201.502 167.333,176.502 167.5,151.5C 167.5,150.833 167.5,150.167 167.5,149.5 Z"/></g>
<g><path style="opacity:1" fill="#2c2c2c" d="M 408.5,170.5 C 412.54,167.287 416.873,166.787 421.5,169C 417.988,170.784 414.321,172.284 410.5,173.5C 409.081,172.995 408.415,171.995 408.5,170.5 Z"/></g>
<g><path style="opacity:1" fill="#464546" d="M 511.5,167.5 C 511.5,169.833 511.5,172.167 511.5,174.5C 507.411,177.083 503.744,180.25 500.5,184C 496.195,185.539 493.528,184.206 492.5,180C 493.581,173.738 494.914,167.571 496.5,161.5C 499.106,160.348 501.773,160.182 504.5,161C 506.907,163.183 509.24,165.35 511.5,167.5 Z"/></g>
<g><path style="opacity:1" fill="#320b10" d="M 425.5,179.5 C 432.251,178.295 438.085,179.962 443,184.5C 443.806,189.06 441.973,192.226 437.5,194C 430.688,195.838 425.354,194.004 421.5,188.5C 422.095,185.025 423.429,182.025 425.5,179.5 Z"/></g>
<g><path style="opacity:1" fill="#580913" d="M 429.5,181.5 C 436.774,179.63 440.274,182.297 440,189.5C 436.62,192.195 432.787,193.029 428.5,192C 423.012,187.843 423.346,184.343 429.5,181.5 Z"/></g>
<g><path style="opacity:1" fill="#232323" d="M 257.5,202.5 C 260.939,197.941 264.606,193.608 268.5,189.5C 268.369,190.239 268.536,190.906 269,191.5C 272.275,189.729 275.775,188.729 279.5,188.5C 279.5,190.5 279.5,192.5 279.5,194.5C 278.178,194.67 277.011,194.337 276,193.5C 274.992,195.259 273.492,196.426 271.5,197C 267.979,198.674 264.313,199.84 260.5,200.5C 260.649,201.552 260.483,202.552 260,203.5C 259.329,202.748 258.496,202.414 257.5,202.5 Z"/></g>
<g><path style="opacity:1" fill="#2c2527" d="M 102.5,161.5 C 102.667,178.837 102.5,196.17 102,213.5C 99.9934,217.535 97.9934,221.535 96,225.5C 93.9869,220.388 92.9869,215.055 93,209.5C 90.9786,202.925 89.3119,196.258 88,189.5C 87.2904,188.027 86.1238,187.36 84.5,187.5C 83.4551,191.259 82.1218,194.926 80.5,198.5C 80.1667,198.5 79.8333,198.5 79.5,198.5C 79.2537,193.609 78.5871,188.776 77.5,184C 78.6045,182.285 79.9378,180.785 81.5,179.5C 82.0431,179.44 82.3764,179.107 82.5,178.5C 81.5329,176.21 80.1996,174.21 78.5,172.5C 79.8333,172.5 81.1667,172.5 82.5,172.5C 83.5,172.5 84.5,172.5 85.5,172.5C 85.3505,173.552 85.5172,174.552 86,175.5C 91.3726,170.623 96.8726,165.956 102.5,161.5 Z"/></g>
<g><path style="opacity:1" fill="#3e3e3e" d="M 454.5,190.5 C 455.376,190.369 456.043,190.702 456.5,191.5C 455.469,192.7 454.635,194.034 454,195.5C 450.817,199.929 447.15,203.929 443,207.5C 444.821,200.54 448.654,194.873 454.5,190.5 Z"/></g>
<g><path style="opacity:1" fill="#0e0606" d="M 408.5,297.5 C 408.5,285.5 408.5,273.5 408.5,261.5C 410.374,260.37 412.374,259.37 414.5,258.5C 415.308,256.577 415.808,254.577 416,252.5C 418.306,251.863 419.473,250.363 419.5,248C 418.297,243.548 417.297,239.048 416.5,234.5C 413.524,234.067 410.857,233.067 408.5,231.5C 408.5,222.5 408.5,213.5 408.5,204.5C 410.807,204.388 412.973,205.388 415,207.5C 415.333,207.167 415.667,206.833 416,206.5C 417.109,208.815 418.943,210.315 421.5,211C 427.979,217.522 433.312,224.689 437.5,232.5C 440.41,230.21 441.41,227.377 440.5,224C 443.172,224.583 445.172,223.416 446.5,220.5C 447.689,219.571 449.022,219.238 450.5,219.5C 450.124,214.704 452.291,211.704 457,210.5C 462.207,210.147 465.541,212.481 467,217.5C 467.667,224.167 467.667,230.833 467,237.5C 465.969,240.539 464.135,243.039 461.5,245C 453.376,250.563 446.543,249.397 441,241.5C 440.586,241.957 440.086,242.291 439.5,242.5C 438.783,246.889 438.45,251.056 438.5,255C 439.167,255.333 439.833,255.667 440.5,256C 439.061,256.991 438.061,258.324 437.5,260C 438.554,261.388 438.72,262.888 438,264.5C 434.667,270.899 432.167,277.566 430.5,284.5C 429.127,284.343 427.793,284.51 426.5,285C 424.167,287.5 421.833,290 419.5,292.5C 415.603,294.005 411.936,295.672 408.5,297.5 Z"/></g>
<g><path style="opacity:1" fill="#323232" d="M 297.5,205.5 C 298.458,205.953 299.292,206.619 300,207.5C 300.829,212.864 300.663,218.198 299.5,223.5C 297.085,224.305 294.751,225.305 292.5,226.5C 291.719,225.271 291.219,223.938 291,222.5C 290.333,225.167 289.667,225.167 289,222.5C 287.921,219.937 287.421,217.271 287.5,214.5C 289.655,214.628 291.655,214.128 293.5,213C 294.973,210.552 296.307,208.052 297.5,205.5 Z"/></g>
<g><path style="opacity:1" fill="#3b3434" d="M 373.5,215.5 C 369.167,220.5 364.5,225.167 359.5,229.5C 359.575,224.78 360.575,220.28 362.5,216C 365.249,214.916 368.082,214.083 371,213.5C 372.011,214.056 372.844,214.722 373.5,215.5 Z"/></g>
<g><path style="opacity:1" fill="#441b21" d="M 462.5,233.5 C 455.852,232.491 452.852,228.491 453.5,221.5C 452.833,221.5 452.167,221.5 451.5,221.5C 452.574,215.762 455.908,213.762 461.5,215.5C 462.531,216.7 463.365,218.034 464,219.5C 464.212,222.758 464.712,225.924 465.5,229C 463.859,230.129 462.859,231.629 462.5,233.5 Z"/></g>
<g><path style="opacity:1" fill="#5a1821" d="M 453.5,221.5 C 453.869,216.988 456.202,215.488 460.5,217C 462.774,220.918 463.107,225.085 461.5,229.5C 460.167,230.833 458.833,230.833 457.5,229.5C 456.387,226.559 455.054,223.892 453.5,221.5 Z"/></g>
<g><path style="opacity:1" fill="#322d2e" d="M 451.5,221.5 C 452.167,221.5 452.833,221.5 453.5,221.5C 452.852,228.491 455.852,232.491 462.5,233.5C 460.388,235.793 458.388,238.293 456.5,241C 454.833,241.667 453.167,241.667 451.5,241C 450.315,239.647 448.981,238.48 447.5,237.5C 446.971,234.743 445.971,232.243 444.5,230C 446.722,227.044 449.055,224.21 451.5,221.5 Z"/></g>
<g><path style="opacity:1" fill="#450e0e" d="M 408.5,231.5 C 410.857,233.067 413.524,234.067 416.5,234.5C 417.297,239.048 418.297,243.548 419.5,248C 419.473,250.363 418.306,251.863 416,252.5C 415.808,254.577 415.308,256.577 414.5,258.5C 412.374,259.37 410.374,260.37 408.5,261.5C 408.5,251.5 408.5,241.5 408.5,231.5 Z"/></g>
<g><path style="opacity:1" fill="#1d1d1d" d="M 37.5,235.5 C 39.3084,235.491 40.9751,235.991 42.5,237C 45.6908,240.69 48.6908,244.523 51.5,248.5C 52.7874,251.709 52.7874,254.875 51.5,258C 49.6354,259.301 47.6354,259.635 45.5,259C 42.3333,257.167 39.8333,254.667 38,251.5C 36.6725,247.688 35.5059,243.855 34.5,240C 35.3862,238.385 36.3862,236.885 37.5,235.5 Z"/></g>
<g><path style="opacity:1" fill="#480912" d="M 330.5,258.5 C 326.833,262.833 322.833,266.833 318.5,270.5C 315.197,259.8 319.197,255.8 330.5,258.5 Z"/></g>
<g><path style="opacity:1" fill="#4b4a4a" d="M 103.5,149.5 C 103.5,150.167 103.5,150.833 103.5,151.5C 103.5,220.833 103.5,290.167 103.5,359.5C 102.517,355.702 102.183,351.702 102.5,347.5C 102.5,341.833 102.5,336.167 102.5,330.5C 102.5,328.833 102.5,327.167 102.5,325.5C 102.5,322.167 102.5,318.833 102.5,315.5C 102.815,307.58 102.482,299.747 101.5,292C 97.8989,291.06 94.3989,289.893 91,288.5C 88,288.833 85,289.167 82,289.5C 80.0545,287.819 78.0545,287.152 76,287.5C 73.132,285.575 70.4654,285.575 68,287.5C 65.2596,285.64 62.7596,285.64 60.5,287.5C 49.4736,287.745 38.1402,287.412 26.5,286.5C 26.5,285.5 26.5,284.5 26.5,283.5C 22.1667,282.833 17.8333,282.167 13.5,281.5C 13.33,280.178 13.6634,279.011 14.5,278C 12.5273,277.505 10.5273,277.338 8.5,277.5C 10.2723,273.442 9.10559,272.108 5,273.5C 3.30085,273.613 2.13419,272.947 1.5,271.5C 23.8946,267.128 46.3946,263.128 69,259.5C 80.2794,262.871 91.4461,266.538 102.5,270.5C 102.667,254.163 102.5,237.83 102,221.5C 99.4048,228.526 95.9048,235.026 91.5,241C 90.2068,241.49 88.8734,241.657 87.5,241.5C 88.4372,237.27 86.7705,234.77 82.5,234C 83.5381,230.61 84.2048,227.11 84.5,223.5C 83.2728,215.137 81.9394,206.804 80.5,198.5C 82.1218,194.926 83.4551,191.259 84.5,187.5C 86.1238,187.36 87.2904,188.027 88,189.5C 89.3119,196.258 90.9786,202.925 93,209.5C 92.9869,215.055 93.9869,220.388 96,225.5C 97.9934,221.535 99.9934,217.535 102,213.5C 102.5,196.17 102.667,178.837 102.5,161.5C 102.183,157.298 102.517,153.298 103.5,149.5 Z"/></g>
<g><path style="opacity:1" fill="#270e11" d="M 332.5,256.5 C 332.167,257.5 331.5,258.167 330.5,258.5C 319.197,255.8 315.197,259.8 318.5,270.5C 318.167,271.5 317.5,272.167 316.5,272.5C 313.738,268.726 312.738,264.393 313.5,259.5C 319.333,255.68 325.666,254.68 332.5,256.5 Z"/></g>
<g><path style="opacity:1" fill="#3e3e3e" d="M -0.5,271.5 C 0.166667,271.5 0.833333,271.5 1.5,271.5C 2.13419,272.947 3.30085,273.613 5,273.5C 9.10559,272.108 10.2723,273.442 8.5,277.5C 10.5273,277.338 12.5273,277.505 14.5,278C 13.6634,279.011 13.33,280.178 13.5,281.5C 17.8333,282.167 22.1667,282.833 26.5,283.5C 26.5,284.5 26.5,285.5 26.5,286.5C 38.1402,287.412 49.4736,287.745 60.5,287.5C 62.7596,285.64 65.2596,285.64 68,287.5C 70.4654,285.575 73.132,285.575 76,287.5C 78.0545,287.152 80.0545,287.819 82,289.5C 85,289.167 88,288.833 91,288.5C 94.3989,289.893 97.8989,291.06 101.5,292C 102.482,299.747 102.815,307.58 102.5,315.5C 85.011,311.086 67.511,306.753 50,302.5C 49.3828,303.449 49.5494,304.282 50.5,305C 49.086,306.993 48.086,309.16 47.5,311.5C 42.1667,310.167 36.8333,308.833 31.5,307.5C 32.2071,304.214 32.5405,300.881 32.5,297.5C 21.604,294.424 10.604,291.757 -0.5,289.5C -0.5,283.5 -0.5,277.5 -0.5,271.5 Z"/></g>
<g><path style="opacity:1" fill="#151515" d="M 313.5,259.5 C 312.738,264.393 313.738,268.726 316.5,272.5C 307.833,281.833 298.833,290.833 289.5,299.5C 286.316,297.812 283.65,298.479 281.5,301.5C 280.231,299.82 278.564,298.653 276.5,298C 280.166,297.171 283.166,295.338 285.5,292.5C 281.459,289.39 277.293,286.39 273,283.5C 271.659,280.978 270.826,278.311 270.5,275.5C 274.473,273.768 278.639,272.768 283,272.5C 286.874,272.187 290.374,273.187 293.5,275.5C 295.88,273.316 297.214,270.816 297.5,268C 296.437,266.812 295.103,266.312 293.5,266.5C 293.187,263.753 293.52,261.086 294.5,258.5C 298.684,261.5 302.018,260.666 304.5,256C 308.766,254.502 311.766,255.668 313.5,259.5 Z"/></g>
<g><path style="opacity:1" fill="#302c2c" d="M 493.5,279.5 C 494.75,279.577 495.583,280.244 496,281.5C 496.874,284.379 496.54,287.045 495,289.5C 492.265,287.268 490.098,284.601 488.5,281.5C 490.291,280.83 491.958,280.163 493.5,279.5 Z"/></g>
<g><path style="opacity:1" fill="#101010" d="M 184.5,296.5 C 186.491,302.699 185.491,303.532 181.5,299C 180.256,298.544 179.423,299.044 179,300.5C 176.243,299.397 174.076,297.731 172.5,295.5C 174.122,292.545 176.122,289.878 178.5,287.5C 181.252,290.004 183.252,293.004 184.5,296.5 Z"/></g>
<g><path style="opacity:1" fill="#232323" d="M -0.5,289.5 C 10.604,291.757 21.604,294.424 32.5,297.5C 32.5405,300.881 32.2071,304.214 31.5,307.5C 20.9107,304.519 10.2441,301.853 -0.5,299.5C -0.5,296.167 -0.5,292.833 -0.5,289.5 Z"/></g>
<g><path style="opacity:1" fill="#2e2424" d="M 475.5,307.5 C 473.167,308.833 470.833,310.167 468.5,311.5C 467.345,318.655 467.178,325.988 468,333.5C 470.196,336.125 473.03,337.125 476.5,336.5C 476.5,338.833 476.5,341.167 476.5,343.5C 475.539,341.735 475.205,339.735 475.5,337.5C 472.5,337.5 469.5,337.5 466.5,337.5C 466.666,328.161 466.5,318.827 466,309.5C 463.6,307.585 461.1,305.919 458.5,304.5C 457.19,302.852 455.857,301.186 454.5,299.5C 457.251,297.707 460.084,296.041 463,294.5C 467.182,298.908 471.349,303.241 475.5,307.5 Z"/></g>
<g><path style="opacity:1" fill="#4c4c4c" d="M 172.5,295.5 C 174.076,297.731 176.243,299.397 179,300.5C 179.423,299.044 180.256,298.544 181.5,299C 185.491,303.532 186.491,302.699 184.5,296.5C 185.458,296.953 186.292,297.619 187,298.5C 191.523,306.222 196.023,313.888 200.5,321.5C 193.163,322.001 185.83,322.168 178.5,322C 175.5,320.5 172.5,319 169.5,317.5C 168.817,317.863 168.15,318.196 167.5,318.5C 167.334,312.491 167.501,306.491 168,300.5C 169.517,298.76 171.017,297.094 172.5,295.5 Z"/></g>
<g><path style="opacity:1" fill="#191919" d="M 254.5,293.5 C 256.604,293.201 258.604,293.534 260.5,294.5C 263.288,297.91 265.955,301.41 268.5,305C 270.345,304.217 272.345,303.884 274.5,304C 277.319,306.72 276.986,309.053 273.5,311C 274.244,312.039 275.244,312.539 276.5,312.5C 275.438,314.757 273.772,315.923 271.5,316C 265.946,308.381 260.279,300.881 254.5,293.5 Z"/></g>
<g><path style="opacity:1" fill="#181616" d="M 357.5,305.5 C 358.167,323.5 358.833,341.5 359.5,359.5C 373.167,359.5 386.833,359.5 400.5,359.5C 392.192,366.804 383.859,374.138 375.5,381.5C 374.294,380.12 374.627,378.953 376.5,378C 376.5,376.333 376.5,374.667 376.5,373C 375.5,372.333 374.5,372.333 373.5,373C 370.869,375.977 367.869,378.477 364.5,380.5C 347.868,370.164 331.868,359.164 316.5,347.5C 330.167,333.5 343.833,319.5 357.5,305.5 Z"/></g>
<g><path style="opacity:1" fill="#565555" d="M 357.5,305.5 C 357.56,304.957 357.893,304.624 358.5,304.5C 359.5,322.821 359.833,341.155 359.5,359.5C 358.833,341.5 358.167,323.5 357.5,305.5 Z"/></g>
<g><path style="opacity:1" fill="#494949" d="M 102.5,315.5 C 102.5,318.833 102.5,322.167 102.5,325.5C 84.1552,320.832 65.8219,316.165 47.5,311.5C 48.086,309.16 49.086,306.993 50.5,305C 49.5494,304.282 49.3828,303.449 50,302.5C 67.511,306.753 85.011,311.086 102.5,315.5 Z"/></g>
<g><path style="opacity:1" fill="#5d3333" d="M 511.5,308.5 C 511.5,309.167 511.5,309.833 511.5,310.5C 505.833,310.5 500.167,310.5 494.5,310.5C 494.5,313.167 494.5,315.833 494.5,318.5C 491.167,318.5 487.833,318.5 484.5,318.5C 484.5,321.167 484.5,323.833 484.5,326.5C 481.833,326.5 479.167,326.5 476.5,326.5C 476.49,321.085 475.823,315.752 474.5,310.5C 473.186,311.313 472.019,312.313 471,313.5C 470.005,312.934 469.172,312.267 468.5,311.5C 470.833,310.167 473.167,308.833 475.5,307.5C 475.232,304.881 475.565,302.381 476.5,300C 482.491,299.501 488.491,299.334 494.5,299.5C 494.5,302.5 494.5,305.5 494.5,308.5C 500.167,308.5 505.833,308.5 511.5,308.5 Z"/></g>
<g><path style="opacity:1" fill="#601e1e" d="M 479.5,301.5 C 483.514,301.334 487.514,301.501 491.5,302C 493.278,304.135 493.945,306.635 493.5,309.5C 487.833,309.5 482.167,309.5 476.5,309.5C 476.016,306.212 477.016,303.545 479.5,301.5 Z"/></g>
<g><path style="opacity:1" fill="#5a1616" d="M 511.5,310.5 C 511.5,313.167 511.5,315.833 511.5,318.5C 507.162,319.724 502.829,319.724 498.5,318.5C 497.252,319.04 496.085,319.707 495,320.5C 494.764,322.764 494.264,324.931 493.5,327C 490.774,327.182 488.107,327.682 485.5,328.5C 484.549,333.77 484.215,339.103 484.5,344.5C 482.5,344.5 480.5,344.5 478.5,344.5C 477.833,344.167 477.167,343.833 476.5,343.5C 476.5,341.167 476.5,338.833 476.5,336.5C 473.03,337.125 470.196,336.125 468,333.5C 467.178,325.988 467.345,318.655 468.5,311.5C 469.172,312.267 470.005,312.934 471,313.5C 472.019,312.313 473.186,311.313 474.5,310.5C 475.823,315.752 476.49,321.085 476.5,326.5C 479.167,326.5 481.833,326.5 484.5,326.5C 484.5,323.833 484.5,321.167 484.5,318.5C 487.833,318.5 491.167,318.5 494.5,318.5C 494.5,315.833 494.5,313.167 494.5,310.5C 500.167,310.5 505.833,310.5 511.5,310.5 Z"/></g>
<g><path style="opacity:1" fill="#1a1a1a" d="M 408.5,315.5 C 414.751,317.418 419.085,321.418 421.5,327.5C 419.668,333.494 417.834,339.494 416,345.5C 414.891,340.436 412.391,339.103 408.5,341.5C 408.5,332.833 408.5,324.167 408.5,315.5 Z"/></g>
<g><path style="opacity:1" fill="#323232" d="M 200.5,321.5 C 202.522,323.531 204.189,325.865 205.5,328.5C 197.101,329.033 188.768,330.033 180.5,331.5C 183.962,337.091 186.962,343.091 189.5,349.5C 189.154,350.696 188.654,350.696 188,349.5C 186.059,345.952 184.393,342.286 183,338.5C 181.266,337.751 179.433,337.251 177.5,337C 180.954,336.707 181.288,335.374 178.5,333C 175.833,332.333 173.167,332.333 170.5,333C 168.865,341.749 167.865,350.582 167.5,359.5C 167.5,345.833 167.5,332.167 167.5,318.5C 168.15,318.196 168.817,317.863 169.5,317.5C 172.5,319 175.5,320.5 178.5,322C 185.83,322.168 193.163,322.001 200.5,321.5 Z"/></g>
<g><path style="opacity:1" fill="#2f050a" d="M 48.5,322.5 C 51.5184,322.335 54.5184,322.502 57.5,323C 59.2511,326.943 57.9177,329.277 53.5,330C 50.5184,330.498 47.5184,330.665 44.5,330.5C 44.3398,328.801 44.5065,327.134 45,325.5C 46.5185,324.837 47.6851,323.837 48.5,322.5 Z"/></g>
<g><path style="opacity:1" fill="#414141" d="M 21.5,334.5 C 23.0281,334.517 23.5281,335.184 23,336.5C 18.9221,341.249 14.2554,345.249 9,348.5C 8.33333,347.833 8.33333,347.167 9,346.5C 13.0621,342.269 17.2288,338.269 21.5,334.5 Z"/></g>
<g><path style="opacity:1" fill="#430c0d" d="M 511.5,318.5 C 511.5,327.833 511.5,337.167 511.5,346.5C 504.44,346.551 497.44,346.384 490.5,346C 487.17,348.143 486.836,350.643 489.5,353.5C 487.994,354.747 486.494,354.747 485,353.5C 484.503,350.854 484.336,348.187 484.5,345.5C 482.265,345.795 480.265,345.461 478.5,344.5C 480.5,344.5 482.5,344.5 484.5,344.5C 484.215,339.103 484.549,333.77 485.5,328.5C 488.107,327.682 490.774,327.182 493.5,327C 494.264,324.931 494.764,322.764 495,320.5C 496.085,319.707 497.252,319.04 498.5,318.5C 502.829,319.724 507.162,319.724 511.5,318.5 Z"/></g>
<g><path style="opacity:1" fill="#bebaba" d="M 408.5,204.5 C 408.5,213.5 408.5,222.5 408.5,231.5C 408.5,241.5 408.5,251.5 408.5,261.5C 408.5,273.5 408.5,285.5 408.5,297.5C 408.5,303.5 408.5,309.5 408.5,315.5C 408.5,324.167 408.5,332.833 408.5,341.5C 408.823,347.69 408.49,353.69 407.5,359.5C 408.163,300.824 407.496,242.49 405.5,184.5C 405.811,183.522 406.478,182.855 407.5,182.5C 408.497,189.803 408.831,197.137 408.5,204.5 Z"/></g>
<g><path style="opacity:1" fill="#3d050c" d="M 436.5,337.5 C 438.722,337.178 440.556,337.845 442,339.5C 443.004,342.993 442.504,346.159 440.5,349C 434.481,349.538 432.314,346.705 434,340.5C 435.045,339.627 435.878,338.627 436.5,337.5 Z"/></g>
<g><path style="opacity:1" fill="#220607" d="M 102.5,330.5 C 102.5,336.167 102.5,341.833 102.5,347.5C 101.279,346.972 100.113,346.305 99,345.5C 98.5007,340.511 98.3341,335.511 98.5,330.5C 99.8333,330.5 101.167,330.5 102.5,330.5 Z"/></g>
<g><path style="opacity:1" fill="#310909" d="M 476.5,343.5 C 477.167,343.833 477.833,344.167 478.5,344.5C 480.265,345.461 482.265,345.795 484.5,345.5C 484.336,348.187 484.503,350.854 485,353.5C 486.494,354.747 487.994,354.747 489.5,353.5C 486.836,350.643 487.17,348.143 490.5,346C 497.44,346.384 504.44,346.551 511.5,346.5C 511.5,352.5 511.5,358.5 511.5,364.5C 505.824,364.666 500.157,364.499 494.5,364C 493.556,361.281 493.223,358.448 493.5,355.5C 490.482,355.665 487.482,355.498 484.5,355C 483.556,352.281 483.223,349.448 483.5,346.5C 481.167,346.5 478.833,346.5 476.5,346.5C 476.5,345.5 476.5,344.5 476.5,343.5 Z"/></g>
<g><path style="opacity:1" fill="#401a1f" d="M 329.5,342.5 C 337.064,342.891 338.397,346.057 333.5,352C 327.333,353.833 325.167,351.667 327,345.5C 328.045,344.627 328.878,343.627 329.5,342.5 Z"/></g>
<g><path style="opacity:1" fill="#0e0506" d="M 458.5,304.5 C 461.1,305.919 463.6,307.585 466,309.5C 466.5,318.827 466.666,328.161 466.5,337.5C 469.5,337.5 472.5,337.5 475.5,337.5C 475.205,339.735 475.539,341.735 476.5,343.5C 476.5,344.5 476.5,345.5 476.5,346.5C 478.833,346.5 481.167,346.5 483.5,346.5C 483.223,349.448 483.556,352.281 484.5,355C 487.482,355.498 490.482,355.665 493.5,355.5C 493.223,358.448 493.556,361.281 494.5,364C 500.157,364.499 505.824,364.666 511.5,364.5C 511.5,375.167 511.5,385.833 511.5,396.5C 510.711,396.783 510.044,397.283 509.5,398C 510.17,401.882 508.837,405.215 505.5,408C 498.977,411.22 494.977,409.387 493.5,402.5C 495.054,399.223 496.721,396.056 498.5,393C 497.167,390.333 497.167,387.667 498.5,385C 494.573,384.721 490.573,384.055 486.5,383C 480.549,377.797 474.216,373.131 467.5,369C 466.833,368 466.167,367 465.5,366C 466.34,364.334 465.84,364.167 464,365.5C 461.639,359.97 457.472,356.97 451.5,356.5C 453.006,354.345 454.006,352.012 454.5,349.5C 453.578,344.834 452.578,340.501 451.5,336.5C 452.165,332.498 452.165,328.331 451.5,324C 451.759,322.739 452.426,321.739 453.5,321C 452.134,318.618 452.467,316.452 454.5,314.5C 454.291,313.914 453.957,313.414 453.5,313C 454.994,310.531 456.66,307.697 458.5,304.5 Z"/></g>
<g><path style="opacity:1" fill="#3b3535" d="M 467.5,342.5 C 469.605,343.987 471.272,345.987 472.5,348.5C 469.002,351.754 465.002,353.588 460.5,354C 459.707,352.915 459.04,351.748 458.5,350.5C 461.545,347.782 464.545,345.116 467.5,342.5 Z"/></g>
<g><path style="opacity:1" fill="#171717" d="M 230.5,359.5 C 252.167,359.5 273.833,359.5 295.5,359.5C 296.263,360.268 297.263,360.768 298.5,361C 297.833,361.333 297.167,361.667 296.5,362C 296.833,363 297.167,364 297.5,365C 296.833,366.333 296.167,367.667 295.5,369C 296.373,373.229 296.373,377.562 295.5,382C 298.435,382.247 301.435,382.913 304.5,384C 305.502,385.672 306.668,386.838 308,387.5C 308.471,385.754 309.138,384.087 310,382.5C 310.654,381.304 311.154,381.304 311.5,382.5C 307.049,399.643 302.216,416.31 297,432.5C 291.288,433.857 285.454,434.524 279.5,434.5C 281.631,433.686 283.964,433.186 286.5,433C 288.978,431.062 289.145,428.895 287,426.5C 286.71,428.044 286.044,429.377 285,430.5C 284.667,430.167 284.333,429.833 284,429.5C 279.429,432.568 278.262,431.901 280.5,427.5C 280.331,425.883 279.997,424.216 279.5,422.5C 277.203,424.319 274.869,424.985 272.5,424.5C 272.977,423.522 273.643,422.689 274.5,422C 273.308,418.756 273.641,415.59 275.5,412.5C 275.023,411.522 274.357,410.689 273.5,410C 275.992,408.751 275.825,407.584 273,406.5C 272.577,407.956 271.744,408.456 270.5,408C 269.74,406.559 269.074,405.059 268.5,403.5C 269.758,404.016 270.758,403.35 271.5,401.5C 270.975,400.808 270.308,400.308 269.5,400C 271.227,397.096 271.893,393.93 271.5,390.5C 256.283,393.177 241.116,396.177 226,399.5C 224.624,399.684 223.791,400.351 223.5,401.5C 223.22,397.241 220.886,395.574 216.5,396.5C 217.541,392.746 218.875,389.08 220.5,385.5C 216.682,381.182 212.682,377.015 208.5,373C 212.833,372.333 217.167,372.333 221.5,373C 222.047,373.925 222.713,374.758 223.5,375.5C 226.227,370.313 228.56,364.979 230.5,359.5 Z"/></g>
<g><path style="opacity:1" fill="#222222" d="M 310.5,353.5 C 311.521,357.774 312.854,361.941 314.5,366C 314.833,366.167 315.167,366.333 315.5,366.5C 315.833,365.667 316.167,364.833 316.5,364C 315.419,360.532 314.919,357.032 315,353.5C 321.323,368.266 325.823,383.599 328.5,399.5C 323.871,390.14 319.704,380.473 316,370.5C 314.641,374.405 313.808,378.405 313.5,382.5C 308.141,399.593 303.141,416.927 298.5,434.5C 296.099,435.687 293.765,437.021 291.5,438.5C 289.132,436.777 286.466,436.11 283.5,436.5C 283.5,437.833 283.5,439.167 283.5,440.5C 280.749,440.472 278.415,439.472 276.5,437.5C 267.886,438.563 259.22,439.23 250.5,439.5C 249.167,439.5 247.833,439.5 246.5,439.5C 246.5,439.167 246.5,438.833 246.5,438.5C 257.534,437.097 268.534,435.764 279.5,434.5C 285.454,434.524 291.288,433.857 297,432.5C 302.216,416.31 307.049,399.643 311.5,382.5C 311.154,381.304 310.654,381.304 310,382.5C 309.138,384.087 308.471,385.754 308,387.5C 306.668,386.838 305.502,385.672 304.5,384C 301.435,382.913 298.435,382.247 295.5,382C 296.373,377.562 296.373,373.229 295.5,369C 296.167,367.667 296.833,366.333 297.5,365C 297.167,364 296.833,363 296.5,362C 297.167,361.667 297.833,361.333 298.5,361C 297.263,360.768 296.263,360.268 295.5,359.5C 298.518,359.665 301.518,359.498 304.5,359C 306.37,356.96 308.37,355.127 310.5,353.5 Z"/></g>
<g><path style="opacity:1" fill="#151515" d="M 76.5,388.5 C 76.0618,388.565 75.7284,388.399 75.5,388C 78.1227,384.588 80.6227,381.088 83,377.5C 83.9025,376.299 85.0692,375.465 86.5,375C 84.1144,374.716 83.4477,373.716 84.5,372C 83.5509,371.383 82.7175,371.549 82,372.5C 81.6258,371.584 81.1258,370.75 80.5,370C 83.0472,369.34 85.5472,369.507 88,370.5C 90.6616,370.221 91.495,369.055 90.5,367C 86.9085,366.211 83.4085,366.378 80,367.5C 73.5572,361.966 68.5572,363.299 65,371.5C 64.1721,375.466 63.6721,379.466 63.5,383.5C 60.0996,375.73 61.4329,368.563 67.5,362C 69.3904,360.888 71.3904,360.054 73.5,359.5C 76.8755,360.586 80.2088,361.586 83.5,362.5C 85.6934,362.674 87.5267,362.007 89,360.5C 89.5046,363.517 91.0046,365.851 93.5,367.5C 92.9682,369.741 91.6349,371.241 89.5,372C 90.5,373 91.5,374 92.5,375C 90.8876,375.72 89.3876,375.554 88,374.5C 86.3623,380.436 83.1956,385.436 78.5,389.5C 77.8165,389.137 77.1499,388.804 76.5,388.5 Z"/></g>
<g><path style="opacity:1" fill="#2d2b2c" d="M 76.5,388.5 C 76.7583,390.81 76.7583,392.81 76.5,394.5C 75.1203,391.736 73.4537,389.069 71.5,386.5C 72.8734,386.657 74.2068,386.49 75.5,386C 77.5166,382.954 79.5166,379.954 81.5,377C 80.6919,376.692 80.0253,376.192 79.5,375.5C 77.8509,367.682 73.6843,366.349 67,371.5C 66.0344,375.94 65.2011,380.273 64.5,384.5C 64.1667,384.5 63.8333,384.5 63.5,384.5C 63.5,384.167 63.5,383.833 63.5,383.5C 63.6721,379.466 64.1721,375.466 65,371.5C 68.5572,363.299 73.5572,361.966 80,367.5C 83.4085,366.378 86.9085,366.211 90.5,367C 91.495,369.055 90.6616,370.221 88,370.5C 85.5472,369.507 83.0472,369.34 80.5,370C 81.1258,370.75 81.6258,371.584 82,372.5C 82.7175,371.549 83.5509,371.383 84.5,372C 83.4477,373.716 84.1144,374.716 86.5,375C 85.0692,375.465 83.9025,376.299 83,377.5C 80.6227,381.088 78.1227,384.588 75.5,388C 75.7284,388.399 76.0618,388.565 76.5,388.5 Z"/></g>
<g><path style="opacity:1" fill="#35070c" d="M 493.5,369.5 C 499.704,369.314 501.037,371.814 497.5,377C 493.639,379.633 491.306,378.8 490.5,374.5C 490.771,372.307 491.771,370.641 493.5,369.5 Z"/></g>
<g><path style="opacity:1" fill="#2c2c2c" d="M 316.5,347.5 C 331.868,359.164 347.868,370.164 364.5,380.5C 367.869,378.477 370.869,375.977 373.5,373C 374.5,372.333 375.5,372.333 376.5,373C 376.5,374.667 376.5,376.333 376.5,378C 374.627,378.953 374.294,380.12 375.5,381.5C 373.211,383.448 370.878,385.448 368.5,387.5C 350.119,374.649 331.453,362.316 312.5,350.5C 313.795,349.512 315.128,348.512 316.5,347.5 Z"/></g>
<g><path style="opacity:1" fill="#474647" d="M 71.5,386.5 C 69.4727,386.662 67.4727,386.495 65.5,386C 64.944,385.617 64.6107,385.117 64.5,384.5C 65.2011,380.273 66.0344,375.94 67,371.5C 73.6843,366.349 77.8509,367.682 79.5,375.5C 80.0253,376.192 80.6919,376.692 81.5,377C 79.5166,379.954 77.5166,382.954 75.5,386C 74.2068,386.49 72.8734,386.657 71.5,386.5 Z"/></g>
<g><path style="opacity:1" fill="#0e0e0e" d="M 279.5,434.5 C 268.534,435.764 257.534,437.097 246.5,438.5C 241.072,435.24 236.072,431.407 231.5,427C 228.755,418.516 226.088,410.016 223.5,401.5C 223.791,400.351 224.624,399.684 226,399.5C 241.116,396.177 256.283,393.177 271.5,390.5C 271.893,393.93 271.227,397.096 269.5,400C 270.308,400.308 270.975,400.808 271.5,401.5C 270.758,403.35 269.758,404.016 268.5,403.5C 269.074,405.059 269.74,406.559 270.5,408C 271.744,408.456 272.577,407.956 273,406.5C 275.825,407.584 275.992,408.751 273.5,410C 274.357,410.689 275.023,411.522 275.5,412.5C 273.641,415.59 273.308,418.756 274.5,422C 273.643,422.689 272.977,423.522 272.5,424.5C 274.869,424.985 277.203,424.319 279.5,422.5C 279.997,424.216 280.331,425.883 280.5,427.5C 278.262,431.901 279.429,432.568 284,429.5C 284.333,429.833 284.667,430.167 285,430.5C 286.044,429.377 286.71,428.044 287,426.5C 289.145,428.895 288.978,431.062 286.5,433C 283.964,433.186 281.631,433.686 279.5,434.5 Z"/></g>
<g><path style="opacity:1" fill="#454545" d="M 328.5,399.5 C 332.326,405.593 330.66,408.926 323.5,409.5C 320.961,400.216 317.627,391.216 313.5,382.5C 313.808,378.405 314.641,374.405 316,370.5C 319.704,380.473 323.871,390.14 328.5,399.5 Z"/></g>
<g><path style="opacity:1" fill="#401319" d="M 63.5,384.5 C 63.8333,384.5 64.1667,384.5 64.5,384.5C 64.6107,385.117 64.944,385.617 65.5,386C 67.4727,386.495 69.4727,386.662 71.5,386.5C 73.4537,389.069 75.1203,391.736 76.5,394.5C 76.9465,397.01 76.2798,399.01 74.5,400.5C 74.985,395.458 72.985,391.624 68.5,389C 62.8876,387.14 59.2209,388.973 57.5,394.5C 57.5,394.833 57.5,395.167 57.5,395.5C 56.0069,396.312 55.3402,397.645 55.5,399.5C 56.4989,405.172 59.8322,407.838 65.5,407.5C 65.0377,408.88 64.0377,409.547 62.5,409.5C 58.9153,409.372 56.4153,407.705 55,404.5C 54.6667,404.833 54.3333,405.167 54,405.5C 53.3333,401.5 53.3333,397.5 54,393.5C 56.3789,389.62 59.5456,386.62 63.5,384.5 Z"/></g>
<g><path style="opacity:1" fill="#5f0c18" d="M 74.5,400.5 C 73.2788,404.961 70.2788,407.294 65.5,407.5C 59.8322,407.838 56.4989,405.172 55.5,399.5C 55.3402,397.645 56.0069,396.312 57.5,395.5C 57.179,396.817 56.8457,398.151 56.5,399.5C 58.4524,401.126 59.7857,403.126 60.5,405.5C 66.5746,406.467 70.2412,403.967 71.5,398C 68.9617,389.363 64.295,388.196 57.5,394.5C 59.2209,388.973 62.8876,387.14 68.5,389C 72.985,391.624 74.985,395.458 74.5,400.5 Z"/></g>
<g><path style="opacity:1" fill="#7b0515" d="M 57.5,395.5 C 57.5,395.167 57.5,394.833 57.5,394.5C 64.295,388.196 68.9617,389.363 71.5,398C 70.2412,403.967 66.5746,406.467 60.5,405.5C 59.7857,403.126 58.4524,401.126 56.5,399.5C 56.8457,398.151 57.179,396.817 57.5,395.5 Z"/></g>
<g><path style="opacity:1" fill="#151515" d="M 35.5,403.5 C 37.6477,403.389 37.981,404.056 36.5,405.5C 37.4803,406.981 38.647,408.315 40,409.5C 40.6667,410.833 40.6667,412.167 40,413.5C 37.5122,415.743 34.8456,417.743 32,419.5C 31.2717,424.564 28.605,428.23 24,430.5C 19.3992,429.31 17.2325,426.31 17.5,421.5C 17.5153,419.366 18.0153,417.366 19,415.5C 22.1527,413.498 25.6527,412.332 29.5,412C 31.8882,409.371 33.8882,406.538 35.5,403.5 Z"/></g>
<g><path style="opacity:1" fill="#373737" d="M 216.5,396.5 C 220.886,395.574 223.22,397.241 223.5,401.5C 226.088,410.016 228.755,418.516 231.5,427C 236.072,431.407 241.072,435.24 246.5,438.5C 246.5,438.833 246.5,439.167 246.5,439.5C 244.801,439.66 243.134,439.494 241.5,439C 237.012,435.257 232.346,431.757 227.5,428.5C 225.557,424.737 224.223,420.737 223.5,416.5C 222.5,416.5 221.5,416.5 220.5,416.5C 220.5,415.5 220.5,414.5 220.5,413.5C 221.097,413.265 221.43,412.765 221.5,412C 219.751,406.827 218.084,401.66 216.5,396.5 Z"/></g>
<g><path style="opacity:1" fill="#242424" d="M 454.5,405.5 C 458.932,406.881 463.265,408.548 467.5,410.5C 463.456,412.597 459.122,413.931 454.5,414.5C 450.71,413.02 446.71,412.187 442.5,412C 447.344,411.148 451.344,408.981 454.5,405.5 Z"/></g>
<g><path style="opacity:1" fill="#101010" d="M 220.5,413.5 C 220.5,414.5 220.5,415.5 220.5,416.5C 221.5,416.5 222.5,416.5 223.5,416.5C 224.223,420.737 225.557,424.737 227.5,428.5C 232.346,431.757 237.012,435.257 241.5,439C 243.134,439.494 244.801,439.66 246.5,439.5C 247.833,439.5 249.167,439.5 250.5,439.5C 248.631,440.165 246.631,440.831 244.5,441.5C 246.42,444.339 248.087,447.339 249.5,450.5C 248.975,451.192 248.308,451.692 247.5,452C 229.827,455.002 212.161,457.669 194.5,460C 194.167,459.667 193.833,459.333 193.5,459C 201.381,445.406 208.881,431.573 216,417.5C 217.049,415.616 218.549,414.282 220.5,413.5 Z"/></g>
<g><path style="opacity:1" fill="#141414" d="M 511.5,435.5 C 511.5,437.5 511.5,439.5 511.5,441.5C 507.988,438.83 504.322,436.33 500.5,434C 496.394,433.4 492.894,434.567 490,437.5C 488.275,440.674 486.942,444.007 486,447.5C 483.769,460.602 484.102,473.602 487,486.5C 489.787,489.124 492.954,491.124 496.5,492.5C 502.355,490.409 507.355,487.075 511.5,482.5C 511.5,484.833 511.5,487.167 511.5,489.5C 507.657,492.503 503.657,495.336 499.5,498C 497.087,498.484 494.754,498.15 492.5,497C 490.667,495.167 488.833,493.333 487,491.5C 479.452,474.996 478.119,458.33 483,441.5C 484.889,431.813 490.722,427.313 500.5,428C 504.849,429.518 508.516,432.018 511.5,435.5 Z"/></g>
<g><path style="opacity:1" fill="#1d0306" d="M 329.5,429.5 C 334.867,429.098 339.701,430.431 344,433.5C 344.667,436.167 344.667,438.833 344,441.5C 343.097,442.701 341.931,443.535 340.5,444C 334.852,445.432 330.018,444.265 326,440.5C 325.182,437.773 325.348,435.106 326.5,432.5C 327.855,431.812 328.855,430.812 329.5,429.5 Z"/></g>
<g><path style="opacity:1" fill="#50050f" d="M 332.5,432.5 C 335.32,432.248 337.986,432.748 340.5,434C 341.76,435.814 341.76,437.647 340.5,439.5C 337.562,440.575 334.562,440.741 331.5,440C 330.083,437.257 330.416,434.757 332.5,432.5 Z"/></g>
<g><path style="opacity:1" fill="#434344" d="M 511.5,450.5 C 511.5,458.5 511.5,466.5 511.5,474.5C 507.702,477.796 504.036,481.296 500.5,485C 495.128,486.902 491.295,485.069 489,479.5C 487.038,470.842 487.038,462.175 489,453.5C 494.829,441.281 502.329,440.281 511.5,450.5 Z"/></g>
<g><path style="opacity:1" fill="#181818" d="M 149.5,419.5 C 151.91,419.921 153.743,421.254 155,423.5C 155.548,440.846 155.215,458.179 154,475.5C 145.579,476.649 137.079,476.816 128.5,476C 126.464,466.821 124.297,457.655 122,448.5C 121.333,445.167 121.333,441.833 122,438.5C 131.494,432.514 140.661,426.181 149.5,419.5 Z"/></g>
<g><path style="opacity:1" fill="#535455" d="M 497.5,447.5 C 503.215,447.044 507.381,449.378 510,454.5C 510.81,459.257 510.476,463.924 509,468.5C 506.167,472 503.333,475.5 500.5,479C 496.296,481.659 493.129,480.825 491,476.5C 489.516,470.235 489.182,463.902 490,457.5C 491.595,453.416 494.095,450.083 497.5,447.5 Z"/></g>
<g><path style="opacity:1" fill="#171717" d="M 48.5,449.5 C 51.1873,449.336 53.854,449.503 56.5,450C 57.6933,452.027 59.36,453.527 61.5,454.5C 63.0983,453.515 64.765,453.349 66.5,454C 68.1084,457.218 69.4417,460.551 70.5,464C 70.6667,466.5 69.5,467.667 67,467.5C 65.5531,467.055 64.2197,466.388 63,465.5C 62.1268,465.735 61.2935,466.069 60.5,466.5C 57.8333,470.167 55.1667,473.833 52.5,477.5C 49.0323,480.293 45.8657,479.96 43,476.5C 41.0385,469.526 41.0385,462.526 43,455.5C 44.3597,452.977 46.193,450.977 48.5,449.5 Z"/></g>
<g><path style="opacity:1" fill="#2a2a2b" d="M 55.5,469.5 C 53.3809,474.53 50.0475,475.53 45.5,472.5C 44.1667,467.167 44.1667,461.833 45.5,456.5C 48.2752,452.923 51.6086,452.089 55.5,454C 57.5486,456.593 59.7152,459.093 62,461.5C 62.4828,462.448 62.6495,463.448 62.5,464.5C 61.0222,464.238 59.6888,464.571 58.5,465.5C 57.9649,467.261 56.9649,468.594 55.5,469.5 Z"/></g>
<g><path style="opacity:1" fill="#2c2c2c" d="M 285.5,443.5 C 286.735,443.721 287.735,444.388 288.5,445.5C 293.615,453.709 297.449,462.375 300,471.5C 297.639,468.112 295.806,464.446 294.5,460.5C 293.019,459.52 291.685,458.353 290.5,457C 290.957,456.586 291.291,456.086 291.5,455.5C 288.558,452.033 286.558,448.033 285.5,443.5 Z"/></g>
<g><path style="opacity:1" fill="#3f050e" d="M 360.5,468.5 C 358.5,469.167 356.5,469.833 354.5,470.5C 353.206,469.71 352.039,468.71 351,467.5C 348.832,461.021 350.999,458.188 357.5,459C 360.029,461.642 361.029,464.808 360.5,468.5 Z"/></g>
<g><path style="opacity:1" fill="#424344" d="M 55.5,469.5 C 53.1824,472.397 50.349,473.063 47,471.5C 46.3333,467.833 46.3333,464.167 47,460.5C 48.8201,457.797 51.3201,456.964 54.5,458C 56.0368,459.11 56.7035,460.61 56.5,462.5C 60.3107,462.596 60.3107,463.262 56.5,464.5C 55.6906,466.071 55.3573,467.738 55.5,469.5 Z"/></g>
<g><path style="opacity:1" fill="#2d2c2c" d="M 351.5,511.5 C 331.833,511.5 312.167,511.5 292.5,511.5C 293.882,506.406 296.049,501.739 299,497.5C 311.543,491.596 324.043,485.596 336.5,479.5C 337.524,473.496 340.524,472.163 345.5,475.5C 348.724,474.059 351.724,472.392 354.5,470.5C 356.5,469.833 358.5,469.167 360.5,468.5C 362.473,467.513 364.473,466.513 366.5,465.5C 366.833,465.833 367.167,466.167 367.5,466.5C 362.613,476.272 358.28,486.272 354.5,496.5C 354.529,498.029 355.196,499.196 356.5,500C 354.692,503.781 353.026,507.615 351.5,511.5 Z"/></g>
<g><path style="opacity:1" fill="#2d2d2e" d="M 511.5,441.5 C 511.5,444.5 511.5,447.5 511.5,450.5C 502.329,440.281 494.829,441.281 489,453.5C 487.038,462.175 487.038,470.842 489,479.5C 491.295,485.069 495.128,486.902 500.5,485C 504.036,481.296 507.702,477.796 511.5,474.5C 511.5,477.167 511.5,479.833 511.5,482.5C 507.355,487.075 502.355,490.409 496.5,492.5C 492.954,491.124 489.787,489.124 487,486.5C 484.102,473.602 483.769,460.602 486,447.5C 486.942,444.007 488.275,440.674 490,437.5C 492.894,434.567 496.394,433.4 500.5,434C 504.322,436.33 507.988,438.83 511.5,441.5 Z"/></g>
<g><path style="opacity:1" fill="#151515" d="M 227.5,473.5 C 229.411,473.574 230.578,474.574 231,476.5C 231.497,479.146 231.664,481.813 231.5,484.5C 228.5,484.5 225.5,484.5 222.5,484.5C 222.663,486.857 222.497,489.19 222,491.5C 219.654,493.706 219.154,496.206 220.5,499C 219.975,499.692 219.308,500.192 218.5,500.5C 217.416,499.335 216.583,498.002 216,496.5C 213.928,499.154 212.261,498.82 211,495.5C 209.361,492.258 208.361,488.924 208,485.5C 211.347,481.054 215.68,478.054 221,476.5C 222.163,478.285 222.83,480.285 223,482.5C 224.527,479.447 226.027,476.447 227.5,473.5 Z"/></g>
<g><path style="opacity:1" fill="#2f060b" d="M 247.5,490.5 C 253.572,489.777 259.072,491.111 264,494.5C 264.667,497.5 264.667,500.5 264,503.5C 257.946,506.384 252.113,505.884 246.5,502C 243.616,497.826 243.949,493.993 247.5,490.5 Z"/></g>
<g><path style="opacity:1" fill="#550510" d="M 249.5,492.5 C 253.986,491.994 257.819,493.328 261,496.5C 261.667,498.167 261.667,499.833 261,501.5C 257.591,502.622 254.091,502.789 250.5,502C 246.956,499.127 246.623,495.96 249.5,492.5 Z"/></g>
</svg>
