<?xml version="1.0" encoding="UTF-8"?>
<!DOCTYPE svg PUBLIC "-//W3C//DTD SVG 1.1//EN" "http://www.w3.org/Graphics/SVG/1.1/DTD/svg11.dtd">
<svg xmlns="http://www.w3.org/2000/svg" version="1.1" width="622px" height="401px" style="shape-rendering:geometricPrecision; text-rendering:geometricPrecision; image-rendering:optimizeQuality; fill-rule:evenodd; clip-rule:evenodd" xmlns:xlink="http://www.w3.org/1999/xlink">
<g><path style="opacity:1" fill="#f0082e" d="M 426.5,91.5 C 428.125,94.8909 429.125,98.5575 429.5,102.5C 430.609,102.443 431.609,102.11 432.5,101.5C 431.281,103.301 429.448,104.301 427,104.5C 426.228,104.355 425.561,104.022 425,103.5C 424.506,105.134 424.34,106.801 424.5,108.5C 425.833,108.5 427.167,108.5 428.5,108.5C 427.081,109.451 425.415,109.784 423.5,109.5C 423.5,105.833 423.5,102.167 423.5,98.5C 419.167,99.1667 414.833,99.8333 410.5,100.5C 411.209,99.596 412.209,99.2627 413.5,99.5C 413.561,97.4078 414.561,95.9078 416.5,95C 407.438,96.2218 398.104,97.3885 388.5,98.5C 400.926,95.538 413.593,93.2047 426.5,91.5 Z"/></g>
<g><path style="opacity:0.6" fill="#ab1936" d="M 426.5,91.5 C 427.209,90.596 428.209,90.2627 429.5,90.5C 429.5,94.5 429.5,98.5 429.5,102.5C 429.125,98.5575 428.125,94.8909 426.5,91.5 Z"/></g>
<g><path style="opacity:1" fill="#fe0025" d="M 410.5,100.5 C 409.833,100.833 409.167,101.167 408.5,101.5C 406.105,100.186 403.605,100.186 401,101.5C 400,100.833 399,100.167 398,99.5C 393.777,101.414 389.444,103.08 385,104.5C 383.5,103.5 382,102.5 380.5,101.5C 382.766,100.686 385.1,100.186 387.5,100C 388.056,99.6174 388.389,99.1174 388.5,98.5C 398.104,97.3885 407.438,96.2218 416.5,95C 414.561,95.9078 413.561,97.4078 413.5,99.5C 412.209,99.2627 411.209,99.596 410.5,100.5 Z"/></g>
<g><path style="opacity:1" fill="#ff0004" d="M 451.5,212.5 C 451.987,221.447 451.321,230.28 449.5,239C 447.618,240.877 445.452,242.377 443,243.5C 441.851,241.943 439.684,241.11 436.5,241C 438.119,240.764 439.119,239.931 439.5,238.5C 439.833,238.5 440.167,238.5 440.5,238.5C 442.662,239.417 444.995,239.417 447.5,238.5C 447.5,233.5 447.5,228.5 447.5,223.5C 447.5,184.833 447.5,146.167 447.5,107.5C 448.5,107.5 449.5,107.5 450.5,107.5C 451.437,142.487 451.771,177.487 451.5,212.5 Z"/></g>
<g><path style="opacity:1" fill="#d90f33" d="M 415.5,110.5 C 411.368,111.863 407.035,112.863 402.5,113.5C 402.5,111.833 402.5,110.167 402.5,108.5C 396.278,109.12 390.111,110.12 384,111.5C 382.615,111.486 381.449,111.152 380.5,110.5C 392.54,108.715 404.54,106.715 416.5,104.5C 416.795,106.735 416.461,108.735 415.5,110.5 Z"/></g>
<g><path style="opacity:1" fill="#fe0012" d="M 415.5,110.5 C 412.61,110.722 409.943,110.055 407.5,108.5C 406.614,109.325 406.281,110.325 406.5,111.5C 405.325,111.719 404.325,111.386 403.5,110.5C 404.641,109.575 404.641,108.741 403.5,108C 407.514,107.163 411.514,106.329 415.5,105.5C 415.5,107.167 415.5,108.833 415.5,110.5 Z"/></g>
<g><path style="opacity:1" fill="#f40322" d="M 402.5,113.5 C 379.409,117.515 356.409,121.848 333.5,126.5C 330.713,125.523 327.713,125.19 324.5,125.5C 324.5,124.5 324.5,123.5 324.5,122.5C 328.736,121.992 332.736,120.992 336.5,119.5C 351.076,116.518 365.743,113.518 380.5,110.5C 381.449,111.152 382.615,111.486 384,111.5C 390.111,110.12 396.278,109.12 402.5,108.5C 402.5,110.167 402.5,111.833 402.5,113.5 Z"/></g>
<g><path style="opacity:1" fill="#fe0714" d="M 437.5,113.5 C 439.489,135.475 440.156,157.808 439.5,180.5C 438.566,181.568 438.232,182.901 438.5,184.5C 437.5,184.5 436.5,184.5 435.5,184.5C 435.704,182.315 436.37,180.315 437.5,178.5C 438.661,165.006 438.827,151.34 438,137.5C 436.984,136.366 436.317,136.699 436,138.5C 433.405,137.769 431.739,136.102 431,133.5C 430.667,133.833 430.333,134.167 430,134.5C 429.814,132.1 429.314,129.766 428.5,127.5C 427.914,127.709 427.414,128.043 427,128.5C 426.831,141.34 426.331,154.007 425.5,166.5C 425.5,153.833 425.5,141.167 425.5,128.5C 420.789,129.01 416.122,129.844 411.5,131C 412.416,131.278 413.082,131.778 413.5,132.5C 413.5,139.833 413.5,147.167 413.5,154.5C 412.12,153.294 410.953,153.627 410,155.5C 409.25,154.874 408.416,154.374 407.5,154C 408.672,153.581 409.672,152.915 410.5,152C 409.736,149.931 409.236,147.764 409,145.5C 408.586,145.957 408.086,146.291 407.5,146.5C 406.544,145.135 405.878,143.635 405.5,142C 407.023,139.645 407.69,137.312 407.5,135C 405.867,134.52 404.534,133.687 403.5,132.5C 404.263,131.732 405.263,131.232 406.5,131C 405.429,130.148 404.429,129.315 403.5,128.5C 403.517,126.435 403.85,124.435 404.5,122.5C 405.404,121.791 405.737,120.791 405.5,119.5C 416.379,118.355 427.046,116.355 437.5,113.5 Z"/></g>
<g><path style="opacity:1" fill="#f20a32" d="M 388.5,98.5 C 388.389,99.1174 388.056,99.6174 387.5,100C 385.1,100.186 382.766,100.686 380.5,101.5C 382,102.5 383.5,103.5 385,104.5C 389.444,103.08 393.777,101.414 398,99.5C 399,100.167 400,100.833 401,101.5C 403.605,100.186 406.105,100.186 408.5,101.5C 331.522,115.607 254.522,129.607 177.5,143.5C 177.611,142.883 177.944,142.383 178.5,142C 182.949,141.736 187.283,140.903 191.5,139.5C 192.575,138.301 193.575,137.134 194.5,136C 190.294,135.838 186.127,136.338 182,137.5C 180.93,137.472 180.097,137.139 179.5,136.5C 249.148,123.725 318.815,111.059 388.5,98.5 Z"/></g>
<g><path style="opacity:1" fill="#e5a8c3" d="M 437.5,112.5 C 437.5,112.833 437.5,113.167 437.5,113.5C 427.046,116.355 416.379,118.355 405.5,119.5C 405.737,120.791 405.404,121.791 404.5,122.5C 404.5,121.167 404.5,119.833 404.5,118.5C 415.243,115.763 426.243,113.763 437.5,112.5 Z"/></g>
<g><path style="opacity:1" fill="#89c4ca" d="M 404.5,118.5 C 404.5,119.833 404.5,121.167 404.5,122.5C 403.85,124.435 403.517,126.435 403.5,128.5C 402.512,129.795 401.512,131.128 400.5,132.5C 399.833,132.5 399.167,132.5 398.5,132.5C 399.988,127.533 401.988,122.866 404.5,118.5 Z"/></g>
<g><path style="opacity:1" fill="#e4062e" d="M 336.5,119.5 C 332.736,120.992 328.736,121.992 324.5,122.5C 324.5,123.5 324.5,124.5 324.5,125.5C 327.713,125.19 330.713,125.523 333.5,126.5C 326.482,127.392 319.482,128.392 312.5,129.5C 314.372,127.938 316.705,126.938 319.5,126.5C 319.977,125.522 320.643,124.689 321.5,124C 319.618,123.802 317.952,123.302 316.5,122.5C 323.132,121.284 329.799,120.284 336.5,119.5 Z"/></g>
<g><path style="opacity:1" fill="#e6a8c5" d="M 390.5,122.5 C 389.508,122.328 388.842,122.662 388.5,123.5C 385.193,124.051 381.86,124.384 378.5,124.5C 377.5,124.5 376.5,124.5 375.5,124.5C 375.5,124.167 375.5,123.833 375.5,123.5C 379.928,122.343 384.428,121.343 389,120.5C 390.03,120.836 390.53,121.503 390.5,122.5 Z"/></g>
<g><path style="opacity:0.675" fill="#d00c38" d="M 311.5,123.5 C 309.974,125.13 307.974,125.963 305.5,126C 302.812,126.392 300.145,126.892 297.5,127.5C 296.584,127.457 295.917,127.124 295.5,126.5C 300.88,125.715 306.213,124.715 311.5,123.5 Z"/></g>
<g><path style="opacity:0.227" fill="#df093e" d="M 429.5,231.5 C 430.29,230.599 431.29,229.932 432.5,229.5C 434.435,228.85 436.435,228.517 438.5,228.5C 439.1,212.507 439.433,196.507 439.5,180.5C 440.156,157.808 439.489,135.475 437.5,113.5C 437.5,113.167 437.5,112.833 437.5,112.5C 438.209,111.596 439.209,111.263 440.5,111.5C 440.5,150.833 440.5,190.167 440.5,229.5C 436.833,230.167 433.167,230.833 429.5,231.5 Z"/></g>
<g><path style="opacity:1" fill="#d8a3ce" d="M 361.5,126.5 C 359.562,128.163 357.228,128.829 354.5,128.5C 351.921,128.865 349.588,128.865 347.5,128.5C 352.265,126.922 356.932,126.256 361.5,126.5 Z"/></g>
<g><path style="opacity:1" fill="#fe0005" d="M 437.5,178.5 C 436.5,178.5 435.5,178.5 434.5,178.5C 427.481,179.338 420.481,180.338 413.5,181.5C 413.611,180.883 413.944,180.383 414.5,180C 412.866,179.506 411.199,179.34 409.5,179.5C 409.5,178.167 409.5,176.833 409.5,175.5C 404.808,177.502 400.141,179.502 395.5,181.5C 395.244,177.731 395.577,174.064 396.5,170.5C 398.099,170.768 399.432,170.434 400.5,169.5C 400.84,156.966 401.84,144.633 403.5,132.5C 404.534,133.687 405.867,134.52 407.5,135C 407.69,137.312 407.023,139.645 405.5,142C 405.878,143.635 406.544,145.135 407.5,146.5C 408.086,146.291 408.586,145.957 409,145.5C 409.236,147.764 409.736,149.931 410.5,152C 409.672,152.915 408.672,153.581 407.5,154C 408.416,154.374 409.25,154.874 410,155.5C 410.953,153.627 412.12,153.294 413.5,154.5C 413.5,158.5 413.5,162.5 413.5,166.5C 417.352,167.644 421.352,167.644 425.5,166.5C 426.331,154.007 426.831,141.34 427,128.5C 427.414,128.043 427.914,127.709 428.5,127.5C 429.314,129.766 429.814,132.1 430,134.5C 430.333,134.167 430.667,133.833 431,133.5C 431.739,136.102 433.405,137.769 436,138.5C 436.317,136.699 436.984,136.366 438,137.5C 438.827,151.34 438.661,165.006 437.5,178.5 Z"/></g>
<g><path style="opacity:0.08" fill="#aaaac6" d="M 375.5,123.5 C 375.5,123.833 375.5,124.167 375.5,124.5C 374.506,133.986 374.173,143.652 374.5,153.5C 374.167,153.5 373.833,153.5 373.5,153.5C 372.859,143.111 373.526,133.111 375.5,123.5 Z"/></g>
<g><path style="opacity:0.922" fill="#e9b3d5" d="M 375.5,124.5 C 375.828,135.679 375.495,146.679 374.5,157.5C 374.167,156.833 373.833,156.167 373.5,155.5C 374.338,155.158 374.672,154.492 374.5,153.5C 374.173,143.652 374.506,133.986 375.5,124.5 Z"/></g>
<g><path style="opacity:0.294" fill="#c0062f" d="M 311.5,130.5 C 305.146,131.371 298.813,132.371 292.5,133.5C 297.527,131.539 302.86,130.206 308.5,129.5C 309.726,129.52 310.726,129.853 311.5,130.5 Z"/></g>
<g><path style="opacity:1" fill="#fe000d" d="M 388.5,123.5 C 389.662,140.662 389.829,157.995 389,175.5C 386.961,181.278 385.961,187.278 386,193.5C 385.722,194.416 385.222,195.082 384.5,195.5C 384.5,194.167 384.5,192.833 384.5,191.5C 384.5,187.167 384.5,182.833 384.5,178.5C 383.5,178.5 382.5,178.5 381.5,178.5C 381.2,173.999 381.2,169.333 381.5,164.5C 377.5,163.833 377.5,163.167 381.5,162.5C 381.5,161.5 381.5,160.5 381.5,159.5C 379.784,159.371 378.117,159.038 376.5,158.5C 375.889,146.913 376.556,135.58 378.5,124.5C 381.86,124.384 385.193,124.051 388.5,123.5 Z"/></g>
<g><path style="opacity:1" fill="#fb001a" d="M 361.5,126.5 C 365.225,135.618 369.225,144.618 373.5,153.5C 373.5,154.167 373.5,154.833 373.5,155.5C 373.833,156.167 374.167,156.833 374.5,157.5C 374.842,158.338 375.508,158.672 376.5,158.5C 378.117,159.038 379.784,159.371 381.5,159.5C 381.5,160.5 381.5,161.5 381.5,162.5C 377.5,163.167 377.5,163.833 381.5,164.5C 381.2,169.333 381.2,173.999 381.5,178.5C 382.5,178.5 383.5,178.5 384.5,178.5C 384.5,182.833 384.5,187.167 384.5,191.5C 381.588,186.737 378.421,182.071 375,177.5C 373.583,181.262 372.083,184.928 370.5,188.5C 367.316,182.794 364.65,176.794 362.5,170.5C 362.179,168.952 361.179,168.285 359.5,168.5C 359.5,171.167 359.5,173.833 359.5,176.5C 358.5,176.5 357.5,176.5 356.5,176.5C 356.5,172.833 356.5,169.167 356.5,165.5C 358.5,165.5 360.5,165.5 362.5,165.5C 362.5,164.167 362.5,162.833 362.5,161.5C 363.552,161.649 364.552,161.483 365.5,161C 362.907,158.521 362.907,156.021 365.5,153.5C 363.2,151.172 363.2,149.005 365.5,147C 363.704,142.854 361.871,138.687 360,134.5C 358.517,132.881 357.35,132.714 356.5,134C 357.573,135.416 357.573,136.75 356.5,138C 360.305,140.383 361.638,143.716 360.5,148C 361.54,151.4 362.206,154.9 362.5,158.5C 360.833,158.5 359.167,158.5 357.5,158.5C 357.663,156.143 357.497,153.81 357,151.5C 356,152.833 355,152.833 354,151.5C 353.879,149.273 353.046,147.44 351.5,146C 352.696,145.346 352.696,144.846 351.5,144.5C 350.833,146.167 350.167,147.833 349.5,149.5C 348.338,144.869 348.172,140.202 349,135.5C 349.726,132.712 351.56,131.212 354.5,131C 353.207,130.51 351.873,130.343 350.5,130.5C 351.833,129.833 353.167,129.167 354.5,128.5C 357.228,128.829 359.562,128.163 361.5,126.5 Z"/></g>
<g><path style="opacity:1" fill="#f3a0c3" d="M 347.5,128.5 C 349.588,128.865 351.921,128.865 354.5,128.5C 353.167,129.167 351.833,129.833 350.5,130.5C 348.436,130.687 346.436,131.187 344.5,132C 345,132.5 345.5,133 346,133.5C 346.5,141.493 346.666,149.493 346.5,157.5C 346.167,157.5 345.833,157.5 345.5,157.5C 345.825,149.981 345.492,142.648 344.5,135.5C 342.295,133.637 340.961,131.303 340.5,128.5C 342.833,128.5 345.167,128.5 347.5,128.5 Z"/></g>
<g><path style="opacity:0.812" fill="#cf123f" d="M 176.5,137.5 C 173.386,138.956 170.052,140.122 166.5,141C 167.056,141.383 167.389,141.883 167.5,142.5C 164.685,142.217 164.185,141.217 166,139.5C 169.447,138.511 172.947,137.844 176.5,137.5 Z"/></g>
<g><path style="opacity:1" fill="#ff020c" d="M 301.5,139.5 C 302.5,139.5 303.5,139.5 304.5,139.5C 305.291,142.535 306.291,145.535 307.5,148.5C 306.638,152.453 306.305,156.453 306.5,160.5C 305.325,160.281 304.325,160.614 303.5,161.5C 308.412,165.568 311.912,170.568 314,176.5C 314.837,174.993 316.004,174.493 317.5,175C 316.663,176.011 316.33,177.178 316.5,178.5C 315.448,178.351 314.448,178.517 313.5,179C 316.167,182.333 316.167,185.667 313.5,189C 315.848,190.688 316.015,192.522 314,194.5C 312.811,192.767 311.644,191.1 310.5,189.5C 303.1,173.619 296.1,157.619 289.5,141.5C 293.5,140.833 297.5,140.167 301.5,139.5 Z"/></g>
<g><path style="opacity:1" fill="#ff6a8e" d="M 375.5,124.5 C 376.5,124.5 377.5,124.5 378.5,124.5C 376.556,135.58 375.889,146.913 376.5,158.5C 375.508,158.672 374.842,158.338 374.5,157.5C 375.495,146.679 375.828,135.679 375.5,124.5 Z"/></g>
<g><path style="opacity:1" fill="#d489ba" d="M 425.5,166.5 C 421.352,167.644 417.352,167.644 413.5,166.5C 414.167,166.5 414.5,166.167 414.5,165.5C 417.455,164.841 420.455,164.508 423.5,164.5C 423.832,153.48 423.499,142.48 422.5,131.5C 420.253,132.374 417.92,132.708 415.5,132.5C 414.833,132.5 414.167,132.5 413.5,132.5C 413.082,131.778 412.416,131.278 411.5,131C 416.122,129.844 420.789,129.01 425.5,128.5C 425.5,141.167 425.5,153.833 425.5,166.5 Z"/></g>
<g><path style="opacity:1" fill="#f20323" d="M 316.5,122.5 C 317.952,123.302 319.618,123.802 321.5,124C 320.643,124.689 319.977,125.522 319.5,126.5C 316.705,126.938 314.372,127.938 312.5,129.5C 312.5,130.167 312.167,130.5 311.5,130.5C 310.726,129.853 309.726,129.52 308.5,129.5C 302.86,130.206 297.527,131.539 292.5,133.5C 256.232,140.489 219.899,147.156 183.5,153.5C 183.083,150.921 183.75,148.754 185.5,147C 222.198,140.227 258.865,133.393 295.5,126.5C 295.917,127.124 296.584,127.457 297.5,127.5C 300.145,126.892 302.812,126.392 305.5,126C 307.974,125.963 309.974,125.13 311.5,123.5C 313.216,123.371 314.883,123.038 316.5,122.5 Z"/></g>
<g><path style="opacity:1" fill="#fe030f" d="M 273.5,144.5 C 274.832,154.144 275.499,164.144 275.5,174.5C 275.333,184.5 275.167,194.5 275,204.5C 274.667,205.167 274.333,205.833 274,206.5C 269.403,202.632 268.236,203.965 270.5,210.5C 267.061,210.253 263.728,210.586 260.5,211.5C 260.167,211.5 259.833,211.5 259.5,211.5C 258.529,209.517 257.529,207.517 256.5,205.5C 256.5,202.167 256.5,198.833 256.5,195.5C 258.735,195.795 260.735,195.461 262.5,194.5C 262.5,178.167 262.5,161.833 262.5,145.5C 266.198,145.448 269.865,145.114 273.5,144.5 Z"/></g>
<g><path style="opacity:0.878" fill="#e09eb6" d="M 305.5,138.5 C 303.901,138.232 302.568,138.566 301.5,139.5C 297.5,140.167 293.5,140.833 289.5,141.5C 296.1,157.619 303.1,173.619 310.5,189.5C 310.5,190.167 310.5,190.833 310.5,191.5C 302.372,174.482 294.039,157.482 285.5,140.5C 291.384,138.74 297.384,137.407 303.5,136.5C 304.713,136.747 305.38,137.414 305.5,138.5 Z"/></g>
<g><path style="opacity:0.779" fill="#c9042b" d="M 413.5,132.5 C 414.167,132.5 414.833,132.5 415.5,132.5C 414.536,143.628 414.203,154.628 414.5,165.5C 414.5,166.167 414.167,166.5 413.5,166.5C 413.5,162.5 413.5,158.5 413.5,154.5C 413.5,147.167 413.5,139.833 413.5,132.5 Z"/></g>
<g><path style="opacity:0.376" fill="#9a0223" d="M 177.5,143.5 C 176.586,146.728 176.253,150.061 176.5,153.5C 175.84,152.036 175.507,150.369 175.5,148.5C 175.556,146.36 176.223,144.694 177.5,143.5 Z"/></g>
<g><path style="opacity:1" fill="#ff5476" d="M 321.5,135.5 C 321.5,149.167 321.5,162.833 321.5,176.5C 320.167,176.5 319.5,175.833 319.5,174.5C 320.167,161.5 320.833,148.5 321.5,135.5 Z"/></g>
<g><path style="opacity:1" fill="#ff2e54" d="M 403.5,128.5 C 404.429,129.315 405.429,130.148 406.5,131C 405.263,131.232 404.263,131.732 403.5,132.5C 401.84,144.633 400.84,156.966 400.5,169.5C 400.5,157.167 400.5,144.833 400.5,132.5C 401.512,131.128 402.512,129.795 403.5,128.5 Z"/></g>
<g><path style="opacity:1" fill="#d294c1" d="M 398.5,132.5 C 399.167,132.5 399.833,132.5 400.5,132.5C 400.5,144.833 400.5,157.167 400.5,169.5C 399.432,170.434 398.099,170.768 396.5,170.5C 394.586,173.684 393.92,177.351 394.5,181.5C 392.983,179.538 392.316,177.205 392.5,174.5C 391.562,169.942 393.395,167.609 398,167.5C 398.5,155.838 398.667,144.171 398.5,132.5 Z"/></g>
<g><path style="opacity:1" fill="#dfafcc" d="M 251.5,148.5 C 240.144,150.408 228.811,152.408 217.5,154.5C 217.833,153.833 218.167,153.167 218.5,152.5C 228.323,150.303 238.323,148.303 248.5,146.5C 250.03,146.64 251.03,147.307 251.5,148.5 Z"/></g>
<g><path style="opacity:0.959" fill="#c393a2" d="M 336.5,143.5 C 335.518,140.038 335.185,136.371 335.5,132.5C 334.209,132.263 333.209,132.596 332.5,133.5C 328.86,134.273 325.193,134.94 321.5,135.5C 320.833,148.5 320.167,161.5 319.5,174.5C 319.5,173.833 319.5,173.167 319.5,172.5C 319.672,171.508 319.338,170.842 318.5,170.5C 318.5,158.167 318.5,145.833 318.5,133.5C 324.5,132.5 330.5,131.5 336.5,130.5C 336.5,134.833 336.5,139.167 336.5,143.5 Z"/></g>
<g><path style="opacity:1" fill="#bf97bb" d="M 203.5,156.5 C 200.5,157.167 197.5,157.833 194.5,158.5C 191.813,158.336 189.146,158.503 186.5,159C 185.584,159.278 184.918,159.778 184.5,160.5C 184.167,160.5 183.833,160.5 183.5,160.5C 183.577,159.25 184.244,158.417 185.5,158C 191.576,157.154 197.576,155.988 203.5,154.5C 204.773,155.257 204.773,155.923 203.5,156.5 Z"/></g>
<g><path style="opacity:1" fill="#ff90b5" d="M 194.5,158.5 C 192.046,159.621 189.379,160.454 186.5,161C 185.578,163.294 184.578,165.461 183.5,167.5C 183.674,165.139 184.007,162.806 184.5,160.5C 184.918,159.778 185.584,159.278 186.5,159C 189.146,158.503 191.813,158.336 194.5,158.5 Z"/></g>
<g><path style="opacity:1" fill="#c9e0d1" d="M 218.5,152.5 C 218.167,153.167 217.833,153.833 217.5,154.5C 215.066,157.709 213.399,161.376 212.5,165.5C 211.609,166.11 210.609,166.443 209.5,166.5C 210.964,162.112 212.63,157.779 214.5,153.5C 215.689,152.571 217.022,152.238 218.5,152.5 Z"/></g>
<g><path style="opacity:1" fill="#ff000d" d="M 332.5,133.5 C 333.831,140.468 334.497,147.802 334.5,155.5C 334.167,162.833 333.833,170.167 333.5,177.5C 329.687,175.262 325.687,174.929 321.5,176.5C 321.5,162.833 321.5,149.167 321.5,135.5C 325.193,134.94 328.86,134.273 332.5,133.5 Z"/></g>
<g><path style="opacity:0.48" fill="#b98ea7" d="M 344.5,135.5 C 345.492,142.648 345.825,149.981 345.5,157.5C 345.5,163.167 345.5,168.833 345.5,174.5C 344.167,174.5 342.833,174.5 341.5,174.5C 342.209,173.596 343.209,173.263 344.5,173.5C 344.5,160.833 344.5,148.167 344.5,135.5 Z"/></g>
<g><path style="opacity:1" fill="#ec89b0" d="M 170.5,163.5 C 169.209,163.263 168.209,163.596 167.5,164.5C 161.483,165.527 155.483,166.693 149.5,168C 151.333,169.833 153.167,171.667 155,173.5C 155.5,185.829 155.667,198.162 155.5,210.5C 155.167,210.5 154.833,210.5 154.5,210.5C 154.828,198.655 154.495,186.988 153.5,175.5C 150.827,172.161 147.827,169.161 144.5,166.5C 152.651,164.78 160.818,163.114 169,161.5C 170.03,161.836 170.53,162.503 170.5,163.5 Z"/></g>
<g><path style="opacity:1" fill="#fe0015" d="M 350.5,130.5 C 351.873,130.343 353.207,130.51 354.5,131C 351.56,131.212 349.726,132.712 349,135.5C 348.172,140.202 348.338,144.869 349.5,149.5C 350.167,147.833 350.833,146.167 351.5,144.5C 352.696,144.846 352.696,145.346 351.5,146C 353.046,147.44 353.879,149.273 354,151.5C 355,152.833 356,152.833 357,151.5C 357.497,153.81 357.663,156.143 357.5,158.5C 359.167,158.5 360.833,158.5 362.5,158.5C 362.206,154.9 361.54,151.4 360.5,148C 361.638,143.716 360.305,140.383 356.5,138C 357.573,136.75 357.573,135.416 356.5,134C 357.35,132.714 358.517,132.881 360,134.5C 361.871,138.687 363.704,142.854 365.5,147C 363.2,149.005 363.2,151.172 365.5,153.5C 362.907,156.021 362.907,158.521 365.5,161C 364.552,161.483 363.552,161.649 362.5,161.5C 362.5,162.833 362.5,164.167 362.5,165.5C 360.5,165.5 358.5,165.5 356.5,165.5C 356.5,169.167 356.5,172.833 356.5,176.5C 357.5,176.5 358.5,176.5 359.5,176.5C 359.5,180.5 359.5,184.5 359.5,188.5C 354.281,187.342 349.281,188.009 344.5,190.5C 344.715,188.821 344.048,187.821 342.5,187.5C 341.599,186.71 340.932,185.71 340.5,184.5C 340.952,181.797 341.619,179.13 342.5,176.5C 343.736,175.754 345.07,175.421 346.5,175.5C 346.5,169.5 346.5,163.5 346.5,157.5C 346.666,149.493 346.5,141.493 346,133.5C 345.5,133 345,132.5 344.5,132C 346.436,131.187 348.436,130.687 350.5,130.5 Z"/></g>
<g><path style="opacity:1" fill="#fe0217" d="M 251.5,148.5 C 251.5,153.167 251.5,157.833 251.5,162.5C 251.167,162.5 250.833,162.5 250.5,162.5C 250.095,161.45 249.429,161.45 248.5,162.5C 247.534,164.396 247.201,166.396 247.5,168.5C 246.5,168.5 245.5,168.5 244.5,168.5C 246.643,174.736 246.643,181.069 244.5,187.5C 243.808,186.975 243.308,186.308 243,185.5C 242.287,178.797 242.454,172.13 243.5,165.5C 242.5,165.5 241.5,165.5 240.5,165.5C 240.649,166.552 240.483,167.552 240,168.5C 239.172,164.534 238.672,160.534 238.5,156.5C 240.199,156.66 241.866,156.494 243.5,156C 236.085,154.083 228.418,154.249 220.5,156.5C 220.429,159.024 221.429,161.024 223.5,162.5C 220.87,164.507 220.87,165.174 223.5,164.5C 224.167,165.5 224.833,166.5 225.5,167.5C 224.506,177.987 224.172,188.654 224.5,199.5C 223.662,199.842 223.328,200.508 223.5,201.5C 224.75,204.006 225.416,206.673 225.5,209.5C 226.5,209.5 227.5,209.5 228.5,209.5C 228.5,208.5 228.5,207.5 228.5,206.5C 229.5,206.5 230.5,206.5 231.5,206.5C 231.5,205.5 231.5,204.5 231.5,203.5C 234.687,204.04 237.187,203.04 239,200.5C 240.285,200.95 241.452,201.617 242.5,202.5C 241.727,200.401 241.727,198.068 242.5,195.5C 243.988,193.423 245.988,192.423 248.5,192.5C 248.338,194.527 248.505,196.527 249,198.5C 249.179,194.975 249.679,191.641 250.5,188.5C 249.955,206.163 249.455,223.829 249,241.5C 247.763,230.891 247.097,220.225 247,209.5C 246.831,222.007 246.331,234.34 245.5,246.5C 245.843,233.125 245.51,221.791 244.5,212.5C 236.607,214.177 228.607,215.01 220.5,215C 218.291,213.127 216.458,210.96 215,208.5C 212.217,211.447 210.05,214.78 208.5,218.5C 207.833,218.5 207.167,218.5 206.5,218.5C 205.833,217.5 205.167,216.5 204.5,215.5C 204.5,211.5 204.5,207.5 204.5,203.5C 206.792,203.756 208.959,203.423 211,202.5C 211.206,190.122 211.706,177.788 212.5,165.5C 213.399,161.376 215.066,157.709 217.5,154.5C 228.811,152.408 240.144,150.408 251.5,148.5 Z"/></g>
<g><path style="opacity:1" fill="#ff000d" d="M 250.5,162.5 C 250.5,171.167 250.5,179.833 250.5,188.5C 249.679,191.641 249.179,194.975 249,198.5C 248.505,196.527 248.338,194.527 248.5,192.5C 245.988,192.423 243.988,193.423 242.5,195.5C 241.727,198.068 241.727,200.401 242.5,202.5C 241.452,201.617 240.285,200.95 239,200.5C 237.187,203.04 234.687,204.04 231.5,203.5C 231.5,204.5 231.5,205.5 231.5,206.5C 230.5,206.5 229.5,206.5 228.5,206.5C 228.5,207.5 228.5,208.5 228.5,209.5C 227.5,209.5 226.5,209.5 225.5,209.5C 225.416,206.673 224.75,204.006 223.5,201.5C 227.954,201.578 232.287,200.911 236.5,199.5C 237.499,187.185 237.832,174.851 237.5,162.5C 234.219,162.42 231.219,163.087 228.5,164.5C 226.833,164.5 225.167,164.5 223.5,164.5C 220.87,165.174 220.87,164.507 223.5,162.5C 221.429,161.024 220.429,159.024 220.5,156.5C 228.418,154.249 236.085,154.083 243.5,156C 241.866,156.494 240.199,156.66 238.5,156.5C 238.672,160.534 239.172,164.534 240,168.5C 240.483,167.552 240.649,166.552 240.5,165.5C 241.5,165.5 242.5,165.5 243.5,165.5C 242.454,172.13 242.287,178.797 243,185.5C 243.308,186.308 243.808,186.975 244.5,187.5C 246.643,181.069 246.643,174.736 244.5,168.5C 245.5,168.5 246.5,168.5 247.5,168.5C 247.201,166.396 247.534,164.396 248.5,162.5C 249.429,161.45 250.095,161.45 250.5,162.5 Z"/></g>
<g><path style="opacity:0.725" fill="#fa001e" d="M 452.5,212.5 C 452.167,212.5 451.833,212.5 451.5,212.5C 451.771,177.487 451.437,142.487 450.5,107.5C 449.5,107.5 448.5,107.5 447.5,107.5C 447.5,146.167 447.5,184.833 447.5,223.5C 447.167,223.5 446.833,223.5 446.5,223.5C 446.5,184.5 446.5,145.5 446.5,106.5C 440.5,107.167 434.5,107.833 428.5,108.5C 427.167,108.5 425.833,108.5 424.5,108.5C 424.34,106.801 424.506,105.134 425,103.5C 425.561,104.022 426.228,104.355 427,104.5C 429.448,104.301 431.281,103.301 432.5,101.5C 439.202,100.716 445.869,99.7162 452.5,98.5C 452.5,136.5 452.5,174.5 452.5,212.5 Z"/></g>
<g><path style="opacity:1" fill="#f50328" d="M 177.5,143.5 C 176.223,144.694 175.556,146.36 175.5,148.5C 175.507,150.369 175.84,152.036 176.5,153.5C 176.586,154.496 176.252,155.329 175.5,156C 161.385,158.574 147.385,161.574 133.5,165C 137.702,168.867 141.535,173.033 145,177.5C 145.5,216.832 145.667,256.165 145.5,295.5C 144.753,267.997 144.086,240.33 143.5,212.5C 143.167,209.5 142.833,206.5 142.5,203.5C 141.833,208.317 141.166,212.983 140.5,217.5C 140.829,204.656 140.495,191.989 139.5,179.5C 132.865,173.507 126.199,167.507 119.5,161.5C 136.335,157.199 153.335,153.533 170.5,150.5C 170.856,147.224 169.856,144.557 167.5,142.5C 167.389,141.883 167.056,141.383 166.5,141C 170.052,140.122 173.386,138.956 176.5,137.5C 177.391,136.89 178.391,136.557 179.5,136.5C 180.097,137.139 180.93,137.472 182,137.5C 186.127,136.338 190.294,135.838 194.5,136C 193.575,137.134 192.575,138.301 191.5,139.5C 187.283,140.903 182.949,141.736 178.5,142C 177.944,142.383 177.611,142.883 177.5,143.5 Z"/></g>
<g><path style="opacity:1" fill="#f36e90" d="M 345.5,157.5 C 345.833,157.5 346.167,157.5 346.5,157.5C 346.5,163.5 346.5,169.5 346.5,175.5C 345.07,175.421 343.736,175.754 342.5,176.5C 341.619,179.13 340.952,181.797 340.5,184.5C 339.795,181.772 339.128,178.939 338.5,176C 339.244,174.961 340.244,174.461 341.5,174.5C 342.833,174.5 344.167,174.5 345.5,174.5C 345.5,168.833 345.5,163.167 345.5,157.5 Z"/></g>
<g><path style="opacity:1" fill="#71b9cb" d="M 183.5,160.5 C 183.833,160.5 184.167,160.5 184.5,160.5C 184.007,162.806 183.674,165.139 183.5,167.5C 180.305,174.418 177.305,181.418 174.5,188.5C 173.833,188.833 173.167,189.167 172.5,189.5C 175.892,179.719 179.558,170.052 183.5,160.5 Z"/></g>
<g><path style="opacity:0.621" fill="#e59db4" d="M 276.5,143.5 C 275.209,143.263 274.209,143.596 273.5,144.5C 269.865,145.114 266.198,145.448 262.5,145.5C 262.5,161.833 262.5,178.167 262.5,194.5C 259.833,194.5 257.167,194.5 254.5,194.5C 255.997,193.694 257.664,193.028 259.5,192.5C 260.167,176.5 260.833,160.5 261.5,144.5C 266.001,143.555 270.501,142.555 275,141.5C 276.03,141.836 276.53,142.503 276.5,143.5 Z"/></g>
<g><path style="opacity:1" fill="#f3021f" d="M 332.5,133.5 C 333.209,132.596 334.209,132.263 335.5,132.5C 335.185,136.371 335.518,140.038 336.5,143.5C 336.667,154.172 336.5,164.839 336,175.5C 333.757,180.321 331.257,184.988 328.5,189.5C 327.833,196.345 327.167,203.345 326.5,210.5C 325.808,209.975 325.308,209.308 325,208.5C 324.667,210.5 324.333,212.5 324,214.5C 323.667,211.5 323.333,208.5 323,205.5C 322.5,215.494 322.334,225.494 322.5,235.5C 321.797,220.618 320.63,205.618 319,190.5C 318.118,193.789 317.452,197.123 317,200.5C 314.411,204.111 313.245,208.278 313.5,213C 313.469,219.125 314.135,225.125 315.5,231C 314.874,231.75 314.374,232.584 314,233.5C 312.644,232.62 311.144,232.286 309.5,232.5C 304.05,230.838 298.716,229.172 293.5,227.5C 298.862,227.472 304.195,227.806 309.5,228.5C 309.833,228.5 310.167,228.5 310.5,228.5C 310.56,229.043 310.893,229.376 311.5,229.5C 312.817,223.012 312.817,216.678 311.5,210.5C 311.791,204.077 311.458,197.744 310.5,191.5C 310.5,190.833 310.5,190.167 310.5,189.5C 311.644,191.1 312.811,192.767 314,194.5C 316.015,192.522 315.848,190.688 313.5,189C 316.167,185.667 316.167,182.333 313.5,179C 314.448,178.517 315.448,178.351 316.5,178.5C 316.33,177.178 316.663,176.011 317.5,175C 316.004,174.493 314.837,174.993 314,176.5C 311.912,170.568 308.412,165.568 303.5,161.5C 304.325,160.614 305.325,160.281 306.5,160.5C 306.305,156.453 306.638,152.453 307.5,148.5C 306.291,145.535 305.291,142.535 304.5,139.5C 303.5,139.5 302.5,139.5 301.5,139.5C 302.568,138.566 303.901,138.232 305.5,138.5C 309.28,149.394 313.614,160.06 318.5,170.5C 318.328,171.492 318.662,172.158 319.5,172.5C 319.5,173.167 319.5,173.833 319.5,174.5C 319.5,175.833 320.167,176.5 321.5,176.5C 325.687,174.929 329.687,175.262 333.5,177.5C 333.833,170.167 334.167,162.833 334.5,155.5C 334.497,147.802 333.831,140.468 332.5,133.5 Z"/></g>
<g><path style="opacity:0.161" fill="#8d0128" d="M 167.5,164.5 C 168.209,163.596 169.209,163.263 170.5,163.5C 170.5,173.167 170.5,182.833 170.5,192.5C 170.5,192.833 170.5,193.167 170.5,193.5C 170.167,193.5 169.833,193.5 169.5,193.5C 170.14,183.442 169.473,173.775 167.5,164.5 Z"/></g>
<g><path style="opacity:1" fill="#c68ea9" d="M 234.5,196.5 C 234.5,186.5 234.5,176.5 234.5,166.5C 231.455,166.508 228.455,166.841 225.5,167.5C 224.833,166.5 224.167,165.5 223.5,164.5C 225.167,164.5 226.833,164.5 228.5,164.5C 231.206,164.425 233.873,164.092 236.5,163.5C 236.667,175.171 236.5,186.838 236,198.5C 235.722,197.584 235.222,196.918 234.5,196.5 Z"/></g>
<g><path style="opacity:0.875" fill="#eb0531" d="M 273.5,144.5 C 274.209,143.596 275.209,143.263 276.5,143.5C 276.634,165.128 276.634,186.462 276.5,207.5C 279.287,208.477 282.287,208.81 285.5,208.5C 281.382,209.709 277.049,210.376 272.5,210.5C 271.833,210.5 271.167,210.5 270.5,210.5C 268.236,203.965 269.403,202.632 274,206.5C 274.333,205.833 274.667,205.167 275,204.5C 275.167,194.5 275.333,184.5 275.5,174.5C 275.499,164.144 274.832,154.144 273.5,144.5 Z"/></g>
<g><path style="opacity:0.729" fill="#c50027" d="M 225.5,167.5 C 226.129,177.804 226.129,188.137 225.5,198.5C 225.5,199.167 225.167,199.5 224.5,199.5C 224.172,188.654 224.506,177.987 225.5,167.5 Z"/></g>
<g><path style="opacity:1" fill="#e7000c" d="M 396.5,170.5 C 395.577,174.064 395.244,177.731 395.5,181.5C 400.141,179.502 404.808,177.502 409.5,175.5C 409.5,176.833 409.5,178.167 409.5,179.5C 411.199,179.34 412.866,179.506 414.5,180C 413.944,180.383 413.611,180.883 413.5,181.5C 407.782,182.353 407.449,183.853 412.5,186C 413.252,186.671 413.586,187.504 413.5,188.5C 412.172,197.568 412.172,206.735 413.5,216C 408.657,216.114 403.991,216.947 399.5,218.5C 399.667,207.495 399.5,196.495 399,185.5C 398.241,183.937 397.074,182.937 395.5,182.5C 394.833,182.5 394.5,182.167 394.5,181.5C 393.92,177.351 394.586,173.684 396.5,170.5 Z"/></g>
<g><path style="opacity:1" fill="#e10001" d="M 384.5,191.5 C 384.5,192.833 384.5,194.167 384.5,195.5C 384.5,204.167 384.5,212.833 384.5,221.5C 381.119,221.46 377.786,221.793 374.5,222.5C 374.827,213.318 374.493,204.318 373.5,195.5C 372.264,193.351 371.264,191.018 370.5,188.5C 372.083,184.928 373.583,181.262 375,177.5C 378.421,182.071 381.588,186.737 384.5,191.5 Z"/></g>
<g><path style="opacity:1" fill="#d60000" d="M 434.5,178.5 C 434.5,191.833 434.5,205.167 434.5,218.5C 433.527,220.948 433.194,223.615 433.5,226.5C 432.325,226.719 431.325,226.386 430.5,225.5C 429.752,223.668 428.752,222.001 427.5,220.5C 426.352,209.125 425.352,198.458 424.5,188.5C 424.167,188.5 423.833,188.5 423.5,188.5C 420.66,187.083 417.993,187.416 415.5,189.5C 415.167,189.5 414.833,189.5 414.5,189.5C 414.5,188.833 414.167,188.5 413.5,188.5C 413.586,187.504 413.252,186.671 412.5,186C 407.449,183.853 407.782,182.353 413.5,181.5C 420.481,180.338 427.481,179.338 434.5,178.5 Z"/></g>
<g><path style="opacity:0.736" fill="#5c0805" d="M 423.5,188.5 C 420.794,188.575 418.127,188.908 415.5,189.5C 417.993,187.416 420.66,187.083 423.5,188.5 Z"/></g>
<g><path style="opacity:1" fill="#fe002b" d="M 434.5,178.5 C 435.5,178.5 436.5,178.5 437.5,178.5C 436.37,180.315 435.704,182.315 435.5,184.5C 436.5,184.5 437.5,184.5 438.5,184.5C 438.232,182.901 438.566,181.568 439.5,180.5C 439.433,196.507 439.1,212.507 438.5,228.5C 436.435,228.517 434.435,228.85 432.5,229.5C 434.147,226.079 434.813,222.413 434.5,218.5C 434.5,205.167 434.5,191.833 434.5,178.5 Z"/></g>
<g><path style="opacity:1" fill="#fe000e" d="M 167.5,164.5 C 169.473,173.775 170.14,183.442 169.5,193.5C 169.5,194.167 169.833,194.5 170.5,194.5C 170.672,195.492 170.338,196.158 169.5,196.5C 168.539,198.265 168.205,200.265 168.5,202.5C 167.784,202.783 166.951,203.116 166,203.5C 165.576,205.976 164.743,208.309 163.5,210.5C 164.472,212.954 165.805,215.121 167.5,217C 164.675,218.474 164.342,219.974 166.5,221.5C 163.505,223.463 160.505,225.463 157.5,227.5C 157.863,228.183 158.196,228.85 158.5,229.5C 157.5,229.5 156.5,229.5 155.5,229.5C 155.825,237.019 155.492,244.352 154.5,251.5C 154.666,243.826 154.5,236.159 154,228.5C 153.617,227.944 153.117,227.611 152.5,227.5C 151.512,226.205 150.512,224.872 149.5,223.5C 149.335,220.482 149.502,217.482 150,214.5C 151.699,213.594 153.533,213.261 155.5,213.5C 155.5,212.5 155.5,211.5 155.5,210.5C 155.667,198.162 155.5,185.829 155,173.5C 153.167,171.667 151.333,169.833 149.5,168C 155.483,166.693 161.483,165.527 167.5,164.5 Z"/></g>
<g><path style="opacity:1" fill="#fc0620" d="M 203.5,156.5 C 196.455,174.26 189.122,191.926 181.5,209.5C 182.747,211.323 183.414,213.323 183.5,215.5C 183.768,217.099 183.434,218.432 182.5,219.5C 180.946,218.086 179.612,216.419 178.5,214.5C 177.105,217.638 175.772,220.805 174.5,224C 173.99,225.826 173.156,225.993 172,224.5C 171.421,225.928 171.588,227.262 172.5,228.5C 171.209,228.263 170.209,228.596 169.5,229.5C 169.5,229.833 169.5,230.167 169.5,230.5C 168.51,236.645 168.177,242.978 168.5,249.5C 167.51,243.355 167.177,237.022 167.5,230.5C 164.482,230.296 161.482,229.963 158.5,229.5C 158.196,228.85 157.863,228.183 157.5,227.5C 160.505,225.463 163.505,223.463 166.5,221.5C 164.342,219.974 164.675,218.474 167.5,217C 165.805,215.121 164.472,212.954 163.5,210.5C 164.743,208.309 165.576,205.976 166,203.5C 166.951,203.116 167.784,202.783 168.5,202.5C 169.833,202.5 170.5,201.833 170.5,200.5C 172.419,196.743 173.752,192.743 174.5,188.5C 177.305,181.418 180.305,174.418 183.5,167.5C 184.578,165.461 185.578,163.294 186.5,161C 189.379,160.454 192.046,159.621 194.5,158.5C 197.5,157.833 200.5,157.167 203.5,156.5 Z"/></g>
<g><path style="opacity:1" fill="#dbaabc" d="M 174.5,188.5 C 173.752,192.743 172.419,196.743 170.5,200.5C 169.566,199.432 169.232,198.099 169.5,196.5C 170.338,196.158 170.672,195.492 170.5,194.5C 170.5,194.167 170.5,193.833 170.5,193.5C 170.5,193.167 170.5,192.833 170.5,192.5C 171.167,191.5 171.833,190.5 172.5,189.5C 173.167,189.167 173.833,188.833 174.5,188.5 Z"/></g>
<g><path style="opacity:0.773" fill="#bd92a8" d="M 153.5,175.5 C 154.495,186.988 154.828,198.655 154.5,210.5C 154.158,211.338 153.492,211.672 152.5,211.5C 153.479,199.58 153.812,187.58 153.5,175.5 Z"/></g>
<g><path style="opacity:1" fill="#e27aa3" d="M 212.5,165.5 C 211.706,177.788 211.206,190.122 211,202.5C 208.959,203.423 206.792,203.756 204.5,203.5C 204.5,207.5 204.5,211.5 204.5,215.5C 202.787,214.365 202.12,212.698 202.5,210.5C 203.035,207.366 204.035,204.366 205.5,201.5C 206.583,201.461 207.583,201.127 208.5,200.5C 209.499,189.186 209.832,177.853 209.5,166.5C 210.609,166.443 211.609,166.11 212.5,165.5 Z"/></g>
<g><path style="opacity:1" fill="#e05d82" d="M 254.5,194.5 C 257.167,194.5 259.833,194.5 262.5,194.5C 260.735,195.461 258.735,195.795 256.5,195.5C 256.5,198.833 256.5,202.167 256.5,205.5C 255.883,205.389 255.383,205.056 255,204.5C 254.502,201.183 254.335,197.85 254.5,194.5 Z"/></g>
<g><path style="opacity:1" fill="#fa012d" d="M 388.5,123.5 C 388.842,122.662 389.508,122.328 390.5,122.5C 390.5,156.167 390.5,189.833 390.5,223.5C 385.484,224.058 380.484,224.725 375.5,225.5C 374.596,224.791 374.263,223.791 374.5,222.5C 377.786,221.793 381.119,221.46 384.5,221.5C 384.5,212.833 384.5,204.167 384.5,195.5C 385.222,195.082 385.722,194.416 386,193.5C 385.961,187.278 386.961,181.278 389,175.5C 389.829,157.995 389.662,140.662 388.5,123.5 Z"/></g>
<g><path style="opacity:1" fill="#e00000" d="M 358.5,190.5 C 358.831,198.528 358.498,206.528 357.5,214.5C 355.633,211.771 354.633,212.104 354.5,215.5C 352.173,215.247 350.173,215.914 348.5,217.5C 348.167,215.167 347.833,212.833 347.5,210.5C 347.816,205.752 348.816,201.919 350.5,199C 350.231,196.319 349.564,193.819 348.5,191.5C 351.764,190.676 355.098,190.342 358.5,190.5 Z"/></g>
<g><path style="opacity:1" fill="#ff5a77" d="M 169.5,196.5 C 169.232,198.099 169.566,199.432 170.5,200.5C 170.5,201.833 169.833,202.5 168.5,202.5C 168.205,200.265 168.539,198.265 169.5,196.5 Z"/></g>
<g><path style="opacity:1" fill="#f75c7f" d="M 223.5,201.5 C 223.328,200.508 223.662,199.842 224.5,199.5C 225.167,199.5 225.5,199.167 225.5,198.5C 228.727,198.324 231.727,197.657 234.5,196.5C 235.222,196.918 235.722,197.584 236,198.5C 236.5,186.838 236.667,175.171 236.5,163.5C 233.873,164.092 231.206,164.425 228.5,164.5C 231.219,163.087 234.219,162.42 237.5,162.5C 237.832,174.851 237.499,187.185 236.5,199.5C 232.287,200.911 227.954,201.578 223.5,201.5 Z"/></g>
<g><path style="opacity:1" fill="#e20532" d="M 362.5,170.5 C 361.503,189.659 361.17,208.993 361.5,228.5C 357.167,229.167 352.833,229.833 348.5,230.5C 348.423,229.25 347.756,228.417 346.5,228C 350.782,226.843 355.116,226.01 359.5,225.5C 359.832,213.085 359.499,201.418 358.5,190.5C 355.098,190.342 351.764,190.676 348.5,191.5C 347.5,191.5 346.5,191.5 345.5,191.5C 345.167,191.5 344.833,191.5 344.5,191.5C 343.326,190.486 342.66,189.153 342.5,187.5C 344.048,187.821 344.715,188.821 344.5,190.5C 349.281,188.009 354.281,187.342 359.5,188.5C 359.5,184.5 359.5,180.5 359.5,176.5C 359.5,173.833 359.5,171.167 359.5,168.5C 361.179,168.285 362.179,168.952 362.5,170.5 Z"/></g>
<g><path style="opacity:0.282" fill="#673848" d="M 205.5,201.5 C 204.035,204.366 203.035,207.366 202.5,210.5C 202.5,207.5 202.5,204.5 202.5,201.5C 203.5,201.5 204.5,201.5 205.5,201.5 Z"/></g>
<g><path style="opacity:1" fill="#e72658" d="M 300.5,203.5 C 299.833,204.167 299.167,204.833 298.5,205.5C 294.316,206.772 289.983,207.772 285.5,208.5C 282.287,208.81 279.287,208.477 276.5,207.5C 284.471,206.039 292.471,204.706 300.5,203.5 Z"/></g>
<g><path style="opacity:1" fill="#f40338" d="M 300.5,203.5 C 301.816,206.087 302.483,209.087 302.5,212.5C 302.498,215.686 302.165,218.686 301.5,221.5C 296.492,217.012 296.159,212.012 300.5,206.5C 300.043,205.702 299.376,205.369 298.5,205.5C 299.167,204.833 299.833,204.167 300.5,203.5 Z"/></g>
<g><path style="opacity:1" fill="#d95792" d="M 154.5,210.5 C 154.833,210.5 155.167,210.5 155.5,210.5C 155.5,211.5 155.5,212.5 155.5,213.5C 153.533,213.261 151.699,213.594 150,214.5C 149.502,217.482 149.335,220.482 149.5,223.5C 147.933,220.083 147.433,216.417 148,212.5C 149.356,211.62 150.856,211.286 152.5,211.5C 153.492,211.672 154.158,211.338 154.5,210.5 Z"/></g>
<g><path style="opacity:1" fill="#e30001" d="M 270.5,210.5 C 271.167,210.5 271.833,210.5 272.5,210.5C 272.775,219.221 272.442,227.887 271.5,236.5C 268.518,238.474 265.518,240.474 262.5,242.5C 261.811,232.107 261.144,221.773 260.5,211.5C 263.728,210.586 267.061,210.253 270.5,210.5 Z"/></g>
<g><path style="opacity:1" fill="#fa000e" d="M 298.5,205.5 C 299.376,205.369 300.043,205.702 300.5,206.5C 296.159,212.012 296.492,217.012 301.5,221.5C 299.393,222.468 297.059,222.802 294.5,222.5C 289.452,223.275 284.452,223.275 279.5,222.5C 278.476,223.853 277.143,224.52 275.5,224.5C 274.115,223.698 274.282,223.031 276,222.5C 279.2,221.793 282.367,220.96 285.5,220C 282.096,219.779 278.762,220.279 275.5,221.5C 274.749,220.624 274.249,219.624 274,218.5C 273.667,224.167 273.333,229.833 273,235.5C 272.617,236.056 272.117,236.389 271.5,236.5C 272.442,227.887 272.775,219.221 272.5,210.5C 277.049,210.376 281.382,209.709 285.5,208.5C 289.983,207.772 294.316,206.772 298.5,205.5 Z"/></g>
<g><path style="opacity:0.351" fill="#d0083c" d="M 311.5,210.5 C 312.817,216.678 312.817,223.012 311.5,229.5C 310.893,229.376 310.56,229.043 310.5,228.5C 311.49,222.69 311.823,216.69 311.5,210.5 Z"/></g>
<g><path style="opacity:0.682" fill="#cf2868" d="M 395.5,182.5 C 397.074,182.937 398.241,183.937 399,185.5C 399.5,196.495 399.667,207.495 399.5,218.5C 399.328,219.492 399.662,220.158 400.5,220.5C 400.44,221.043 400.107,221.376 399.5,221.5C 398.668,210.181 398.168,198.848 398,187.5C 397.153,185.807 396.32,184.14 395.5,182.5 Z"/></g>
<g><path style="opacity:1" fill="#d60a40" d="M 413.5,188.5 C 414.167,188.5 414.5,188.833 414.5,189.5C 414.193,198.887 414.527,208.22 415.5,217.5C 410.686,219.396 405.686,220.396 400.5,220.5C 399.662,220.158 399.328,219.492 399.5,218.5C 403.991,216.947 408.657,216.114 413.5,216C 412.172,206.735 412.172,197.568 413.5,188.5 Z"/></g>
<g><path style="opacity:0.459" fill="#e2105f" d="M 423.5,188.5 C 423.833,188.5 424.167,188.5 424.5,188.5C 423.85,203.206 424.517,217.539 426.5,231.5C 425.791,232.404 424.791,232.737 423.5,232.5C 423.5,217.833 423.5,203.167 423.5,188.5 Z"/></g>
<g><path style="opacity:1" fill="#f30003" d="M 348.5,230.5 C 348.5,231.167 348.167,231.5 347.5,231.5C 345.547,218.413 344.88,205.08 345.5,191.5C 346.5,191.5 347.5,191.5 348.5,191.5C 349.564,193.819 350.231,196.319 350.5,199C 348.816,201.919 347.816,205.752 347.5,210.5C 347.833,212.833 348.167,215.167 348.5,217.5C 350.173,215.914 352.173,215.247 354.5,215.5C 354.633,212.104 355.633,211.771 357.5,214.5C 358.498,206.528 358.831,198.528 358.5,190.5C 359.499,201.418 359.832,213.085 359.5,225.5C 355.116,226.01 350.782,226.843 346.5,228C 347.756,228.417 348.423,229.25 348.5,230.5 Z"/></g>
<g><path style="opacity:1" fill="#db0001" d="M 245.5,246.5 C 242.63,247.634 239.63,248.3 236.5,248.5C 236.827,239.318 236.493,230.318 235.5,221.5C 235.167,221.5 234.833,221.5 234.5,221.5C 231.904,222.265 229.237,222.599 226.5,222.5C 225.833,222.5 225.167,222.5 224.5,222.5C 223.778,222.082 223.278,221.416 223,220.5C 222.5,230.828 222.334,241.161 222.5,251.5C 219.735,251.798 217.235,252.798 215,254.5C 213.184,253.257 211.684,253.59 210.5,255.5C 210.608,244.076 210.441,232.41 210,220.5C 209.283,219.956 208.783,219.289 208.5,218.5C 210.05,214.78 212.217,211.447 215,208.5C 216.458,210.96 218.291,213.127 220.5,215C 228.607,215.01 236.607,214.177 244.5,212.5C 245.51,221.791 245.843,233.125 245.5,246.5 Z"/></g>
<g><path style="opacity:1" fill="#d70003" d="M 322.5,235.5 C 322.5,235.833 322.5,236.167 322.5,236.5C 323.562,237.575 323.562,238.575 322.5,239.5C 318.233,236.869 313.899,234.536 309.5,232.5C 311.144,232.286 312.644,232.62 314,233.5C 314.374,232.584 314.874,231.75 315.5,231C 314.135,225.125 313.469,219.125 313.5,213C 313.245,208.278 314.411,204.111 317,200.5C 317.452,197.123 318.118,193.789 319,190.5C 320.63,205.618 321.797,220.618 322.5,235.5 Z"/></g>
<g><path style="opacity:0.692" fill="#b7465e" d="M 344.5,191.5 C 344.833,191.5 345.167,191.5 345.5,191.5C 344.88,205.08 345.547,218.413 347.5,231.5C 346.5,231.5 345.5,231.5 344.5,231.5C 343.498,218.152 343.498,204.818 344.5,191.5 Z"/></g>
<g><path style="opacity:0.584" fill="#b10214" d="M 373.5,195.5 C 374.493,204.318 374.827,213.318 374.5,222.5C 374.263,223.791 374.596,224.791 375.5,225.5C 375.44,226.043 375.107,226.376 374.5,226.5C 373.501,216.188 373.168,205.855 373.5,195.5 Z"/></g>
<g><path style="opacity:0.834" fill="#c00324" d="M 139.5,179.5 C 140.495,191.989 140.829,204.656 140.5,217.5C 140.5,245.833 140.5,274.167 140.5,302.5C 141.791,302.263 142.791,302.596 143.5,303.5C 141.284,303.725 139.617,302.892 138.5,301C 139.112,260.559 139.445,220.059 139.5,179.5 Z"/></g>
<g><path style="opacity:1" fill="#eb0435" d="M 328.5,189.5 C 328.5,204.833 328.5,220.167 328.5,235.5C 326.435,235.517 324.435,235.85 322.5,236.5C 322.5,236.167 322.5,235.833 322.5,235.5C 322.334,225.494 322.5,215.494 323,205.5C 323.333,208.5 323.667,211.5 324,214.5C 324.333,212.5 324.667,210.5 325,208.5C 325.308,209.308 325.808,209.975 326.5,210.5C 327.167,203.345 327.833,196.345 328.5,189.5 Z"/></g>
<g><path style="opacity:1" fill="#a7010d" d="M 294.5,222.5 C 288.542,224.048 282.542,225.382 276.5,226.5C 275.662,226.158 275.328,225.492 275.5,224.5C 277.143,224.52 278.476,223.853 279.5,222.5C 284.452,223.275 289.452,223.275 294.5,222.5 Z"/></g>
<g><path style="opacity:1" fill="#f40011" d="M 434.5,218.5 C 434.813,222.413 434.147,226.079 432.5,229.5C 431.29,229.932 430.29,230.599 429.5,231.5C 428.5,231.5 427.5,231.5 426.5,231.5C 424.517,217.539 423.85,203.206 424.5,188.5C 425.352,198.458 426.352,209.125 427.5,220.5C 428.752,222.001 429.752,223.668 430.5,225.5C 431.325,226.386 432.325,226.719 433.5,226.5C 433.194,223.615 433.527,220.948 434.5,218.5 Z"/></g>
<g><path style="opacity:0.451" fill="#8b0930" d="M 291.5,226.5 C 296.179,226.334 300.845,226.501 305.5,227C 307.058,227.21 308.391,227.71 309.5,228.5C 304.195,227.806 298.862,227.472 293.5,227.5C 292.508,227.672 291.842,227.338 291.5,226.5 Z"/></g>
<g><path style="opacity:1" fill="#f9022f" d="M 224.5,222.5 C 224.5,233.167 224.5,243.833 224.5,254.5C 220.167,255.167 215.833,255.833 211.5,256.5C 210.833,256.5 210.5,256.167 210.5,255.5C 211.684,253.59 213.184,253.257 215,254.5C 217.235,252.798 219.735,251.798 222.5,251.5C 222.334,241.161 222.5,230.828 223,220.5C 223.278,221.416 223.778,222.082 224.5,222.5 Z"/></g>
<g><path style="opacity:0.792" fill="#d91b4c" d="M 224.5,222.5 C 225.167,222.5 225.833,222.5 226.5,222.5C 225.461,228.931 225.461,235.431 226.5,242C 226.514,246.411 225.847,250.578 224.5,254.5C 224.5,243.833 224.5,233.167 224.5,222.5 Z"/></g>
<g><path style="opacity:1" fill="#da0832" d="M 250.5,162.5 C 250.833,162.5 251.167,162.5 251.5,162.5C 251.5,191.5 251.5,220.5 251.5,249.5C 246.395,250.121 241.395,251.121 236.5,252.5C 235.525,242.249 235.192,231.915 235.5,221.5C 236.493,230.318 236.827,239.318 236.5,248.5C 239.63,248.3 242.63,247.634 245.5,246.5C 246.331,234.34 246.831,222.007 247,209.5C 247.097,220.225 247.763,230.891 249,241.5C 249.455,223.829 249.955,206.163 250.5,188.5C 250.5,179.833 250.5,171.167 250.5,162.5 Z"/></g>
<g><path style="opacity:1" fill="#ea0001" d="M 158.5,229.5 C 161.482,229.963 164.482,230.296 167.5,230.5C 167.177,237.022 167.51,243.355 168.5,249.5C 169.535,259.905 168.035,269.905 164,279.5C 161.049,281.076 157.883,281.743 154.5,281.5C 154.5,271.5 154.5,261.5 154.5,251.5C 155.492,244.352 155.825,237.019 155.5,229.5C 156.5,229.5 157.5,229.5 158.5,229.5 Z"/></g>
<g><path style="opacity:1" fill="#eb0f38" d="M 416.5,243.5 C 415.834,238.651 415.167,233.651 414.5,228.5C 411.609,229.006 408.942,230.006 406.5,231.5C 407.991,232.244 409.491,232.91 411,233.5C 411.404,237.37 412.071,241.037 413,244.5C 411.413,245.727 410.079,245.394 409,243.5C 407.103,245.016 404.936,245.683 402.5,245.5C 404.22,244.136 406.22,243.136 408.5,242.5C 409.655,239.554 409.821,236.554 409,233.5C 402.272,236.132 395.438,238.465 388.5,240.5C 388.804,239.85 389.137,239.183 389.5,238.5C 388.147,237.476 387.48,236.143 387.5,234.5C 379.256,235.824 378.923,236.99 386.5,238C 369.362,242.474 352.029,244.974 334.5,245.5C 332.679,246.728 331.679,248.394 331.5,250.5C 329.654,248.97 328.654,246.97 328.5,244.5C 357.934,239.347 387.267,233.68 416.5,227.5C 416.5,232.833 416.5,238.167 416.5,243.5 Z"/></g>
<g><path style="opacity:1" fill="#da1934" d="M 259.5,211.5 C 259.833,211.5 260.167,211.5 260.5,211.5C 261.144,221.773 261.811,232.107 262.5,242.5C 265.518,240.474 268.518,238.474 271.5,236.5C 272.117,236.389 272.617,236.056 273,235.5C 273.333,229.833 273.667,224.167 274,218.5C 274.249,219.624 274.749,220.624 275.5,221.5C 278.762,220.279 282.096,219.779 285.5,220C 282.367,220.96 279.2,221.793 276,222.5C 274.282,223.031 274.115,223.698 275.5,224.5C 275.328,225.492 275.662,226.158 276.5,226.5C 276.34,228.199 276.506,229.866 277,231.5C 281.589,229.137 286.423,227.47 291.5,226.5C 291.842,227.338 292.508,227.672 293.5,227.5C 298.716,229.172 304.05,230.838 309.5,232.5C 292.097,228.689 277.764,233.523 266.5,247C 264.444,247.311 262.444,247.811 260.5,248.5C 259.501,236.185 259.168,223.851 259.5,211.5 Z"/></g>
<g><path style="opacity:1" fill="#e11541" d="M 311.5,241.5 C 304.288,239.818 296.955,239.152 289.5,239.5C 296.872,236.545 304.205,237.212 311.5,241.5 Z"/></g>
<g><path style="opacity:0.922" fill="#cf0633" d="M 446.5,223.5 C 446.833,223.5 447.167,223.5 447.5,223.5C 447.5,228.5 447.5,233.5 447.5,238.5C 444.995,239.417 442.662,239.417 440.5,238.5C 442.5,238.167 444.5,237.833 446.5,237.5C 446.5,232.833 446.5,228.167 446.5,223.5 Z"/></g>
<g><path style="opacity:1" fill="#f8072c" d="M 289.5,239.5 C 296.955,239.152 304.288,239.818 311.5,241.5C 317.751,243.453 322.084,247.453 324.5,253.5C 324.629,256.766 325.629,259.766 327.5,262.5C 327.167,262.833 326.833,263.167 326.5,263.5C 325.618,262.24 324.618,261.074 323.5,260C 318.842,257.499 314.175,255.999 309.5,255.5C 304.015,254.348 298.349,254.182 292.5,255C 289.695,256.382 287.361,258.216 285.5,260.5C 283.774,260.185 282.107,260.019 280.5,260C 282.62,261.523 282.953,263.356 281.5,265.5C 277.217,266.492 272.884,266.826 268.5,266.5C 268.674,264.139 269.007,261.806 269.5,259.5C 270.675,259.719 271.675,259.386 272.5,258.5C 271.515,256.902 271.349,255.235 272,253.5C 273.442,251.609 274.609,249.609 275.5,247.5C 278.947,242.774 283.614,240.108 289.5,239.5 Z"/></g>
<g><path style="opacity:1" fill="#f2052c" d="M 451.5,212.5 C 451.833,212.5 452.167,212.5 452.5,212.5C 452.666,222.506 452.5,232.506 452,242.5C 448.203,243.574 444.37,244.574 440.5,245.5C 435.215,246.081 429.882,245.415 424.5,243.5C 426.884,242.989 428.884,241.989 430.5,240.5C 433.583,240.084 436.583,239.417 439.5,238.5C 439.119,239.931 438.119,240.764 436.5,241C 439.684,241.11 441.851,241.943 443,243.5C 445.452,242.377 447.618,240.877 449.5,239C 451.321,230.28 451.987,221.447 451.5,212.5 Z"/></g>
<g><path style="opacity:0.895" fill="#ee3c5e" d="M 206.5,218.5 C 207.167,218.5 207.833,218.5 208.5,218.5C 208.783,219.289 209.283,219.956 210,220.5C 210.441,232.41 210.608,244.076 210.5,255.5C 210.5,256.167 210.833,256.5 211.5,256.5C 210.811,257.774 209.977,257.774 209,256.5C 209.416,245.119 209.582,233.952 209.5,223C 208.614,221.385 207.614,219.885 206.5,218.5 Z"/></g>
<g><path style="opacity:0.416" fill="#ad3852" d="M 234.5,221.5 C 234.833,221.5 235.167,221.5 235.5,221.5C 235.192,231.915 235.525,242.249 236.5,252.5C 234.525,242.554 233.858,232.221 234.5,221.5 Z"/></g>
<g><path style="opacity:0.989" fill="#f1010e" d="M 388.5,240.5 C 387.772,242.735 386.439,244.568 384.5,246C 376.212,247.825 367.879,249.325 359.5,250.5C 356.171,250.215 353.171,250.882 350.5,252.5C 344.715,254.297 338.882,254.964 333,254.5C 332.59,253.099 332.09,251.766 331.5,250.5C 331.679,248.394 332.679,246.728 334.5,245.5C 352.029,244.974 369.362,242.474 386.5,238C 378.923,236.99 379.256,235.824 387.5,234.5C 387.48,236.143 388.147,237.476 389.5,238.5C 389.137,239.183 388.804,239.85 388.5,240.5 Z"/></g>
<g><path style="opacity:1" fill="#cf3253" d="M 169.5,229.5 C 170.209,228.596 171.209,228.263 172.5,228.5C 179.011,247.528 185.845,266.528 193,285.5C 194.011,284.663 195.178,284.33 196.5,284.5C 197.791,284.263 198.791,284.596 199.5,285.5C 196.518,285.963 193.518,286.296 190.5,286.5C 184.011,267.694 177.344,249.028 170.5,230.5C 170.5,229.833 170.167,229.5 169.5,229.5 Z"/></g>
<g><path style="opacity:1" fill="#dc1b3f" d="M 430.5,240.5 C 428.884,241.989 426.884,242.989 424.5,243.5C 429.882,245.415 435.215,246.081 440.5,245.5C 426.777,247.911 413.11,250.578 399.5,253.5C 399.953,252.542 400.619,251.708 401.5,251C 408.272,250.154 414.939,248.821 421.5,247C 422.973,246.29 423.64,245.124 423.5,243.5C 422.209,243.737 421.209,243.404 420.5,242.5C 423.865,241.96 427.198,241.294 430.5,240.5 Z"/></g>
<g><path style="opacity:0.067" fill="#78041b" d="M 359.5,250.5 C 356.727,251.657 353.727,252.324 350.5,252.5C 353.171,250.882 356.171,250.215 359.5,250.5 Z"/></g>
<g><path style="opacity:1" fill="#ed0833" d="M 324.5,253.5 C 327.729,257.702 329.062,262.536 328.5,268C 328.933,272.641 327.933,276.808 325.5,280.5C 325.69,276.077 326.357,271.744 327.5,267.5C 323.452,267.395 319.452,267.728 315.5,268.5C 315.586,267.504 315.252,266.671 314.5,266C 308.871,265.91 303.371,265.077 298,263.5C 297.167,263.667 296.333,263.833 295.5,264C 296.34,265.666 295.84,265.833 294,264.5C 293.465,266.271 292.631,266.604 291.5,265.5C 292.26,263.64 293.26,261.973 294.5,260.5C 294.918,259.778 295.584,259.278 296.5,259C 301.202,258.828 305.868,258.328 310.5,257.5C 310.137,256.817 309.804,256.15 309.5,255.5C 314.175,255.999 318.842,257.499 323.5,260C 324.618,261.074 325.618,262.24 326.5,263.5C 326.833,263.167 327.167,262.833 327.5,262.5C 325.629,259.766 324.629,256.766 324.5,253.5 Z"/></g>
<g><path style="opacity:1" fill="#fa062f" d="M 416.5,243.5 C 417.833,243.167 419.167,242.833 420.5,242.5C 421.209,243.404 422.209,243.737 423.5,243.5C 423.64,245.124 422.973,246.29 421.5,247C 414.939,248.821 408.272,250.154 401.5,251C 400.619,251.708 399.953,252.542 399.5,253.5C 398.5,253.5 397.5,253.5 396.5,253.5C 396.719,254.675 396.386,255.675 395.5,256.5C 393.591,257.348 391.591,257.682 389.5,257.5C 386.15,257.335 382.817,257.502 379.5,258C 373.304,259.973 366.971,261.306 360.5,262C 358.563,262.122 357.23,262.955 356.5,264.5C 356.167,264.5 355.833,264.5 355.5,264.5C 353.169,263.683 350.669,263.016 348,262.5C 346.211,263.409 344.377,263.576 342.5,263C 346.89,260.872 351.557,259.539 356.5,259C 357.056,258.617 357.389,258.117 357.5,257.5C 365.507,256.11 373.507,254.61 381.5,253C 388.497,250.391 395.497,247.891 402.5,245.5C 404.936,245.683 407.103,245.016 409,243.5C 410.079,245.394 411.413,245.727 413,244.5C 412.071,241.037 411.404,237.37 411,233.5C 409.491,232.91 407.991,232.244 406.5,231.5C 408.942,230.006 411.609,229.006 414.5,228.5C 415.167,233.651 415.834,238.651 416.5,243.5 Z"/></g>
<g><path style="opacity:0.271" fill="#6b1930" d="M 257.5,259.5 C 258.568,258.566 259.901,258.232 261.5,258.5C 261.737,259.791 261.404,260.791 260.5,261.5C 260.179,259.952 259.179,259.285 257.5,259.5 Z"/></g>
<g><path style="opacity:1" fill="#dc1540" d="M 275.5,247.5 C 274.609,249.609 273.442,251.609 272,253.5C 271.349,255.235 271.515,256.902 272.5,258.5C 271.675,259.386 270.675,259.719 269.5,259.5C 269.007,261.806 268.674,264.139 268.5,266.5C 272.884,266.826 277.217,266.492 281.5,265.5C 282.953,263.356 282.62,261.523 280.5,260C 282.107,260.019 283.774,260.185 285.5,260.5C 283.817,264.631 283.15,268.964 283.5,273.5C 282.539,271.735 282.205,269.735 282.5,267.5C 277.821,267.334 273.155,267.501 268.5,268C 267.577,270.041 267.244,272.208 267.5,274.5C 265.033,264.042 267.7,255.042 275.5,247.5 Z"/></g>
<g><path style="opacity:0.224" fill="#cc1739" d="M 389.5,257.5 C 378.691,260.197 367.691,262.53 356.5,264.5C 357.23,262.955 358.563,262.122 360.5,262C 366.971,261.306 373.304,259.973 379.5,258C 382.817,257.502 386.15,257.335 389.5,257.5 Z"/></g>
<g><path style="opacity:1" fill="#e41339" d="M 357.5,257.5 C 357.389,258.117 357.056,258.617 356.5,259C 351.557,259.539 346.89,260.872 342.5,263C 344.377,263.576 346.211,263.409 348,262.5C 350.669,263.016 353.169,263.683 355.5,264.5C 351.448,265.244 347.448,266.244 343.5,267.5C 342.83,269.291 342.163,270.958 341.5,272.5C 341.78,269.728 341.113,267.228 339.5,265C 340.609,263.187 339.942,262.354 337.5,262.5C 337.142,265.689 336.475,268.689 335.5,271.5C 335.5,268.167 335.5,264.833 335.5,261.5C 342.9,260.483 350.234,259.149 357.5,257.5 Z"/></g>
<g><path style="opacity:0.792" fill="#db506e" d="M 152.5,227.5 C 153.117,227.611 153.617,227.944 154,228.5C 154.5,236.159 154.666,243.826 154.5,251.5C 154.5,261.5 154.5,271.5 154.5,281.5C 153.766,282.708 153.433,284.041 153.5,285.5C 153.747,266.897 153.414,247.564 152.5,227.5 Z"/></g>
<g><path style="opacity:1" fill="#cc1237" d="M 294.5,260.5 C 293.26,261.973 292.26,263.64 291.5,265.5C 292.631,266.604 293.465,266.271 294,264.5C 295.84,265.833 296.34,265.666 295.5,264C 296.333,263.833 297.167,263.667 298,263.5C 303.371,265.077 308.871,265.91 314.5,266C 315.252,266.671 315.586,267.504 315.5,268.5C 314.883,273.269 314.216,277.936 313.5,282.5C 313.5,277.5 313.5,272.5 313.5,267.5C 307.471,267.575 301.471,267.241 295.5,266.5C 295.5,268.5 295.5,270.5 295.5,272.5C 294.566,271.432 294.232,270.099 294.5,268.5C 292.833,268.5 291.167,268.5 289.5,268.5C 289.5,269.5 289.5,270.5 289.5,271.5C 287.586,266.322 289.253,262.655 294.5,260.5 Z"/></g>
<g><path style="opacity:1" fill="#ea1744" d="M 183.5,215.5 C 190.129,232.211 196.296,249.211 202,266.5C 202.388,267.428 203.055,268.095 204,268.5C 221.744,264.918 239.577,261.918 257.5,259.5C 259.179,259.285 260.179,259.952 260.5,261.5C 260.5,265.167 260.5,268.833 260.5,272.5C 259.167,272.5 257.833,272.5 256.5,272.5C 257.209,271.596 258.209,271.263 259.5,271.5C 259.5,268.167 259.5,264.833 259.5,261.5C 241.05,264.658 222.55,267.658 204,270.5C 202.213,270.241 200.713,269.575 199.5,268.5C 194.027,252.081 188.36,235.747 182.5,219.5C 183.434,218.432 183.768,217.099 183.5,215.5 Z"/></g>
<g><path style="opacity:1" fill="#f20010" d="M 256.5,272.5 C 254.473,272.338 252.473,272.505 250.5,273C 249.944,273.383 249.611,273.883 249.5,274.5C 247.236,275.219 244.903,275.552 242.5,275.5C 239.65,275.636 236.817,275.969 234,276.5C 232.319,276.608 231.152,277.275 230.5,278.5C 229.833,278.5 229.167,278.5 228.5,278.5C 224.878,278.322 221.544,278.989 218.5,280.5C 212.287,282.281 205.954,283.948 199.5,285.5C 198.791,284.596 197.791,284.263 196.5,284.5C 195.909,283.849 195.243,283.182 194.5,282.5C 196.762,278.566 197.095,274.399 195.5,270C 195.667,269.167 195.833,268.333 196,267.5C 196.628,270.954 197.795,271.287 199.5,268.5C 200.713,269.575 202.213,270.241 204,270.5C 222.55,267.658 241.05,264.658 259.5,261.5C 259.5,264.833 259.5,268.167 259.5,271.5C 258.209,271.263 257.209,271.596 256.5,272.5 Z"/></g>
<g><path style="opacity:1" fill="#ec0003" d="M 182.5,219.5 C 188.36,235.747 194.027,252.081 199.5,268.5C 197.795,271.287 196.628,270.954 196,267.5C 195.833,268.333 195.667,269.167 195.5,270C 197.095,274.399 196.762,278.566 194.5,282.5C 195.243,283.182 195.909,283.849 196.5,284.5C 195.178,284.33 194.011,284.663 193,285.5C 185.845,266.528 179.011,247.528 172.5,228.5C 171.588,227.262 171.421,225.928 172,224.5C 173.156,225.993 173.99,225.826 174.5,224C 175.772,220.805 177.105,217.638 178.5,214.5C 179.612,216.419 180.946,218.086 182.5,219.5 Z"/></g>
<g><path style="opacity:0.914" fill="#9a0222" d="M 256.5,272.5 C 254.401,273.612 252.067,274.279 249.5,274.5C 249.611,273.883 249.944,273.383 250.5,273C 252.473,272.505 254.473,272.338 256.5,272.5 Z"/></g>
<g><path style="opacity:0.263" fill="#810b23" d="M 242.5,275.5 C 238.736,276.992 234.736,277.992 230.5,278.5C 231.152,277.275 232.319,276.608 234,276.5C 236.817,275.969 239.65,275.636 242.5,275.5 Z"/></g>
<g><path style="opacity:0.998" fill="#d8173a" d="M 189.5,292.5 C 188.685,294.302 187.185,295.302 185,295.5C 183.251,295.252 182.418,294.252 182.5,292.5C 183.258,287.72 181.925,283.72 178.5,280.5C 177.511,284.107 177.177,287.774 177.5,291.5C 170.164,292.501 162.831,293.501 155.5,294.5C 162.237,292.43 169.237,291.097 176.5,290.5C 176.171,284.794 176.505,279.128 177.5,273.5C 182.4,279.299 184.4,285.966 183.5,293.5C 185.621,293.675 187.621,293.341 189.5,292.5 Z"/></g>
<g><path style="opacity:1" fill="#f30729" d="M 341.5,272.5 C 337.875,291.456 326.875,303.789 308.5,309.5C 300.114,309.787 291.781,309.287 283.5,308C 280.814,306.632 278.147,305.299 275.5,304C 276.126,303.25 276.626,302.416 277,301.5C 282.401,304.548 288.234,305.881 294.5,305.5C 317.022,304.751 330.689,293.417 335.5,271.5C 336.475,268.689 337.142,265.689 337.5,262.5C 339.942,262.354 340.609,263.187 339.5,265C 341.113,267.228 341.78,269.728 341.5,272.5 Z"/></g>
<g><path style="opacity:0.235" fill="#7f071b" d="M 228.5,278.5 C 225.411,279.785 222.078,280.451 218.5,280.5C 221.544,278.989 224.878,278.322 228.5,278.5 Z"/></g>
<g><path style="opacity:1" fill="#ce1738" d="M 169.5,230.5 C 169.833,230.5 170.167,230.5 170.5,230.5C 170.5,247.833 170.5,265.167 170.5,282.5C 164.858,283.628 159.191,284.628 153.5,285.5C 153.433,284.041 153.766,282.708 154.5,281.5C 157.883,281.743 161.049,281.076 164,279.5C 168.035,269.905 169.535,259.905 168.5,249.5C 168.177,242.978 168.51,236.645 169.5,230.5 Z"/></g>
<g><path style="opacity:1" fill="#f20014" d="M 283.5,273.5 C 285.117,276.784 287.45,279.451 290.5,281.5C 290.918,282.222 291.584,282.722 292.5,283C 299.679,283.821 306.679,283.655 313.5,282.5C 314.216,277.936 314.883,273.269 315.5,268.5C 319.452,267.728 323.452,267.395 327.5,267.5C 326.357,271.744 325.69,276.077 325.5,280.5C 322.978,286.897 318.645,291.564 312.5,294.5C 310.131,294.149 307.797,293.982 305.5,294C 308.028,294.998 308.028,295.831 305.5,296.5C 303.674,294.878 301.841,293.211 300,291.5C 298.491,293.919 296.325,294.919 293.5,294.5C 293.5,293.5 293.5,292.5 293.5,291.5C 288.047,291.742 282.713,291.742 277.5,291.5C 271.659,287.322 268.325,281.655 267.5,274.5C 267.244,272.208 267.577,270.041 268.5,268C 273.155,267.501 277.821,267.334 282.5,267.5C 282.205,269.735 282.539,271.735 283.5,273.5 Z"/></g>
<g><path style="opacity:0.485" fill="#800018" d="M 290.5,281.5 C 298.124,282.398 305.791,282.731 313.5,282.5C 306.679,283.655 299.679,283.821 292.5,283C 291.584,282.722 290.918,282.222 290.5,281.5 Z"/></g>
<g><path style="opacity:0.296" fill="#62021f" d="M 308.5,274.5 C 308.5,275.5 308.5,276.5 308.5,277.5C 303.637,277.819 298.97,277.486 294.5,276.5C 299.48,277.015 304.146,276.348 308.5,274.5 Z"/></g>
<g><path style="opacity:1" fill="#ef0325" d="M 295.5,272.5 C 300.294,271.903 304.627,272.57 308.5,274.5C 304.146,276.348 299.48,277.015 294.5,276.5C 291.833,275.833 290.167,274.167 289.5,271.5C 289.5,270.5 289.5,269.5 289.5,268.5C 291.167,268.5 292.833,268.5 294.5,268.5C 294.232,270.099 294.566,271.432 295.5,272.5 Z"/></g>
<g><path style="opacity:1" fill="#f00f35" d="M 294.5,305.5 C 288.234,305.881 282.401,304.548 277,301.5C 276.626,302.416 276.126,303.25 275.5,304C 278.147,305.299 280.814,306.632 283.5,308C 291.781,309.287 300.114,309.787 308.5,309.5C 285.212,314.524 267.879,306.524 256.5,285.5C 231.627,291.141 206.627,296.141 181.5,300.5C 181.918,299.778 182.584,299.278 183.5,299C 181.903,296.812 181.569,294.646 182.5,292.5C 182.418,294.252 183.251,295.252 185,295.5C 187.185,295.302 188.685,294.302 189.5,292.5C 213.524,287.962 237.524,283.295 261.5,278.5C 264.73,289.232 271.397,297.066 281.5,302C 285.86,303.583 290.194,304.75 294.5,305.5 Z"/></g>
<g><path style="opacity:1" fill="#df0321" d="M 277.5,291.5 C 282.713,291.742 288.047,291.742 293.5,291.5C 293.5,292.5 293.5,293.5 293.5,294.5C 296.325,294.919 298.491,293.919 300,291.5C 301.841,293.211 303.674,294.878 305.5,296.5C 308.028,295.831 308.028,294.998 305.5,294C 307.797,293.982 310.131,294.149 312.5,294.5C 304.046,300.012 295.046,300.845 285.5,297C 282.244,295.884 279.578,294.051 277.5,291.5 Z"/></g>
<g><path style="opacity:0.999" fill="#fd011f" d="M 145.5,295.5 C 148.833,295.167 152.167,294.833 155.5,294.5C 162.831,293.501 170.164,292.501 177.5,291.5C 177.177,287.774 177.511,284.107 178.5,280.5C 181.925,283.72 183.258,287.72 182.5,292.5C 181.569,294.646 181.903,296.812 183.5,299C 182.584,299.278 181.918,299.778 181.5,300.5C 180.167,300.5 178.833,300.5 177.5,300.5C 177.5,298.833 177.5,297.167 177.5,295.5C 175.549,295.773 174.049,295.107 173,293.5C 171.513,294.253 171.346,295.086 172.5,296C 169.5,296.333 166.5,296.667 163.5,297C 160.808,297.743 158.475,298.91 156.5,300.5C 152.116,301.376 147.783,302.376 143.5,303.5C 142.791,302.596 141.791,302.263 140.5,302.5C 140.5,274.167 140.5,245.833 140.5,217.5C 141.166,212.983 141.833,208.317 142.5,203.5C 142.833,206.5 143.167,209.5 143.5,212.5C 144.086,240.33 144.753,267.997 145.5,295.5 Z"/></g>
<g><path style="opacity:1" fill="#d6153a" d="M 181.5,300.5 C 180.081,301.451 178.415,301.784 176.5,301.5C 176.785,299.712 176.452,298.045 175.5,296.5C 169.212,298.091 162.879,299.424 156.5,300.5C 158.475,298.91 160.808,297.743 163.5,297C 166.5,296.667 169.5,296.333 172.5,296C 171.346,295.086 171.513,294.253 173,293.5C 174.049,295.107 175.549,295.773 177.5,295.5C 177.5,297.167 177.5,298.833 177.5,300.5C 178.833,300.5 180.167,300.5 181.5,300.5 Z"/></g>
</svg>
